<svg width="213" height="211" viewBox="0 0 213 211" fill="none" xmlns="http://www.w3.org/2000/svg">
<rect width="213" height="187" fill="url(#paint0_linear)"/>
<path d="M15.744 51.04C15.6373 51.04 15.544 51.0027 15.464 50.928C15.3893 50.848 15.352 50.7547 15.352 50.648C15.352 50.6267 15.352 50.608 15.352 50.592C15.3573 50.5707 15.3627 50.552 15.368 50.536L16.168 47.664H14.928C14.8213 47.664 14.728 47.6267 14.648 47.552C14.5733 47.472 14.536 47.3787 14.536 47.272C14.536 47.16 14.5733 47.0667 14.648 46.992C14.728 46.9173 14.8213 46.88 14.928 46.88H16.392L17.064 44.464H15.824C15.7173 44.464 15.624 44.4267 15.544 44.352C15.4693 44.272 15.432 44.1787 15.432 44.072C15.432 43.96 15.4693 43.8667 15.544 43.792C15.624 43.7173 15.7173 43.68 15.824 43.68H17.272L18.088 40.776C18.1147 40.6907 18.16 40.6213 18.224 40.568C18.2933 40.5093 18.3733 40.48 18.464 40.48C18.576 40.48 18.6693 40.5173 18.744 40.592C18.8187 40.6667 18.856 40.76 18.856 40.872C18.856 40.888 18.8533 40.9067 18.848 40.928C18.848 40.944 18.8453 40.9627 18.84 40.984L18.088 43.68H20.152L20.968 40.776C20.9947 40.6907 21.04 40.6213 21.104 40.568C21.1733 40.5093 21.2533 40.48 21.344 40.48C21.456 40.48 21.5493 40.5173 21.624 40.592C21.6987 40.6667 21.736 40.76 21.736 40.872C21.736 40.888 21.7333 40.9067 21.728 40.928C21.728 40.944 21.7253 40.9627 21.72 40.984L20.968 43.68H22.656C22.768 43.68 22.8613 43.7173 22.936 43.792C23.0107 43.8667 23.048 43.96 23.048 44.072C23.048 44.1787 23.0107 44.272 22.936 44.352C22.8613 44.4267 22.768 44.464 22.656 44.464H20.752L20.08 46.88H21.76C21.872 46.88 21.9653 46.9173 22.04 46.992C22.1147 47.0667 22.152 47.16 22.152 47.272C22.152 47.3787 22.1147 47.472 22.04 47.552C21.9653 47.6267 21.872 47.664 21.76 47.664H19.864L19 50.744C18.9787 50.824 18.9333 50.8933 18.864 50.952C18.7947 51.0107 18.7147 51.04 18.624 51.04C18.5173 51.04 18.424 51.0027 18.344 50.928C18.2693 50.848 18.232 50.7547 18.232 50.648C18.232 50.6267 18.232 50.608 18.232 50.592C18.2373 50.5707 18.2427 50.552 18.248 50.536L19.048 47.664H16.984L16.12 50.744C16.0987 50.824 16.0533 50.8933 15.984 50.952C15.9147 51.0107 15.8347 51.04 15.744 51.04ZM17.2 46.88H19.272L19.944 44.464H17.872L17.2 46.88ZM26.9696 50.984C26.063 50.984 25.3776 50.792 24.9136 50.408C24.4496 50.0187 24.1856 49.408 24.1216 48.576C24.111 48.4373 24.143 48.3307 24.2176 48.256C24.2923 48.176 24.399 48.136 24.5376 48.136C24.799 48.136 24.9403 48.2747 24.9616 48.552C25.015 49.144 25.191 49.5573 25.4896 49.792C25.7936 50.0267 26.287 50.144 26.9696 50.144H28.7936C29.5563 50.144 30.0843 49.9973 30.3776 49.704C30.6763 49.4053 30.8256 48.8827 30.8256 48.136C30.8256 47.384 30.6763 46.8613 30.3776 46.568C30.0843 46.2693 29.5563 46.12 28.7936 46.12H27.3136C27.031 46.12 26.8896 45.9813 26.8896 45.704C26.8896 45.4213 27.031 45.28 27.3136 45.28H29.0096C29.6016 45.2747 30.0096 45.1173 30.2336 44.808C30.4576 44.4933 30.5696 44.024 30.5696 43.4C30.5696 42.7013 30.4336 42.216 30.1616 41.944C29.8896 41.6667 29.4016 41.528 28.6976 41.528H27.1456C26.527 41.528 26.0763 41.6347 25.7936 41.848C25.5163 42.0613 25.3536 42.4347 25.3056 42.968C25.2736 43.2453 25.1296 43.384 24.8736 43.384C24.735 43.384 24.6283 43.3467 24.5536 43.272C24.479 43.192 24.4496 43.0827 24.4656 42.944C24.5243 42.1707 24.7723 41.6027 25.2096 41.24C25.647 40.872 26.2923 40.688 27.1456 40.688H28.6976C29.631 40.688 30.3163 40.9067 30.7536 41.344C31.191 41.7813 31.4096 42.4667 31.4096 43.4C31.4096 44.472 31.023 45.2053 30.2496 45.6C30.7403 45.808 31.0976 46.1227 31.3216 46.544C31.551 46.96 31.6656 47.4907 31.6656 48.136C31.6656 49.1173 31.4363 49.8373 30.9776 50.296C30.519 50.7547 29.791 50.984 28.7936 50.984H26.9696ZM40.0144 45.656C40.9157 46.0613 41.3664 46.8907 41.3664 48.144C41.3664 49.1307 41.137 49.8533 40.6784 50.312C40.2197 50.7707 39.4944 51 38.5024 51H36.6784C35.6864 51 34.9584 50.7707 34.4944 50.312C34.0357 49.8533 33.8064 49.1307 33.8064 48.144C33.8064 46.8747 34.2757 46.0373 35.2144 45.632C34.4997 45.2 34.1424 44.4507 34.1424 43.384C34.1424 42.456 34.361 41.776 34.7984 41.344C35.2357 40.9067 35.921 40.688 36.8544 40.688H38.4064C39.3397 40.688 40.0224 40.9067 40.4544 41.344C40.8917 41.776 41.1104 42.456 41.1104 43.384C41.1104 44.4773 40.745 45.2347 40.0144 45.656ZM36.8544 41.528C36.1557 41.528 35.6677 41.6667 35.3904 41.944C35.1184 42.216 34.9824 42.696 34.9824 43.384C34.9824 44.0987 35.1184 44.5973 35.3904 44.88C35.6624 45.1573 36.1317 45.296 36.7984 45.296L38.6464 45.288C39.0624 45.288 39.3877 45.2187 39.6224 45.08C39.8624 44.936 40.0304 44.7253 40.1264 44.448C40.2224 44.1653 40.2704 43.8107 40.2704 43.384C40.2704 42.696 40.1344 42.216 39.8624 41.944C39.5904 41.6667 39.105 41.528 38.4064 41.528H36.8544ZM38.5024 50.16C39.2597 50.16 39.785 50.0133 40.0784 49.72C40.377 49.4213 40.5264 48.896 40.5264 48.144C40.5264 47.392 40.377 46.8693 40.0784 46.576C39.785 46.2827 39.2597 46.136 38.5024 46.136H36.6784C35.9157 46.136 35.385 46.2827 35.0864 46.576C34.793 46.8693 34.6464 47.392 34.6464 48.144C34.6464 48.896 34.793 49.4213 35.0864 49.72C35.385 50.0133 35.9157 50.16 36.6784 50.16H38.5024ZM46.1415 50.984C45.2348 50.984 44.5495 50.792 44.0855 50.408C43.6215 50.0187 43.3575 49.408 43.2935 48.576C43.2828 48.4373 43.3148 48.3307 43.3895 48.256C43.4642 48.176 43.5708 48.136 43.7095 48.136C43.9708 48.136 44.1122 48.2747 44.1335 48.552C44.1868 49.144 44.3628 49.5573 44.6615 49.792C44.9655 50.0267 45.4588 50.144 46.1415 50.144H47.9655C48.7282 50.144 49.2562 49.9973 49.5495 49.704C49.8482 49.4053 49.9975 48.8827 49.9975 48.136C49.9975 47.384 49.8482 46.8613 49.5495 46.568C49.2562 46.2693 48.7282 46.12 47.9655 46.12H46.4855C46.2028 46.12 46.0615 45.9813 46.0615 45.704C46.0615 45.4213 46.2028 45.28 46.4855 45.28H48.1815C48.7735 45.2747 49.1815 45.1173 49.4055 44.808C49.6295 44.4933 49.7415 44.024 49.7415 43.4C49.7415 42.7013 49.6055 42.216 49.3335 41.944C49.0615 41.6667 48.5735 41.528 47.8695 41.528H46.3175C45.6988 41.528 45.2482 41.6347 44.9655 41.848C44.6882 42.0613 44.5255 42.4347 44.4775 42.968C44.4455 43.2453 44.3015 43.384 44.0455 43.384C43.9068 43.384 43.8002 43.3467 43.7255 43.272C43.6508 43.192 43.6215 43.0827 43.6375 42.944C43.6962 42.1707 43.9442 41.6027 44.3815 41.24C44.8188 40.872 45.4642 40.688 46.3175 40.688H47.8695C48.8028 40.688 49.4882 40.9067 49.9255 41.344C50.3628 41.7813 50.5815 42.4667 50.5815 43.4C50.5815 44.472 50.1948 45.2053 49.4215 45.6C49.9122 45.808 50.2695 46.1227 50.4935 46.544C50.7228 46.96 50.8375 47.4907 50.8375 48.136C50.8375 49.1173 50.6082 49.8373 50.1495 50.296C49.6908 50.7547 48.9628 50.984 47.9655 50.984H46.1415ZM57.5063 40.704C58.4983 40.704 59.2236 40.9333 59.6823 41.392C60.1463 41.8507 60.3783 42.5707 60.3783 43.552V48.288C60.3783 49.2213 60.1596 49.9067 59.7223 50.344C59.2849 50.7813 58.5996 51 57.6663 51H55.6823C54.8289 51 54.1836 50.8187 53.7463 50.456C53.3089 50.088 53.0609 49.5173 53.0023 48.744C52.9863 48.6053 53.0129 48.4987 53.0822 48.424C53.1569 48.344 53.2636 48.304 53.4023 48.304C53.6689 48.304 53.8156 48.4427 53.8423 48.72C53.8849 49.2533 54.0449 49.6267 54.3223 49.84C54.6049 50.0533 55.0583 50.16 55.6823 50.16H57.6663C58.3649 50.16 58.8503 50.024 59.1223 49.752C59.3996 49.4747 59.5383 48.9867 59.5383 48.288V46.504C59.1756 47.176 58.4983 47.512 57.5063 47.512H55.8423C54.8503 47.512 54.1249 47.2827 53.6663 46.824C53.2076 46.36 52.9783 45.632 52.9783 44.64V43.568C52.9783 42.5813 53.2076 41.8587 53.6663 41.4C54.1249 40.936 54.8503 40.704 55.8423 40.704H57.5063ZM57.5063 41.544H55.8423C55.0903 41.544 54.5649 41.696 54.2663 42C53.9676 42.2987 53.8183 42.8213 53.8183 43.568V44.64C53.8183 45.3973 53.9676 45.9253 54.2663 46.224C54.5649 46.5227 55.0903 46.672 55.8423 46.672H57.5063C58.2689 46.672 58.7969 46.5253 59.0903 46.232C59.3889 45.9333 59.5383 45.408 59.5383 44.656V43.552C59.5383 42.8053 59.3889 42.2853 59.0903 41.992C58.7969 41.6933 58.2689 41.544 57.5063 41.544ZM67.9811 51C67.6985 51 67.5571 50.8587 67.5571 50.576L67.6211 41.84L67.8531 41.8L62.9811 48.136L62.8451 47.928L69.2051 47.92C69.3438 47.92 69.4478 47.9573 69.5171 48.032C69.5918 48.1067 69.6291 48.2107 69.6291 48.344C69.6291 48.6213 69.4878 48.76 69.2051 48.76H62.4131C62.1305 48.76 61.9891 48.6213 61.9891 48.344C61.9891 48.2107 62.0478 48.064 62.1651 47.904L67.5171 40.952C67.5918 40.8507 67.6691 40.7813 67.7491 40.744C67.8345 40.7067 67.9385 40.688 68.0611 40.688C68.3278 40.688 68.4611 40.8293 68.4611 41.112L68.3971 50.576C68.3971 50.8587 68.2585 51 67.9811 51ZM73.1873 51C72.9046 51 72.7633 50.8587 72.7633 50.576V41.688L73.1473 41.632L71.4113 43.328C71.3153 43.424 71.2193 43.4747 71.1233 43.48C71.0273 43.4853 70.9313 43.44 70.8353 43.344C70.6539 43.152 70.6566 42.9547 70.8433 42.752L72.7393 40.904C72.8673 40.76 73.0406 40.688 73.2593 40.688C73.4886 40.688 73.6033 40.8293 73.6033 41.112V50.576C73.6033 50.8587 73.4646 51 73.1873 51Z" fill="#EBEBEB"/>
<path d="M15.92 34C15.6373 34 15.496 33.8587 15.496 33.576V24.112C15.496 23.8293 15.6373 23.688 15.92 23.688H20.096C20.88 23.688 21.472 23.888 21.872 24.288C22.2773 24.6827 22.48 25.264 22.48 26.032V26.464C22.48 27.3013 22.2107 27.8933 21.672 28.24C22.6053 28.624 23.072 29.456 23.072 30.736V31.24C23.072 32.1467 22.8373 32.8347 22.368 33.304C21.904 33.768 21.216 34 20.304 34H15.92ZM16.336 33.16H20.304C20.9813 33.16 21.472 33.008 21.776 32.704C22.08 32.4 22.232 31.912 22.232 31.24V30.736C22.232 30.064 22.08 29.5787 21.776 29.28C21.4773 28.9813 20.9867 28.832 20.304 28.832H16.336V33.16ZM16.336 27.992H20.216C20.7013 27.992 21.0587 27.8693 21.288 27.624C21.5227 27.3733 21.64 26.9867 21.64 26.464V26.032C21.64 25.4987 21.5173 25.1147 21.272 24.88C21.032 24.6453 20.64 24.528 20.096 24.528H16.336V27.992ZM27.6179 34C26.8605 34 26.3032 33.824 25.9459 33.472C25.5939 33.12 25.4179 32.568 25.4179 31.816V23.32C25.4179 23.0427 25.5592 22.904 25.8419 22.904C26.1192 22.904 26.2579 23.0427 26.2579 23.32V31.816C26.2579 32.3333 26.3539 32.688 26.5459 32.88C26.7379 33.0667 27.0925 33.16 27.6099 33.16C27.8979 33.16 28.0419 33.2987 28.0419 33.576C28.0472 33.8587 27.9059 34 27.6179 34ZM32.0096 34C31.1776 34 30.567 33.808 30.1776 33.424C29.7936 33.0347 29.6016 32.424 29.6016 31.592C29.6016 30.76 29.7963 30.1493 30.1856 29.76C30.575 29.3707 31.183 29.176 32.0096 29.176H35.6496C35.639 28.472 35.479 27.9813 35.1696 27.704C34.8656 27.4213 34.3456 27.28 33.6096 27.28H32.6816C32.0043 27.28 31.5083 27.352 31.1936 27.496C30.879 27.64 30.6843 27.8853 30.6096 28.232C30.5723 28.3653 30.5216 28.464 30.4576 28.528C30.399 28.5867 30.303 28.616 30.1696 28.616C30.031 28.616 29.9216 28.5787 29.8416 28.504C29.767 28.424 29.7403 28.3173 29.7616 28.184C29.831 27.576 30.1056 27.1333 30.5856 26.856C31.071 26.5787 31.7696 26.44 32.6816 26.44H33.6096C34.607 26.44 35.335 26.672 35.7936 27.136C36.2576 27.5947 36.4896 28.3227 36.4896 29.32V33.576C36.4896 33.8587 36.351 34 36.0736 34C35.791 34 35.6496 33.8587 35.6496 33.576V32.784C35.1376 33.5947 34.223 34 32.9056 34H32.0096ZM32.0096 33.16H32.9056C33.423 33.16 33.8763 33.104 34.2656 32.992C34.6603 32.8747 34.9776 32.688 35.2176 32.432C35.4576 32.176 35.6016 31.8347 35.6496 31.408V30.016H32.0096C31.4176 30.016 31.007 30.1307 30.7776 30.36C30.5536 30.584 30.4416 30.9947 30.4416 31.592C30.4416 32.184 30.5536 32.5947 30.7776 32.824C31.007 33.048 31.4176 33.16 32.0096 33.16ZM42.0118 34C41.0144 34 40.2838 33.768 39.8198 33.304C39.3558 32.84 39.1238 32.1093 39.1238 31.112V29.304C39.1238 28.3067 39.3531 27.5787 39.8118 27.12C40.2758 26.656 41.0091 26.4293 42.0118 26.44H43.3238C44.1078 26.44 44.7051 26.5733 45.1158 26.84C45.5318 27.1013 45.7798 27.5147 45.8598 28.08C45.8758 28.224 45.8438 28.3333 45.7638 28.408C45.6891 28.4827 45.5824 28.52 45.4438 28.52C45.3158 28.52 45.2198 28.488 45.1558 28.424C45.0918 28.3547 45.0438 28.256 45.0118 28.128C44.9531 27.8187 44.7958 27.6 44.5398 27.472C44.2838 27.344 43.8784 27.28 43.3238 27.28H42.0118C41.2491 27.2693 40.7158 27.4133 40.4118 27.712C40.1131 28.0053 39.9638 28.536 39.9638 29.304V31.112C39.9638 31.8747 40.1131 32.408 40.4118 32.712C40.7158 33.0107 41.2491 33.16 42.0118 33.16H43.3238C43.8784 33.16 44.2838 33.096 44.5398 32.968C44.7958 32.84 44.9531 32.6187 45.0118 32.304C45.0438 32.176 45.0918 32.08 45.1558 32.016C45.2198 31.9467 45.3158 31.912 45.4438 31.912C45.5824 31.912 45.6891 31.952 45.7638 32.032C45.8438 32.1067 45.8758 32.2133 45.8598 32.352C45.7798 32.9173 45.5318 33.3333 45.1158 33.6C44.7051 33.8667 44.1078 34 43.3238 34H42.0118ZM48.9044 34C48.6217 34 48.4804 33.8587 48.4804 33.576V23.32C48.4804 23.0427 48.6217 22.904 48.9044 22.904C49.1817 22.904 49.3204 23.0427 49.3204 23.32V29.968L53.3844 26.48C53.587 26.2987 53.7817 26.312 53.9684 26.52C54.1497 26.728 54.1364 26.9253 53.9284 27.112L50.9844 29.648L54.1844 33.28C54.371 33.488 54.3577 33.6853 54.1444 33.872C53.9417 34.0533 53.747 34.04 53.5604 33.832L50.3364 30.2L49.3204 31.072V33.576C49.3204 33.8587 49.1817 34 48.9044 34Z" fill="#EBEBEB"/>
<path d="M15.744 163.04C15.6373 163.04 15.544 163.003 15.464 162.928C15.3893 162.848 15.352 162.755 15.352 162.648C15.352 162.627 15.352 162.608 15.352 162.592C15.3573 162.571 15.3627 162.552 15.368 162.536L16.168 159.664H14.928C14.8213 159.664 14.728 159.627 14.648 159.552C14.5733 159.472 14.536 159.379 14.536 159.272C14.536 159.16 14.5733 159.067 14.648 158.992C14.728 158.917 14.8213 158.88 14.928 158.88H16.392L17.064 156.464H15.824C15.7173 156.464 15.624 156.427 15.544 156.352C15.4693 156.272 15.432 156.179 15.432 156.072C15.432 155.96 15.4693 155.867 15.544 155.792C15.624 155.717 15.7173 155.68 15.824 155.68H17.272L18.088 152.776C18.1147 152.691 18.16 152.621 18.224 152.568C18.2933 152.509 18.3733 152.48 18.464 152.48C18.576 152.48 18.6693 152.517 18.744 152.592C18.8187 152.667 18.856 152.76 18.856 152.872C18.856 152.888 18.8533 152.907 18.848 152.928C18.848 152.944 18.8453 152.963 18.84 152.984L18.088 155.68H20.152L20.968 152.776C20.9947 152.691 21.04 152.621 21.104 152.568C21.1733 152.509 21.2533 152.48 21.344 152.48C21.456 152.48 21.5493 152.517 21.624 152.592C21.6987 152.667 21.736 152.76 21.736 152.872C21.736 152.888 21.7333 152.907 21.728 152.928C21.728 152.944 21.7253 152.963 21.72 152.984L20.968 155.68H22.656C22.768 155.68 22.8613 155.717 22.936 155.792C23.0107 155.867 23.048 155.96 23.048 156.072C23.048 156.179 23.0107 156.272 22.936 156.352C22.8613 156.427 22.768 156.464 22.656 156.464H20.752L20.08 158.88H21.76C21.872 158.88 21.9653 158.917 22.04 158.992C22.1147 159.067 22.152 159.16 22.152 159.272C22.152 159.379 22.1147 159.472 22.04 159.552C21.9653 159.627 21.872 159.664 21.76 159.664H19.864L19 162.744C18.9787 162.824 18.9333 162.893 18.864 162.952C18.7947 163.011 18.7147 163.04 18.624 163.04C18.5173 163.04 18.424 163.003 18.344 162.928C18.2693 162.848 18.232 162.755 18.232 162.648C18.232 162.627 18.232 162.608 18.232 162.592C18.2373 162.571 18.2427 162.552 18.248 162.536L19.048 159.664H16.984L16.12 162.744C16.0987 162.824 16.0533 162.893 15.984 162.952C15.9147 163.011 15.8347 163.04 15.744 163.04ZM17.2 158.88H19.272L19.944 156.464H17.872L17.2 158.88ZM27.6736 163.032C26.5163 163.032 25.671 162.765 25.1376 162.232C24.6043 161.699 24.3376 160.853 24.3376 159.696V156.048C24.3376 154.891 24.6043 154.048 25.1376 153.52C25.6763 152.992 26.5216 152.731 27.6736 152.736H28.6336C29.791 152.736 30.6336 153.003 31.1616 153.536C31.695 154.064 31.9616 154.907 31.9616 156.064V159.696C31.9616 160.853 31.695 161.699 31.1616 162.232C30.6336 162.765 29.791 163.032 28.6336 163.032H27.6736ZM27.6736 162.192H28.6336C29.247 162.192 29.735 162.112 30.0976 161.952C30.4603 161.792 30.7216 161.531 30.8816 161.168C31.0416 160.8 31.1216 160.309 31.1216 159.696V156.064C31.1216 155.451 31.0416 154.963 30.8816 154.6C30.7216 154.237 30.4603 153.976 30.0976 153.816C29.735 153.656 29.247 153.576 28.6336 153.576H27.6736C27.0603 153.571 26.5696 153.648 26.2016 153.808C25.839 153.963 25.5776 154.221 25.4176 154.584C25.2576 154.947 25.1776 155.435 25.1776 156.048V159.696C25.1776 160.309 25.2576 160.8 25.4176 161.168C25.5776 161.531 25.839 161.792 26.2016 161.952C26.5643 162.112 27.055 162.192 27.6736 162.192ZM28.0096 158.512C27.7003 158.512 27.5456 158.355 27.5456 158.04V157.736C27.5456 157.432 27.7003 157.28 28.0096 157.28H28.3056C28.6096 157.28 28.7616 157.432 28.7616 157.736V158.04C28.7616 158.355 28.6096 158.512 28.3056 158.512H28.0096ZM36.531 163C36.2483 163 36.107 162.859 36.107 162.576V153.688L36.491 153.632L34.755 155.328C34.659 155.424 34.563 155.475 34.467 155.48C34.371 155.485 34.275 155.44 34.179 155.344C33.9977 155.152 34.0003 154.955 34.187 154.752L36.083 152.904C36.211 152.76 36.3843 152.688 36.603 152.688C36.8323 152.688 36.947 152.829 36.947 153.112V162.576C36.947 162.859 36.8083 163 36.531 163ZM42.9549 163.032C41.7975 163.032 40.9522 162.765 40.4189 162.232C39.8855 161.699 39.6189 160.853 39.6189 159.696V156.048C39.6189 154.891 39.8855 154.048 40.4189 153.52C40.9575 152.992 41.8029 152.731 42.9549 152.736H43.9149C45.0722 152.736 45.9149 153.003 46.4429 153.536C46.9762 154.064 47.2429 154.907 47.2429 156.064V159.696C47.2429 160.853 46.9762 161.699 46.4429 162.232C45.9149 162.765 45.0722 163.032 43.9149 163.032H42.9549ZM42.9549 162.192H43.9149C44.5282 162.192 45.0162 162.112 45.3789 161.952C45.7415 161.792 46.0029 161.531 46.1629 161.168C46.3229 160.8 46.4029 160.309 46.4029 159.696V156.064C46.4029 155.451 46.3229 154.963 46.1629 154.6C46.0029 154.237 45.7415 153.976 45.3789 153.816C45.0162 153.656 44.5282 153.576 43.9149 153.576H42.9549C42.3415 153.571 41.8509 153.648 41.4829 153.808C41.1202 153.963 40.8589 154.221 40.6989 154.584C40.5389 154.947 40.4589 155.435 40.4589 156.048V159.696C40.4589 160.309 40.5389 160.8 40.6989 161.168C40.8589 161.531 41.1202 161.792 41.4829 161.952C41.8455 162.112 42.3362 162.192 42.9549 162.192ZM43.2909 158.512C42.9815 158.512 42.8269 158.355 42.8269 158.04V157.736C42.8269 157.432 42.9815 157.28 43.2909 157.28H43.5869C43.8909 157.28 44.0429 157.432 44.0429 157.736V158.04C44.0429 158.355 43.8909 158.512 43.5869 158.512H43.2909ZM51.8123 163C51.5296 163 51.3883 162.859 51.3883 162.576V153.688L51.7723 153.632L50.0363 155.328C49.9403 155.424 49.8443 155.475 49.7483 155.48C49.6523 155.485 49.5563 155.44 49.4603 155.344C49.2789 155.152 49.2816 154.955 49.4683 154.752L51.3643 152.904C51.4923 152.76 51.6656 152.688 51.8843 152.688C52.1136 152.688 52.2283 152.829 52.2283 153.112V162.576C52.2283 162.859 52.0896 163 51.8123 163ZM58.2361 163.032C57.0788 163.032 56.2335 162.765 55.7001 162.232C55.1668 161.699 54.9001 160.853 54.9001 159.696V156.048C54.9001 154.891 55.1668 154.048 55.7001 153.52C56.2388 152.992 57.0841 152.731 58.2361 152.736H59.1961C60.3535 152.736 61.1961 153.003 61.7241 153.536C62.2575 154.064 62.5241 154.907 62.5241 156.064V159.696C62.5241 160.853 62.2575 161.699 61.7241 162.232C61.1961 162.765 60.3535 163.032 59.1961 163.032H58.2361ZM58.2361 162.192H59.1961C59.8095 162.192 60.2975 162.112 60.6601 161.952C61.0228 161.792 61.2841 161.531 61.4441 161.168C61.6041 160.8 61.6841 160.309 61.6841 159.696V156.064C61.6841 155.451 61.6041 154.963 61.4441 154.6C61.2841 154.237 61.0228 153.976 60.6601 153.816C60.2975 153.656 59.8095 153.576 59.1961 153.576H58.2361C57.6228 153.571 57.1321 153.648 56.7641 153.808C56.4015 153.963 56.1401 154.221 55.9801 154.584C55.8201 154.947 55.7401 155.435 55.7401 156.048V159.696C55.7401 160.309 55.8201 160.8 55.9801 161.168C56.1401 161.531 56.4015 161.792 56.7641 161.952C57.1268 162.112 57.6175 162.192 58.2361 162.192ZM58.5721 158.512C58.2628 158.512 58.1081 158.355 58.1081 158.04V157.736C58.1081 157.432 58.2628 157.28 58.5721 157.28H58.8681C59.1721 157.28 59.3241 157.432 59.3241 157.736V158.04C59.3241 158.355 59.1721 158.512 58.8681 158.512H58.5721ZM67.2978 162.984C66.3911 162.984 65.7058 162.792 65.2418 162.408C64.7778 162.019 64.5138 161.408 64.4498 160.576C64.4391 160.437 64.4711 160.331 64.5458 160.256C64.6204 160.176 64.7271 160.136 64.8658 160.136C65.1271 160.136 65.2684 160.275 65.2898 160.552C65.3431 161.144 65.5191 161.557 65.8178 161.792C66.1218 162.027 66.6151 162.144 67.2978 162.144H69.1218C69.8844 162.144 70.4124 161.997 70.7058 161.704C71.0044 161.405 71.1538 160.883 71.1538 160.136C71.1538 159.384 71.0044 158.861 70.7058 158.568C70.4124 158.269 69.8844 158.12 69.1218 158.12H67.6418C67.3591 158.12 67.2178 157.981 67.2178 157.704C67.2178 157.421 67.3591 157.28 67.6418 157.28H69.3378C69.9298 157.275 70.3378 157.117 70.5618 156.808C70.7858 156.493 70.8978 156.024 70.8978 155.4C70.8978 154.701 70.7618 154.216 70.4898 153.944C70.2178 153.667 69.7298 153.528 69.0258 153.528H67.4738C66.8551 153.528 66.4044 153.635 66.1218 153.848C65.8444 154.061 65.6818 154.435 65.6338 154.968C65.6018 155.245 65.4578 155.384 65.2018 155.384C65.0631 155.384 64.9564 155.347 64.8818 155.272C64.8071 155.192 64.7778 155.083 64.7938 154.944C64.8524 154.171 65.1004 153.603 65.5378 153.24C65.9751 152.872 66.6204 152.688 67.4738 152.688H69.0258C69.9591 152.688 70.6444 152.907 71.0818 153.344C71.5191 153.781 71.7378 154.467 71.7378 155.4C71.7378 156.472 71.3511 157.205 70.5778 157.6C71.0684 157.808 71.4258 158.123 71.6498 158.544C71.8791 158.96 71.9938 159.491 71.9938 160.136C71.9938 161.117 71.7644 161.837 71.3058 162.296C70.8471 162.755 70.1191 162.984 69.1218 162.984H67.2978Z" fill="#EBEBEB"/>
<path d="M18.152 206.984C17.496 206.984 16.9947 206.845 16.648 206.568C16.3013 206.285 16.0933 205.856 16.024 205.28C16.008 205.141 16.0373 205.035 16.112 204.96C16.1867 204.88 16.296 204.84 16.44 204.84C16.5733 204.84 16.672 204.875 16.736 204.944C16.8053 205.013 16.8507 205.117 16.872 205.256C16.92 205.587 17.04 205.819 17.232 205.952C17.4293 206.08 17.736 206.144 18.152 206.144H20.776C21.272 206.144 21.6133 206.051 21.8 205.864C21.9867 205.677 22.08 205.336 22.08 204.84C22.08 204.339 21.9867 203.995 21.8 203.808C21.6133 203.621 21.272 203.528 20.776 203.528H18.184C17.4907 203.528 16.9733 203.363 16.632 203.032C16.296 202.696 16.128 202.181 16.128 201.488C16.128 200.779 16.296 200.259 16.632 199.928C16.968 199.592 17.4853 199.424 18.184 199.424H20.696C21.9013 199.424 22.5707 199.957 22.704 201.024C22.7253 201.163 22.696 201.272 22.616 201.352C22.5413 201.427 22.4347 201.464 22.296 201.464C22.1627 201.464 22.0613 201.429 21.992 201.36C21.928 201.291 21.8827 201.189 21.856 201.056C21.8187 200.757 21.7093 200.552 21.528 200.44C21.352 200.323 21.0747 200.264 20.696 200.264H18.184C17.72 200.264 17.4 200.349 17.224 200.52C17.0533 200.691 16.968 201.013 16.968 201.488C16.968 201.941 17.056 202.256 17.232 202.432C17.408 202.603 17.7253 202.688 18.184 202.688H20.776C21.512 202.688 22.0533 202.864 22.4 203.216C22.7467 203.563 22.92 204.104 22.92 204.84C22.92 205.571 22.7467 206.112 22.4 206.464C22.0533 206.811 21.512 206.984 20.776 206.984H18.152ZM25.8575 210.2C25.5748 210.2 25.4335 210.059 25.4335 209.776V199.856C25.4335 199.579 25.5748 199.44 25.8575 199.44C26.1348 199.44 26.2735 199.579 26.2735 199.856V200.568C26.5135 200.195 26.8575 199.915 27.3055 199.728C27.7535 199.536 28.3268 199.44 29.0255 199.44H29.6335C30.6308 199.44 31.3588 199.672 31.8175 200.136C32.2815 200.595 32.5135 201.323 32.5135 202.32V204.112C32.5135 205.109 32.2815 205.84 31.8175 206.304C31.3588 206.768 30.6308 207 29.6335 207H26.2735V209.776C26.2735 210.059 26.1348 210.2 25.8575 210.2ZM26.2735 206.16H29.6335C30.3962 206.16 30.9268 206.011 31.2255 205.712C31.5242 205.408 31.6735 204.875 31.6735 204.112V202.32C31.6735 201.557 31.5242 201.027 31.2255 200.728C30.9268 200.429 30.3962 200.28 29.6335 200.28H29.0255C28.1722 200.28 27.5162 200.413 27.0575 200.68C26.6042 200.947 26.3428 201.357 26.2735 201.912V206.16ZM37.5409 207C36.7089 207 36.0982 206.808 35.7089 206.424C35.3249 206.035 35.1329 205.424 35.1329 204.592C35.1329 203.76 35.3275 203.149 35.7169 202.76C36.1062 202.371 36.7142 202.176 37.5409 202.176H41.1809C41.1702 201.472 41.0102 200.981 40.7009 200.704C40.3969 200.421 39.8769 200.28 39.1409 200.28H38.2129C37.5355 200.28 37.0395 200.352 36.7249 200.496C36.4102 200.64 36.2155 200.885 36.1409 201.232C36.1035 201.365 36.0529 201.464 35.9889 201.528C35.9302 201.587 35.8342 201.616 35.7009 201.616C35.5622 201.616 35.4529 201.579 35.3729 201.504C35.2982 201.424 35.2715 201.317 35.2929 201.184C35.3622 200.576 35.6369 200.133 36.1169 199.856C36.6022 199.579 37.3009 199.44 38.2129 199.44H39.1409C40.1382 199.44 40.8662 199.672 41.3249 200.136C41.7889 200.595 42.0209 201.323 42.0209 202.32V206.576C42.0209 206.859 41.8822 207 41.6049 207C41.3222 207 41.1809 206.859 41.1809 206.576V205.784C40.6689 206.595 39.7542 207 38.4369 207H37.5409ZM37.5409 206.16H38.4369C38.9542 206.16 39.4075 206.104 39.7969 205.992C40.1915 205.875 40.5089 205.688 40.7489 205.432C40.9889 205.176 41.1329 204.835 41.1809 204.408V203.016H37.5409C36.9489 203.016 36.5382 203.131 36.3089 203.36C36.0849 203.584 35.9729 203.995 35.9729 204.592C35.9729 205.184 36.0849 205.595 36.3089 205.824C36.5382 206.048 36.9489 206.16 37.5409 206.16ZM47.543 207C46.5457 207 45.815 206.768 45.351 206.304C44.887 205.84 44.655 205.109 44.655 204.112V202.304C44.655 201.307 44.8843 200.579 45.343 200.12C45.807 199.656 46.5403 199.429 47.543 199.44H48.855C49.639 199.44 50.2363 199.573 50.647 199.84C51.063 200.101 51.311 200.515 51.391 201.08C51.407 201.224 51.375 201.333 51.295 201.408C51.2203 201.483 51.1137 201.52 50.975 201.52C50.847 201.52 50.751 201.488 50.687 201.424C50.623 201.355 50.575 201.256 50.543 201.128C50.4843 200.819 50.327 200.6 50.071 200.472C49.815 200.344 49.4097 200.28 48.855 200.28H47.543C46.7803 200.269 46.247 200.413 45.943 200.712C45.6443 201.005 45.495 201.536 45.495 202.304V204.112C45.495 204.875 45.6443 205.408 45.943 205.712C46.247 206.011 46.7803 206.16 47.543 206.16H48.855C49.4097 206.16 49.815 206.096 50.071 205.968C50.327 205.84 50.4843 205.619 50.543 205.304C50.575 205.176 50.623 205.08 50.687 205.016C50.751 204.947 50.847 204.912 50.975 204.912C51.1137 204.912 51.2203 204.952 51.295 205.032C51.375 205.107 51.407 205.213 51.391 205.352C51.311 205.917 51.063 206.333 50.647 206.6C50.2363 206.867 49.639 207 48.855 207H47.543ZM54.6356 203.544V204.128C54.6356 204.88 54.785 205.408 55.0836 205.712C55.3876 206.011 55.921 206.16 56.6836 206.16H57.9956C58.6676 206.16 59.1556 206.075 59.4596 205.904C59.769 205.728 59.953 205.427 60.0116 205C60.033 204.867 60.0756 204.765 60.1396 204.696C60.209 204.627 60.313 204.592 60.4516 204.592C60.5903 204.592 60.6943 204.632 60.7636 204.712C60.8383 204.787 60.8676 204.893 60.8516 205.032C60.7823 205.704 60.513 206.2 60.0436 206.52C59.5743 206.84 58.8916 207 57.9956 207H56.6836C55.6863 207 54.9556 206.771 54.4916 206.312C54.0276 205.848 53.7956 205.12 53.7956 204.128V202.32C53.7956 201.312 54.0276 200.579 54.4916 200.12C54.9556 199.656 55.6863 199.429 56.6836 199.44H57.9956C58.993 199.44 59.721 199.672 60.1796 200.136C60.6436 200.595 60.8756 201.323 60.8756 202.32V203.12C60.8756 203.403 60.737 203.544 60.4596 203.544H54.6356ZM56.6836 200.28C55.921 200.269 55.3876 200.416 55.0836 200.72C54.785 201.019 54.6356 201.552 54.6356 202.32V202.704H60.0356V202.32C60.0356 201.557 59.8863 201.027 59.5876 200.728C59.289 200.429 58.7583 200.28 57.9956 200.28H56.6836ZM62.2794 208.608C62.1567 208.608 62.0554 208.573 61.9754 208.504C61.8954 208.435 61.866 208.339 61.8874 208.216L62.2634 206.168C62.2847 205.901 62.4367 205.768 62.7194 205.768H63.0234C63.322 205.768 63.4714 205.92 63.4714 206.224V206.456C63.4714 206.557 63.4634 206.635 63.4474 206.688C63.4367 206.741 63.4207 206.792 63.3994 206.84L62.6474 208.352C62.562 208.523 62.4394 208.608 62.2794 208.608ZM70.5763 207C70.2936 207 70.1523 206.859 70.1523 206.576V199.856C70.1523 199.579 70.2936 199.44 70.5763 199.44C70.8536 199.44 70.9923 199.579 70.9923 199.856V201.088C71.2696 200.555 71.6696 200.147 72.1923 199.864C72.7203 199.581 73.3443 199.44 74.0643 199.44C74.3469 199.44 74.4883 199.579 74.4883 199.856C74.4883 200.139 74.3469 200.28 74.0643 200.28C73.1149 200.28 72.3789 200.496 71.8563 200.928C71.3336 201.355 71.0456 201.965 70.9923 202.76V206.576C70.9923 206.859 70.8536 207 70.5763 207ZM78.543 207C77.5457 207 76.815 206.771 76.351 206.312C75.887 205.848 75.655 205.12 75.655 204.128V202.32C75.655 201.312 75.887 200.579 76.351 200.12C76.815 199.656 77.5457 199.429 78.543 199.44H79.855C80.8523 199.44 81.5803 199.672 82.039 200.136C82.503 200.595 82.735 201.323 82.735 202.32V204.112C82.735 205.109 82.503 205.84 82.039 206.304C81.5803 206.768 80.8523 207 79.855 207H78.543ZM76.495 204.128C76.495 204.88 76.6443 205.408 76.943 205.712C77.247 206.011 77.7803 206.16 78.543 206.16H79.855C80.6177 206.16 81.1483 206.011 81.447 205.712C81.7457 205.408 81.895 204.875 81.895 204.112V202.32C81.895 201.557 81.7457 201.027 81.447 200.728C81.1483 200.429 80.6177 200.28 79.855 200.28H78.543C78.031 200.275 77.6257 200.336 77.327 200.464C77.0283 200.592 76.815 200.805 76.687 201.104C76.559 201.403 76.495 201.808 76.495 202.32V204.128ZM88.1836 207C87.1863 207 86.4556 206.768 85.9916 206.304C85.5276 205.84 85.2956 205.109 85.2956 204.112V202.304C85.2956 201.307 85.525 200.579 85.9836 200.12C86.4476 199.656 87.181 199.429 88.1836 199.44H89.4956C90.2796 199.44 90.877 199.573 91.2876 199.84C91.7036 200.101 91.9516 200.515 92.0316 201.08C92.0476 201.224 92.0156 201.333 91.9356 201.408C91.861 201.483 91.7543 201.52 91.6156 201.52C91.4876 201.52 91.3916 201.488 91.3276 201.424C91.2636 201.355 91.2156 201.256 91.1836 201.128C91.125 200.819 90.9676 200.6 90.7116 200.472C90.4556 200.344 90.0503 200.28 89.4956 200.28H88.1836C87.421 200.269 86.8876 200.413 86.5836 200.712C86.285 201.005 86.1356 201.536 86.1356 202.304V204.112C86.1356 204.875 86.285 205.408 86.5836 205.712C86.8876 206.011 87.421 206.16 88.1836 206.16H89.4956C90.0503 206.16 90.4556 206.096 90.7116 205.968C90.9676 205.84 91.125 205.619 91.1836 205.304C91.2156 205.176 91.2636 205.08 91.3276 205.016C91.3916 204.947 91.4876 204.912 91.6156 204.912C91.7543 204.912 91.861 204.952 91.9356 205.032C92.0156 205.107 92.0476 205.213 92.0316 205.352C91.9516 205.917 91.7036 206.333 91.2876 206.6C90.877 206.867 90.2796 207 89.4956 207H88.1836ZM95.0763 207C94.7936 207 94.6523 206.859 94.6523 206.576V196.32C94.6523 196.043 94.7936 195.904 95.0763 195.904C95.3536 195.904 95.4923 196.043 95.4923 196.32V202.968L99.5563 199.48C99.7589 199.299 99.9536 199.312 100.14 199.52C100.322 199.728 100.308 199.925 100.1 200.112L97.1562 202.648L100.356 206.28C100.543 206.488 100.53 206.685 100.316 206.872C100.114 207.053 99.9189 207.04 99.7323 206.832L96.5083 203.2L95.4923 204.072V206.576C95.4923 206.859 95.3536 207 95.0763 207ZM103.965 206.984C103.309 206.984 102.807 206.845 102.461 206.568C102.114 206.285 101.906 205.856 101.837 205.28C101.821 205.141 101.85 205.035 101.925 204.96C101.999 204.88 102.109 204.84 102.253 204.84C102.386 204.84 102.485 204.875 102.549 204.944C102.618 205.013 102.663 205.117 102.685 205.256C102.733 205.587 102.853 205.819 103.045 205.952C103.242 206.08 103.549 206.144 103.965 206.144H106.589C107.085 206.144 107.426 206.051 107.613 205.864C107.799 205.677 107.893 205.336 107.893 204.84C107.893 204.339 107.799 203.995 107.613 203.808C107.426 203.621 107.085 203.528 106.589 203.528H103.997C103.303 203.528 102.786 203.363 102.445 203.032C102.109 202.696 101.941 202.181 101.941 201.488C101.941 200.779 102.109 200.259 102.445 199.928C102.781 199.592 103.298 199.424 103.997 199.424H106.509C107.714 199.424 108.383 199.957 108.517 201.024C108.538 201.163 108.509 201.272 108.429 201.352C108.354 201.427 108.247 201.464 108.109 201.464C107.975 201.464 107.874 201.429 107.805 201.36C107.741 201.291 107.695 201.189 107.669 201.056C107.631 200.757 107.522 200.552 107.341 200.44C107.165 200.323 106.887 200.264 106.509 200.264H103.997C103.533 200.264 103.213 200.349 103.037 200.52C102.866 200.691 102.781 201.013 102.781 201.488C102.781 201.941 102.869 202.256 103.045 202.432C103.221 202.603 103.538 202.688 103.997 202.688H106.589C107.325 202.688 107.866 202.864 108.213 203.216C108.559 203.563 108.733 204.104 108.733 204.84C108.733 205.571 108.559 206.112 108.213 206.464C107.866 206.811 107.325 206.984 106.589 206.984H103.965ZM110.67 208.608C110.547 208.608 110.446 208.573 110.366 208.504C110.286 208.435 110.257 208.339 110.278 208.216L110.654 206.168C110.675 205.901 110.827 205.768 111.11 205.768H111.414C111.713 205.768 111.862 205.92 111.862 206.224V206.456C111.862 206.557 111.854 206.635 111.838 206.688C111.827 206.741 111.811 206.792 111.79 206.84L111.038 208.352C110.953 208.523 110.83 208.608 110.67 208.608ZM121.631 207C120.65 207 119.932 206.773 119.479 206.32C119.026 205.867 118.799 205.152 118.799 204.176V200.28H117.847C117.564 200.28 117.423 200.139 117.423 199.856C117.423 199.579 117.564 199.44 117.847 199.44H118.799V197.72C118.799 197.437 118.938 197.296 119.215 197.296C119.498 197.296 119.639 197.437 119.639 197.72V199.44H121.647C121.924 199.44 122.063 199.579 122.063 199.856C122.063 200.139 121.924 200.28 121.647 200.28H119.639V204.176C119.639 204.923 119.783 205.44 120.071 205.728C120.364 206.016 120.884 206.16 121.631 206.16C121.786 206.16 121.895 206.195 121.959 206.264C122.028 206.333 122.063 206.437 122.063 206.576C122.063 206.859 121.919 207 121.631 207ZM124.701 207C124.419 207 124.277 206.859 124.277 206.576V196.32C124.277 196.043 124.419 195.904 124.701 195.904C124.979 195.904 125.117 196.043 125.117 196.32V200.624C125.624 199.835 126.541 199.44 127.869 199.44H128.317C129.315 199.44 130.043 199.672 130.501 200.136C130.965 200.595 131.197 201.323 131.197 202.32V206.576C131.197 206.859 131.059 207 130.781 207C130.499 207 130.357 206.859 130.357 206.576V202.32C130.357 201.557 130.205 201.027 129.901 200.728C129.603 200.429 129.075 200.28 128.317 200.28H127.869C127.043 200.28 126.392 200.411 125.917 200.672C125.443 200.933 125.176 201.341 125.117 201.896V206.576C125.117 206.859 124.979 207 124.701 207ZM134.667 203.544V204.128C134.667 204.88 134.816 205.408 135.115 205.712C135.419 206.011 135.952 206.16 136.715 206.16H138.027C138.699 206.16 139.187 206.075 139.491 205.904C139.8 205.728 139.984 205.427 140.043 205C140.064 204.867 140.107 204.765 140.171 204.696C140.24 204.627 140.344 204.592 140.483 204.592C140.622 204.592 140.726 204.632 140.795 204.712C140.87 204.787 140.899 204.893 140.883 205.032C140.814 205.704 140.544 206.2 140.075 206.52C139.606 206.84 138.923 207 138.027 207H136.715C135.718 207 134.987 206.771 134.523 206.312C134.059 205.848 133.827 205.12 133.827 204.128V202.32C133.827 201.312 134.059 200.579 134.523 200.12C134.987 199.656 135.718 199.429 136.715 199.44H138.027C139.024 199.44 139.752 199.672 140.211 200.136C140.675 200.595 140.907 201.323 140.907 202.32V203.12C140.907 203.403 140.768 203.544 140.491 203.544H134.667ZM136.715 200.28C135.952 200.269 135.419 200.416 135.115 200.72C134.816 201.019 134.667 201.552 134.667 202.32V202.704H140.067V202.32C140.067 201.557 139.918 201.027 139.619 200.728C139.32 200.429 138.79 200.28 138.027 200.28H136.715ZM148.123 207C147.84 207 147.699 206.859 147.699 206.576V197.112C147.699 196.829 147.84 196.688 148.123 196.688C148.326 196.688 148.486 196.781 148.603 196.968L152.587 203.056L152.395 203.08L156.379 196.968C156.491 196.781 156.659 196.688 156.883 196.688C157.134 196.688 157.259 196.829 157.259 197.112V206.576C157.259 206.859 157.12 207 156.843 207C156.56 207 156.419 206.859 156.419 206.576V197.952L156.667 198.032L152.971 203.664C152.854 203.845 152.686 203.936 152.467 203.936C152.275 203.936 152.12 203.845 152.003 203.664L148.307 198.032L148.539 198.12V206.576C148.539 206.859 148.4 207 148.123 207ZM162.918 207C161.921 207 161.19 206.771 160.726 206.312C160.262 205.848 160.03 205.12 160.03 204.128V202.32C160.03 201.312 160.262 200.579 160.726 200.12C161.19 199.656 161.921 199.429 162.918 199.44H164.23C165.227 199.44 165.955 199.672 166.414 200.136C166.878 200.595 167.11 201.323 167.11 202.32V204.112C167.11 205.109 166.878 205.84 166.414 206.304C165.955 206.768 165.227 207 164.23 207H162.918ZM160.87 204.128C160.87 204.88 161.019 205.408 161.318 205.712C161.622 206.011 162.155 206.16 162.918 206.16H164.23C164.993 206.16 165.523 206.011 165.822 205.712C166.121 205.408 166.27 204.875 166.27 204.112V202.32C166.27 201.557 166.121 201.027 165.822 200.728C165.523 200.429 164.993 200.28 164.23 200.28H162.918C162.406 200.275 162.001 200.336 161.702 200.464C161.403 200.592 161.19 200.805 161.062 201.104C160.934 201.403 160.87 201.808 160.87 202.32V204.128ZM172.559 207C171.561 207 170.831 206.771 170.367 206.312C169.903 205.848 169.671 205.12 169.671 204.128V202.32C169.671 201.312 169.903 200.579 170.367 200.12C170.831 199.656 171.561 199.429 172.559 199.44H173.871C174.868 199.44 175.596 199.672 176.055 200.136C176.519 200.595 176.751 201.323 176.751 202.32V204.112C176.751 205.109 176.519 205.84 176.055 206.304C175.596 206.768 174.868 207 173.871 207H172.559ZM170.511 204.128C170.511 204.88 170.66 205.408 170.959 205.712C171.263 206.011 171.796 206.16 172.559 206.16H173.871C174.633 206.16 175.164 206.011 175.463 205.712C175.761 205.408 175.911 204.875 175.911 204.112V202.32C175.911 201.557 175.761 201.027 175.463 200.728C175.164 200.429 174.633 200.28 173.871 200.28H172.559C172.047 200.275 171.641 200.336 171.343 200.464C171.044 200.592 170.831 200.805 170.703 201.104C170.575 201.403 170.511 201.808 170.511 202.32V204.128ZM179.951 207C179.669 207 179.527 206.859 179.527 206.576V199.856C179.527 199.579 179.669 199.44 179.951 199.44C180.229 199.44 180.367 199.579 180.367 199.856V200.624C180.874 199.835 181.791 199.44 183.119 199.44H183.567C184.565 199.44 185.293 199.672 185.751 200.136C186.215 200.595 186.447 201.323 186.447 202.32V206.576C186.447 206.859 186.309 207 186.031 207C185.749 207 185.607 206.859 185.607 206.576V202.32C185.607 201.557 185.455 201.027 185.151 200.728C184.853 200.429 184.325 200.28 183.567 200.28H183.119C182.293 200.28 181.642 200.411 181.167 200.672C180.693 200.933 180.426 201.341 180.367 201.896V206.576C180.367 206.859 180.229 207 179.951 207Z" fill="#EBEBEB"/>
<defs>
<linearGradient id="paint0_linear" x1="106.5" y1="0" x2="106.5" y2="187" gradientUnits="userSpaceOnUse">
<stop stop-color="#383941"/>
<stop offset="1" stop-color="#010103"/>
</linearGradient>
</defs>
</svg>
