<svg width="213" height="211" viewBox="0 0 213 211" fill="none" xmlns="http://www.w3.org/2000/svg">
<rect width="213" height="140" fill="#29BCA8"/>
<rect y="140" width="213" height="47" fill="#29BCA8" fill-opacity="0.2"/>
<path d="M16.744 51.04C16.6373 51.04 16.544 51.0027 16.464 50.928C16.3893 50.848 16.352 50.7547 16.352 50.648C16.352 50.6267 16.352 50.608 16.352 50.592C16.3573 50.5707 16.3627 50.552 16.368 50.536L17.168 47.664H15.928C15.8213 47.664 15.728 47.6267 15.648 47.552C15.5733 47.472 15.536 47.3787 15.536 47.272C15.536 47.16 15.5733 47.0667 15.648 46.992C15.728 46.9173 15.8213 46.88 15.928 46.88H17.392L18.064 44.464H16.824C16.7173 44.464 16.624 44.4267 16.544 44.352C16.4693 44.272 16.432 44.1787 16.432 44.072C16.432 43.96 16.4693 43.8667 16.544 43.792C16.624 43.7173 16.7173 43.68 16.824 43.68H18.272L19.088 40.776C19.1147 40.6907 19.16 40.6213 19.224 40.568C19.2933 40.5093 19.3733 40.48 19.464 40.48C19.576 40.48 19.6693 40.5173 19.744 40.592C19.8187 40.6667 19.856 40.76 19.856 40.872C19.856 40.888 19.8533 40.9067 19.848 40.928C19.848 40.944 19.8453 40.9627 19.84 40.984L19.088 43.68H21.152L21.968 40.776C21.9947 40.6907 22.04 40.6213 22.104 40.568C22.1733 40.5093 22.2533 40.48 22.344 40.48C22.456 40.48 22.5493 40.5173 22.624 40.592C22.6987 40.6667 22.736 40.76 22.736 40.872C22.736 40.888 22.7333 40.9067 22.728 40.928C22.728 40.944 22.7253 40.9627 22.72 40.984L21.968 43.68H23.656C23.768 43.68 23.8613 43.7173 23.936 43.792C24.0107 43.8667 24.048 43.96 24.048 44.072C24.048 44.1787 24.0107 44.272 23.936 44.352C23.8613 44.4267 23.768 44.464 23.656 44.464H21.752L21.08 46.88H22.76C22.872 46.88 22.9653 46.9173 23.04 46.992C23.1147 47.0667 23.152 47.16 23.152 47.272C23.152 47.3787 23.1147 47.472 23.04 47.552C22.9653 47.6267 22.872 47.664 22.76 47.664H20.864L20 50.744C19.9787 50.824 19.9333 50.8933 19.864 50.952C19.7947 51.0107 19.7147 51.04 19.624 51.04C19.5173 51.04 19.424 51.0027 19.344 50.928C19.2693 50.848 19.232 50.7547 19.232 50.648C19.232 50.6267 19.232 50.608 19.232 50.592C19.2373 50.5707 19.2427 50.552 19.248 50.536L20.048 47.664H17.984L17.12 50.744C17.0987 50.824 17.0533 50.8933 16.984 50.952C16.9147 51.0107 16.8347 51.04 16.744 51.04ZM18.2 46.88H20.272L20.944 44.464H18.872L18.2 46.88ZM31.9456 51H25.7456C25.4576 51 25.3136 50.8587 25.3136 50.576C25.3136 49.968 25.3963 49.4453 25.5616 49.008C25.727 48.5707 25.967 48.184 26.2816 47.848C26.6016 47.5067 26.9883 47.1867 27.4416 46.888C27.9003 46.5893 28.4176 46.2747 28.9936 45.944C29.5216 45.64 29.967 45.3707 30.3296 45.136C30.6923 44.896 30.967 44.6453 31.1536 44.384C31.3456 44.1173 31.4416 43.7893 31.4416 43.4C31.4416 42.7013 31.3056 42.216 31.0336 41.944C30.7616 41.6667 30.2736 41.528 29.5696 41.528H27.8576C27.239 41.528 26.7883 41.6347 26.5056 41.848C26.2283 42.0613 26.0656 42.4347 26.0176 42.968C26.0016 43.1067 25.959 43.2107 25.8896 43.28C25.8203 43.3493 25.719 43.384 25.5856 43.384C25.447 43.384 25.3403 43.3467 25.2656 43.272C25.191 43.192 25.159 43.0827 25.1696 42.944C25.2336 42.1707 25.4843 41.6027 25.9216 41.24C26.359 40.872 27.0043 40.688 27.8576 40.688H29.5696C30.503 40.688 31.1883 40.9067 31.6256 41.344C32.063 41.7813 32.2816 42.4667 32.2816 43.4C32.2816 43.9493 32.151 44.4133 31.8896 44.792C31.6336 45.1653 31.287 45.4987 30.8496 45.792C30.4176 46.08 29.9376 46.3733 29.4096 46.672C28.7323 47.0613 28.1643 47.4133 27.7056 47.728C27.247 48.0373 26.8896 48.3787 26.6336 48.752C26.383 49.12 26.231 49.5893 26.1776 50.16H31.9456C32.2283 50.16 32.3696 50.2987 32.3696 50.576C32.3696 50.8587 32.2283 51 31.9456 51ZM38.9438 40.704C39.9358 40.704 40.6611 40.9333 41.1198 41.392C41.5838 41.8507 41.8158 42.5707 41.8158 43.552V48.288C41.8158 49.2213 41.5971 49.9067 41.1598 50.344C40.7224 50.7813 40.0371 51 39.1038 51H37.1198C36.2664 51 35.6211 50.8187 35.1838 50.456C34.7464 50.088 34.4984 49.5173 34.4398 48.744C34.4238 48.6053 34.4504 48.4987 34.5197 48.424C34.5944 48.344 34.7011 48.304 34.8398 48.304C35.1064 48.304 35.2531 48.4427 35.2798 48.72C35.3224 49.2533 35.4824 49.6267 35.7598 49.84C36.0424 50.0533 36.4958 50.16 37.1198 50.16H39.1038C39.8024 50.16 40.2878 50.024 40.5598 49.752C40.8371 49.4747 40.9758 48.9867 40.9758 48.288V46.504C40.6131 47.176 39.9358 47.512 38.9438 47.512H37.2798C36.2878 47.512 35.5624 47.2827 35.1038 46.824C34.6451 46.36 34.4158 45.632 34.4158 44.64V43.568C34.4158 42.5813 34.6451 41.8587 35.1038 41.4C35.5624 40.936 36.2878 40.704 37.2798 40.704H38.9438ZM38.9438 41.544H37.2798C36.5278 41.544 36.0024 41.696 35.7038 42C35.4051 42.2987 35.2558 42.8213 35.2558 43.568V44.64C35.2558 45.3973 35.4051 45.9253 35.7038 46.224C36.0024 46.5227 36.5278 46.672 37.2798 46.672H38.9438C39.7064 46.672 40.2344 46.5253 40.5278 46.232C40.8264 45.9333 40.9758 45.408 40.9758 44.656V43.552C40.9758 42.8053 40.8264 42.2853 40.5278 41.992C40.2344 41.6933 39.7064 41.544 38.9438 41.544ZM44.8106 51C44.528 51 44.3866 50.8587 44.3866 50.576V41.112C44.3866 40.8293 44.528 40.688 44.8106 40.688H48.9866C49.7706 40.688 50.3626 40.888 50.7626 41.288C51.168 41.6827 51.3706 42.264 51.3706 43.032V43.464C51.3706 44.3013 51.1013 44.8933 50.5626 45.24C51.496 45.624 51.9626 46.456 51.9626 47.736V48.24C51.9626 49.1467 51.728 49.8347 51.2586 50.304C50.7946 50.768 50.1066 51 49.1946 51H44.8106ZM45.2266 50.16H49.1946C49.872 50.16 50.3626 50.008 50.6666 49.704C50.9706 49.4 51.1226 48.912 51.1226 48.24V47.736C51.1226 47.064 50.9706 46.5787 50.6666 46.28C50.368 45.9813 49.8773 45.832 49.1946 45.832H45.2266V50.16ZM45.2266 44.992H49.1066C49.592 44.992 49.9493 44.8693 50.1786 44.624C50.4133 44.3733 50.5306 43.9867 50.5306 43.464V43.032C50.5306 42.4987 50.408 42.1147 50.1626 41.88C49.9226 41.6453 49.5306 41.528 48.9866 41.528H45.2266V44.992ZM57.4285 51C56.2712 51 55.4258 50.7333 54.8925 50.2C54.3592 49.6667 54.0925 48.8213 54.0925 47.664V44.024C54.0925 42.856 54.3565 42.008 54.8845 41.48C55.4178 40.952 56.2605 40.688 57.4125 40.688H59.3485C60.3298 40.688 61.0605 40.8933 61.5405 41.304C62.0205 41.7093 62.2845 42.3627 62.3325 43.264C62.3485 43.408 62.3192 43.5173 62.2445 43.592C62.1752 43.6667 62.0712 43.704 61.9325 43.704C61.6658 43.704 61.5192 43.5627 61.4925 43.28C61.4552 42.6187 61.2738 42.1627 60.9485 41.912C60.6232 41.656 60.0898 41.528 59.3485 41.528H57.4125C56.7992 41.528 56.3112 41.608 55.9485 41.768C55.5858 41.9227 55.3245 42.184 55.1645 42.552C55.0098 42.9147 54.9325 43.4053 54.9325 44.024V47.664C54.9325 48.2827 55.0125 48.7733 55.1725 49.136C55.3325 49.4987 55.5938 49.76 55.9565 49.92C56.3192 50.08 56.8098 50.16 57.4285 50.16H59.3485C60.0898 50.16 60.6232 50.0347 60.9485 49.784C61.2738 49.528 61.4552 49.0693 61.4925 48.408C61.5192 48.1253 61.6658 47.984 61.9325 47.984C62.0712 47.984 62.1752 48.024 62.2445 48.104C62.3192 48.1787 62.3485 48.2853 62.3325 48.424C62.2845 49.3253 62.0205 49.9813 61.5405 50.392C61.0605 50.7973 60.3298 51 59.3485 51H57.4285ZM64.1411 50.96C63.8851 50.848 63.8078 50.6613 63.9091 50.4L67.8771 41.016C67.9625 40.7973 68.1198 40.688 68.3491 40.688H68.3971C68.6158 40.6933 68.7705 40.8027 68.8611 41.016L72.8291 50.4C72.9358 50.6613 72.8611 50.848 72.6051 50.96C72.3438 51.0667 72.1625 50.992 72.0611 50.736L70.9971 48.216H65.7571L64.6931 50.736C64.5865 50.992 64.4025 51.0667 64.1411 50.96ZM66.1011 47.376H70.6451L68.3731 42.016L66.1011 47.376ZM80.5613 45.656C81.4626 46.0613 81.9132 46.8907 81.9132 48.144C81.9132 49.1307 81.6839 49.8533 81.2253 50.312C80.7666 50.7707 80.0413 51 79.0493 51H77.2253C76.2333 51 75.5053 50.7707 75.0413 50.312C74.5826 49.8533 74.3533 49.1307 74.3533 48.144C74.3533 46.8747 74.8226 46.0373 75.7613 45.632C75.0466 45.2 74.6893 44.4507 74.6893 43.384C74.6893 42.456 74.9079 41.776 75.3453 41.344C75.7826 40.9067 76.4679 40.688 77.4013 40.688H78.9533C79.8866 40.688 80.5693 40.9067 81.0013 41.344C81.4386 41.776 81.6573 42.456 81.6573 43.384C81.6573 44.4773 81.2919 45.2347 80.5613 45.656ZM77.4013 41.528C76.7026 41.528 76.2146 41.6667 75.9373 41.944C75.6653 42.216 75.5293 42.696 75.5293 43.384C75.5293 44.0987 75.6653 44.5973 75.9373 44.88C76.2093 45.1573 76.6786 45.296 77.3453 45.296L79.1933 45.288C79.6093 45.288 79.9346 45.2187 80.1693 45.08C80.4093 44.936 80.5773 44.7253 80.6733 44.448C80.7693 44.1653 80.8173 43.8107 80.8173 43.384C80.8173 42.696 80.6813 42.216 80.4093 41.944C80.1373 41.6667 79.6519 41.528 78.9533 41.528H77.4013ZM79.0493 50.16C79.8066 50.16 80.3319 50.0133 80.6253 49.72C80.9239 49.4213 81.0733 48.896 81.0733 48.144C81.0733 47.392 80.9239 46.8693 80.6253 46.576C80.3319 46.2827 79.8066 46.136 79.0493 46.136H77.2253C76.4626 46.136 75.9319 46.2827 75.6332 46.576C75.3399 46.8693 75.1933 47.392 75.1933 48.144C75.1933 48.896 75.3399 49.4213 75.6332 49.72C75.9319 50.0133 76.4626 50.16 77.2253 50.16H79.0493Z" fill="#EBEBEB"/>
<path d="M19.616 34C18.4587 34 17.6133 33.7333 17.08 33.2C16.5467 32.6667 16.28 31.8213 16.28 30.664V27.024C16.28 25.856 16.544 25.008 17.072 24.48C17.6053 23.952 18.448 23.688 19.6 23.688H21.536C22.5173 23.688 23.248 23.8933 23.728 24.304C24.208 24.7093 24.472 25.3627 24.52 26.264C24.536 26.408 24.5067 26.5173 24.432 26.592C24.3627 26.6667 24.2587 26.704 24.12 26.704C23.8533 26.704 23.7067 26.5627 23.68 26.28C23.6427 25.6187 23.4613 25.1627 23.136 24.912C22.8107 24.656 22.2773 24.528 21.536 24.528H19.6C18.9867 24.528 18.4987 24.608 18.136 24.768C17.7733 24.9227 17.512 25.184 17.352 25.552C17.1973 25.9147 17.12 26.4053 17.12 27.024V30.664C17.12 31.2827 17.2 31.7733 17.36 32.136C17.52 32.4987 17.7813 32.76 18.144 32.92C18.5067 33.08 18.9973 33.16 19.616 33.16H21.536C22.08 33.16 22.5093 33.0933 22.824 32.96C23.144 32.8267 23.3707 32.6027 23.504 32.288C23.6373 31.9733 23.704 31.5387 23.704 30.984V29.984L21.952 29.968C21.6747 29.968 21.536 29.8267 21.536 29.544C21.536 29.2667 21.6747 29.128 21.952 29.128L24.128 29.144C24.4053 29.144 24.544 29.2827 24.544 29.56V30.984C24.544 32.04 24.3067 32.808 23.832 33.288C23.3573 33.7627 22.592 34 21.536 34H19.616ZM27.5763 34C27.2936 34 27.1523 33.8587 27.1523 33.576V26.856C27.1523 26.5787 27.2936 26.44 27.5763 26.44C27.8536 26.44 27.9923 26.5787 27.9923 26.856V28.088C28.2696 27.5547 28.6696 27.1467 29.1923 26.864C29.7203 26.5813 30.3443 26.44 31.0643 26.44C31.3469 26.44 31.4883 26.5787 31.4883 26.856C31.4883 27.1387 31.3469 27.28 31.0643 27.28C30.1149 27.28 29.3789 27.496 28.8563 27.928C28.3336 28.3547 28.0456 28.9653 27.9923 29.76V33.576C27.9923 33.8587 27.8536 34 27.5763 34ZM33.495 30.544V31.128C33.495 31.88 33.6443 32.408 33.943 32.712C34.247 33.0107 34.7803 33.16 35.543 33.16H36.855C37.527 33.16 38.015 33.0747 38.319 32.904C38.6283 32.728 38.8123 32.4267 38.871 32C38.8923 31.8667 38.935 31.7653 38.999 31.696C39.0683 31.6267 39.1723 31.592 39.311 31.592C39.4497 31.592 39.5537 31.632 39.623 31.712C39.6977 31.7867 39.727 31.8933 39.711 32.032C39.6417 32.704 39.3723 33.2 38.903 33.52C38.4337 33.84 37.751 34 36.855 34H35.543C34.5457 34 33.815 33.7707 33.351 33.312C32.887 32.848 32.655 32.12 32.655 31.128V29.32C32.655 28.312 32.887 27.5787 33.351 27.12C33.815 26.656 34.5457 26.4293 35.543 26.44H36.855C37.8523 26.44 38.5803 26.672 39.039 27.136C39.503 27.5947 39.735 28.3227 39.735 29.32V30.12C39.735 30.4027 39.5963 30.544 39.319 30.544H33.495ZM35.543 27.28C34.7803 27.2693 34.247 27.416 33.943 27.72C33.6443 28.0187 33.495 28.552 33.495 29.32V29.704H38.895V29.32C38.895 28.5573 38.7457 28.0267 38.447 27.728C38.1483 27.4293 37.6177 27.28 36.855 27.28H35.543ZM43.1356 30.544V31.128C43.1356 31.88 43.285 32.408 43.5836 32.712C43.8876 33.0107 44.421 33.16 45.1836 33.16H46.4956C47.1676 33.16 47.6556 33.0747 47.9596 32.904C48.269 32.728 48.453 32.4267 48.5116 32C48.533 31.8667 48.5756 31.7653 48.6396 31.696C48.709 31.6267 48.813 31.592 48.9516 31.592C49.0903 31.592 49.1943 31.632 49.2636 31.712C49.3383 31.7867 49.3676 31.8933 49.3516 32.032C49.2823 32.704 49.013 33.2 48.5436 33.52C48.0743 33.84 47.3916 34 46.4956 34H45.1836C44.1863 34 43.4556 33.7707 42.9916 33.312C42.5276 32.848 42.2956 32.12 42.2956 31.128V29.32C42.2956 28.312 42.5276 27.5787 42.9916 27.12C43.4556 26.656 44.1863 26.4293 45.1836 26.44H46.4956C47.493 26.44 48.221 26.672 48.6796 27.136C49.1436 27.5947 49.3756 28.3227 49.3756 29.32V30.12C49.3756 30.4027 49.237 30.544 48.9596 30.544H43.1356ZM45.1836 27.28C44.421 27.2693 43.8876 27.416 43.5836 27.72C43.285 28.0187 43.1356 28.552 43.1356 29.32V29.704H48.5356V29.32C48.5356 28.5573 48.3863 28.0267 48.0876 27.728C47.789 27.4293 47.2583 27.28 46.4956 27.28H45.1836ZM52.5763 34C52.2936 34 52.1523 33.8587 52.1523 33.576V26.856C52.1523 26.5787 52.2936 26.44 52.5763 26.44C52.8536 26.44 52.9923 26.5787 52.9923 26.856V27.624C53.4989 26.8347 54.4163 26.44 55.7443 26.44H56.1923C57.1896 26.44 57.9176 26.672 58.3763 27.136C58.8403 27.5947 59.0723 28.3227 59.0723 29.32V33.576C59.0723 33.8587 58.9336 34 58.6562 34C58.3736 34 58.2323 33.8587 58.2323 33.576V29.32C58.2323 28.5573 58.0803 28.0267 57.7763 27.728C57.4776 27.4293 56.9496 27.28 56.1923 27.28H55.7443C54.9176 27.28 54.2669 27.4107 53.7923 27.672C53.3176 27.9333 53.0509 28.3413 52.9923 28.896V33.576C52.9923 33.8587 52.8536 34 52.5763 34Z" fill="#EBEBEB"/>
<path d="M18.744 207C17.912 207 17.3013 206.808 16.912 206.424C16.528 206.035 16.336 205.424 16.336 204.592C16.336 203.76 16.5307 203.149 16.92 202.76C17.3093 202.371 17.9173 202.176 18.744 202.176H22.384C22.3733 201.472 22.2133 200.981 21.904 200.704C21.6 200.421 21.08 200.28 20.344 200.28H19.416C18.7387 200.28 18.2427 200.352 17.928 200.496C17.6133 200.64 17.4187 200.885 17.344 201.232C17.3067 201.365 17.256 201.464 17.192 201.528C17.1333 201.587 17.0373 201.616 16.904 201.616C16.7653 201.616 16.656 201.579 16.576 201.504C16.5013 201.424 16.4747 201.317 16.496 201.184C16.5653 200.576 16.84 200.133 17.32 199.856C17.8053 199.579 18.504 199.44 19.416 199.44H20.344C21.3413 199.44 22.0693 199.672 22.528 200.136C22.992 200.595 23.224 201.323 23.224 202.32V206.576C23.224 206.859 23.0853 207 22.808 207C22.5253 207 22.384 206.859 22.384 206.576V205.784C21.872 206.595 20.9573 207 19.64 207H18.744ZM18.744 206.16H19.64C20.1573 206.16 20.6107 206.104 21 205.992C21.3947 205.875 21.712 205.688 21.952 205.432C22.192 205.176 22.336 204.835 22.384 204.408V203.016H18.744C18.152 203.016 17.7413 203.131 17.512 203.36C17.288 203.584 17.176 203.995 17.176 204.592C17.176 205.184 17.288 205.595 17.512 205.824C17.7413 206.048 18.152 206.16 18.744 206.16ZM28.2741 207C27.5168 207 26.9595 206.824 26.6021 206.472C26.2501 206.12 26.0741 205.568 26.0741 204.816V196.32C26.0741 196.043 26.2155 195.904 26.4981 195.904C26.7755 195.904 26.9141 196.043 26.9141 196.32V204.816C26.9141 205.333 27.0101 205.688 27.2021 205.88C27.3941 206.067 27.7488 206.16 28.2661 206.16C28.5541 206.16 28.6981 206.299 28.6981 206.576C28.7035 206.859 28.5621 207 28.2741 207ZM31.1544 207C30.8717 207 30.7304 206.859 30.7304 206.576V199.856C30.7304 199.579 30.8717 199.44 31.1544 199.44C31.4317 199.44 31.5704 199.579 31.5704 199.856V206.576C31.5704 206.859 31.4317 207 31.1544 207ZM30.9784 197.976C30.6104 197.976 30.4264 197.787 30.4264 197.408V197.048C30.4264 196.685 30.6104 196.504 30.9784 196.504H31.3304C31.693 196.504 31.8744 196.685 31.8744 197.048V197.408C31.8744 197.787 31.693 197.976 31.3304 197.976H30.9784ZM35.1825 203.544V204.128C35.1825 204.88 35.3318 205.408 35.6305 205.712C35.9345 206.011 36.4678 206.16 37.2305 206.16H38.5425C39.2145 206.16 39.7025 206.075 40.0065 205.904C40.3158 205.728 40.4998 205.427 40.5585 205C40.5798 204.867 40.6225 204.765 40.6865 204.696C40.7558 204.627 40.8598 204.592 40.9985 204.592C41.1372 204.592 41.2412 204.632 41.3105 204.712C41.3852 204.787 41.4145 204.893 41.3985 205.032C41.3292 205.704 41.0598 206.2 40.5905 206.52C40.1212 206.84 39.4385 207 38.5425 207H37.2305C36.2332 207 35.5025 206.771 35.0385 206.312C34.5745 205.848 34.3425 205.12 34.3425 204.128V202.32C34.3425 201.312 34.5745 200.579 35.0385 200.12C35.5025 199.656 36.2332 199.429 37.2305 199.44H38.5425C39.5398 199.44 40.2678 199.672 40.7265 200.136C41.1905 200.595 41.4225 201.323 41.4225 202.32V203.12C41.4225 203.403 41.2838 203.544 41.0065 203.544H35.1825ZM37.2305 200.28C36.4678 200.269 35.9345 200.416 35.6305 200.72C35.3318 201.019 35.1825 201.552 35.1825 202.32V202.704H40.5825V202.32C40.5825 201.557 40.4332 201.027 40.1345 200.728C39.8358 200.429 39.3052 200.28 38.5425 200.28H37.2305ZM44.6231 207C44.3405 207 44.1991 206.859 44.1991 206.576V199.856C44.1991 199.579 44.3405 199.44 44.6231 199.44C44.9005 199.44 45.0391 199.579 45.0391 199.856V200.624C45.5458 199.835 46.4631 199.44 47.7911 199.44H48.2391C49.2365 199.44 49.9645 199.672 50.4231 200.136C50.8871 200.595 51.1191 201.323 51.1191 202.32V206.576C51.1191 206.859 50.9805 207 50.7031 207C50.4205 207 50.2791 206.859 50.2791 206.576V202.32C50.2791 201.557 50.1271 201.027 49.8231 200.728C49.5245 200.429 48.9965 200.28 48.2391 200.28H47.7911C46.9645 200.28 46.3138 200.411 45.8391 200.672C45.3645 200.933 45.0978 201.341 45.0391 201.896V206.576C45.0391 206.859 44.9005 207 44.6231 207ZM53.3888 208.608C53.2661 208.608 53.1648 208.573 53.0848 208.504C53.0048 208.435 52.9754 208.339 52.9967 208.216L53.3728 206.168C53.3941 205.901 53.5461 205.768 53.8288 205.768H54.1328C54.4314 205.768 54.5807 205.92 54.5807 206.224V206.456C54.5807 206.557 54.5728 206.635 54.5568 206.688C54.5461 206.741 54.5301 206.792 54.5088 206.84L53.7568 208.352C53.6714 208.523 53.5488 208.608 53.3888 208.608ZM64.3496 207C63.3683 207 62.651 206.773 62.1976 206.32C61.7443 205.867 61.5176 205.152 61.5176 204.176V200.28H60.5656C60.283 200.28 60.1416 200.139 60.1416 199.856C60.1416 199.579 60.283 199.44 60.5656 199.44H61.5176V197.72C61.5176 197.437 61.6563 197.296 61.9336 197.296C62.2163 197.296 62.3576 197.437 62.3576 197.72V199.44H64.3656C64.643 199.44 64.7816 199.579 64.7816 199.856C64.7816 200.139 64.643 200.28 64.3656 200.28H62.3576V204.176C62.3576 204.923 62.5016 205.44 62.7896 205.728C63.083 206.016 63.603 206.16 64.3496 206.16C64.5043 206.16 64.6136 206.195 64.6776 206.264C64.747 206.333 64.7816 206.437 64.7816 206.576C64.7816 206.859 64.6376 207 64.3496 207ZM66.9794 203.544V204.128C66.9794 204.88 67.1287 205.408 67.4274 205.712C67.7314 206.011 68.2647 206.16 69.0274 206.16H70.3394C71.0114 206.16 71.4994 206.075 71.8034 205.904C72.1127 205.728 72.2967 205.427 72.3554 205C72.3767 204.867 72.4194 204.765 72.4834 204.696C72.5527 204.627 72.6567 204.592 72.7954 204.592C72.934 204.592 73.038 204.632 73.1074 204.712C73.182 204.787 73.2114 204.893 73.1954 205.032C73.126 205.704 72.8567 206.2 72.3874 206.52C71.918 206.84 71.2354 207 70.3394 207H69.0274C68.03 207 67.2994 206.771 66.8354 206.312C66.3714 205.848 66.1394 205.12 66.1394 204.128V202.32C66.1394 201.312 66.3714 200.579 66.8354 200.12C67.2994 199.656 68.03 199.429 69.0274 199.44H70.3394C71.3367 199.44 72.0647 199.672 72.5234 200.136C72.9874 200.595 73.2194 201.323 73.2194 202.32V203.12C73.2194 203.403 73.0807 203.544 72.8034 203.544H66.9794ZM69.0274 200.28C68.2647 200.269 67.7314 200.416 67.4274 200.72C67.1287 201.019 66.9794 201.552 66.9794 202.32V202.704H72.3794V202.32C72.3794 201.557 72.23 201.027 71.9314 200.728C71.6327 200.429 71.102 200.28 70.3394 200.28H69.0274ZM78.668 207C77.6707 207 76.94 206.768 76.476 206.304C76.012 205.84 75.78 205.109 75.78 204.112V202.304C75.78 201.307 76.0093 200.579 76.468 200.12C76.932 199.656 77.6653 199.429 78.668 199.44H79.98C80.764 199.44 81.3613 199.573 81.772 199.84C82.188 200.101 82.436 200.515 82.516 201.08C82.532 201.224 82.5 201.333 82.42 201.408C82.3453 201.483 82.2387 201.52 82.1 201.52C81.972 201.52 81.876 201.488 81.812 201.424C81.748 201.355 81.7 201.256 81.668 201.128C81.6093 200.819 81.452 200.6 81.196 200.472C80.94 200.344 80.5347 200.28 79.98 200.28H78.668C77.9053 200.269 77.372 200.413 77.068 200.712C76.7693 201.005 76.62 201.536 76.62 202.304V204.112C76.62 204.875 76.7693 205.408 77.068 205.712C77.372 206.011 77.9053 206.16 78.668 206.16H79.98C80.5347 206.16 80.94 206.096 81.196 205.968C81.452 205.84 81.6093 205.619 81.668 205.304C81.7 205.176 81.748 205.08 81.812 205.016C81.876 204.947 81.972 204.912 82.1 204.912C82.2387 204.912 82.3453 204.952 82.42 205.032C82.5 205.107 82.532 205.213 82.516 205.352C82.436 205.917 82.188 206.333 81.772 206.6C81.3613 206.867 80.764 207 79.98 207H78.668ZM85.5606 207C85.278 207 85.1366 206.859 85.1366 206.576V196.32C85.1366 196.043 85.278 195.904 85.5606 195.904C85.838 195.904 85.9766 196.043 85.9766 196.32V200.624C86.4833 199.835 87.4006 199.44 88.7286 199.44H89.1766C90.174 199.44 90.902 199.672 91.3606 200.136C91.8246 200.595 92.0566 201.323 92.0566 202.32V206.576C92.0566 206.859 91.918 207 91.6406 207C91.358 207 91.2166 206.859 91.2166 206.576V202.32C91.2166 201.557 91.0646 201.027 90.7606 200.728C90.462 200.429 89.934 200.28 89.1766 200.28H88.7286C87.902 200.28 87.2513 200.411 86.7766 200.672C86.302 200.933 86.0353 201.341 85.9766 201.896V206.576C85.9766 206.859 85.838 207 85.5606 207ZM95.3263 207C95.0436 207 94.9023 206.859 94.9023 206.576V199.856C94.9023 199.579 95.0436 199.44 95.3263 199.44C95.6036 199.44 95.7423 199.579 95.7423 199.856V200.624C96.2489 199.835 97.1663 199.44 98.4943 199.44H98.9423C99.9396 199.44 100.668 199.672 101.126 200.136C101.59 200.595 101.822 201.323 101.822 202.32V206.576C101.822 206.859 101.684 207 101.406 207C101.124 207 100.982 206.859 100.982 206.576V202.32C100.982 201.557 100.83 201.027 100.526 200.728C100.228 200.429 99.6996 200.28 98.9423 200.28H98.4943C97.6676 200.28 97.0169 200.411 96.5423 200.672C96.0676 200.933 95.8009 201.341 95.7423 201.896V206.576C95.7423 206.859 95.6036 207 95.3263 207ZM107.34 207C106.343 207 105.612 206.771 105.148 206.312C104.684 205.848 104.452 205.12 104.452 204.128V202.32C104.452 201.312 104.684 200.579 105.148 200.12C105.612 199.656 106.343 199.429 107.34 199.44H108.652C109.649 199.44 110.377 199.672 110.836 200.136C111.3 200.595 111.532 201.323 111.532 202.32V204.112C111.532 205.109 111.3 205.84 110.836 206.304C110.377 206.768 109.649 207 108.652 207H107.34ZM105.292 204.128C105.292 204.88 105.441 205.408 105.74 205.712C106.044 206.011 106.577 206.16 107.34 206.16H108.652C109.415 206.16 109.945 206.011 110.244 205.712C110.543 205.408 110.692 204.875 110.692 204.112V202.32C110.692 201.557 110.543 201.027 110.244 200.728C109.945 200.429 109.415 200.28 108.652 200.28H107.34C106.828 200.275 106.423 200.336 106.124 200.464C105.825 200.592 105.612 200.805 105.484 201.104C105.356 201.403 105.292 201.808 105.292 202.32V204.128ZM116.509 207C115.751 207 115.194 206.824 114.837 206.472C114.485 206.12 114.309 205.568 114.309 204.816V196.32C114.309 196.043 114.45 195.904 114.733 195.904C115.01 195.904 115.149 196.043 115.149 196.32V204.816C115.149 205.333 115.245 205.688 115.437 205.88C115.629 206.067 115.983 206.16 116.501 206.16C116.789 206.16 116.933 206.299 116.933 206.576C116.938 206.859 116.797 207 116.509 207ZM121.324 207C120.327 207 119.596 206.771 119.132 206.312C118.668 205.848 118.436 205.12 118.436 204.128V202.32C118.436 201.312 118.668 200.579 119.132 200.12C119.596 199.656 120.327 199.429 121.324 199.44H122.636C123.634 199.44 124.362 199.672 124.82 200.136C125.284 200.595 125.516 201.323 125.516 202.32V204.112C125.516 205.109 125.284 205.84 124.82 206.304C124.362 206.768 123.634 207 122.636 207H121.324ZM119.276 204.128C119.276 204.88 119.426 205.408 119.724 205.712C120.028 206.011 120.562 206.16 121.324 206.16H122.636C123.399 206.16 123.93 206.011 124.228 205.712C124.527 205.408 124.676 204.875 124.676 204.112V202.32C124.676 201.557 124.527 201.027 124.228 200.728C123.93 200.429 123.399 200.28 122.636 200.28H121.324C120.812 200.275 120.407 200.336 120.108 200.464C119.81 200.592 119.596 200.805 119.468 201.104C119.34 201.403 119.276 201.808 119.276 202.32V204.128ZM130.133 210.2C129.504 210.2 129.024 210.069 128.693 209.808C128.362 209.552 128.168 209.147 128.109 208.592C128.093 208.453 128.122 208.344 128.197 208.264C128.272 208.184 128.376 208.144 128.509 208.144C128.642 208.144 128.744 208.179 128.813 208.248C128.882 208.317 128.928 208.421 128.949 208.56C128.986 208.869 129.096 209.08 129.277 209.192C129.458 209.304 129.744 209.36 130.133 209.36H133.109C133.578 209.36 133.896 209.275 134.061 209.104C134.232 208.933 134.317 208.613 134.317 208.144V205.856C134.072 206.229 133.725 206.515 133.277 206.712C132.829 206.904 132.261 207 131.573 207H130.965C129.968 207 129.237 206.771 128.773 206.312C128.309 205.848 128.077 205.12 128.077 204.128V202.32C128.077 201.312 128.306 200.581 128.765 200.128C129.229 199.669 129.962 199.44 130.965 199.44H132.277C132.8 199.44 133.224 199.509 133.549 199.648C133.874 199.787 134.13 200.003 134.317 200.296V199.856C134.317 199.579 134.458 199.44 134.741 199.44C135.018 199.44 135.157 199.579 135.157 199.856V208.144C135.157 208.848 134.992 209.365 134.661 209.696C134.33 210.032 133.813 210.2 133.109 210.2H130.133ZM130.965 206.16H131.573C132.405 206.16 133.069 206.029 133.565 205.768C134.066 205.507 134.317 205.109 134.317 204.576V201.904C134.317 201.301 134.149 200.88 133.813 200.64C133.477 200.4 132.965 200.28 132.277 200.28H130.965C130.202 200.28 129.669 200.429 129.365 200.728C129.066 201.021 128.917 201.552 128.917 202.32V204.128C128.917 204.88 129.066 205.408 129.365 205.712C129.669 206.011 130.202 206.16 130.965 206.16ZM139.916 210.2C139.217 210.2 138.7 210.032 138.364 209.696C138.033 209.36 137.868 208.837 137.868 208.128C137.868 207.851 138.006 207.712 138.284 207.712C138.566 207.712 138.708 207.851 138.708 208.128C138.708 208.608 138.793 208.933 138.964 209.104C139.134 209.275 139.452 209.36 139.916 209.36H142.684C143.153 209.36 143.473 209.275 143.644 209.104C143.814 208.933 143.9 208.608 143.9 208.128V205.928C143.596 206.328 143.214 206.608 142.756 206.768C142.297 206.928 141.761 207.008 141.148 207.008H140.7C139.718 207.008 139.001 206.781 138.548 206.328C138.094 205.875 137.868 205.163 137.868 204.192V199.848C137.868 199.565 138.006 199.424 138.284 199.424C138.566 199.424 138.708 199.565 138.708 199.848V204.192C138.708 204.933 138.852 205.448 139.14 205.736C139.433 206.024 139.953 206.168 140.7 206.168H141.148C142.081 206.168 142.772 206.005 143.22 205.68C143.673 205.349 143.9 204.853 143.9 204.192V199.848C143.9 199.565 144.038 199.424 144.316 199.424C144.598 199.424 144.74 199.565 144.74 199.848V208.128C144.74 208.837 144.572 209.36 144.236 209.696C143.905 210.032 143.388 210.2 142.684 210.2H139.916Z" fill="#EBEBEB"/>
</svg>
