<svg width="213" height="211" viewBox="0 0 213 211" fill="none" xmlns="http://www.w3.org/2000/svg">
<rect width="213" height="140" fill="#EBEBEB"/>
<rect x="107" y="140" width="106" height="47" fill="#777880"/>
<rect y="140" width="107" height="47" fill="#B1B1B1"/>
<path d="M16.744 51.04C16.6373 51.04 16.544 51.0027 16.464 50.928C16.3893 50.848 16.352 50.7547 16.352 50.648C16.352 50.6267 16.352 50.608 16.352 50.592C16.3573 50.5707 16.3627 50.552 16.368 50.536L17.168 47.664H15.928C15.8213 47.664 15.728 47.6267 15.648 47.552C15.5733 47.472 15.536 47.3787 15.536 47.272C15.536 47.16 15.5733 47.0667 15.648 46.992C15.728 46.9173 15.8213 46.88 15.928 46.88H17.392L18.064 44.464H16.824C16.7173 44.464 16.624 44.4267 16.544 44.352C16.4693 44.272 16.432 44.1787 16.432 44.072C16.432 43.96 16.4693 43.8667 16.544 43.792C16.624 43.7173 16.7173 43.68 16.824 43.68H18.272L19.088 40.776C19.1147 40.6907 19.16 40.6213 19.224 40.568C19.2933 40.5093 19.3733 40.48 19.464 40.48C19.576 40.48 19.6693 40.5173 19.744 40.592C19.8187 40.6667 19.856 40.76 19.856 40.872C19.856 40.888 19.8533 40.9067 19.848 40.928C19.848 40.944 19.8453 40.9627 19.84 40.984L19.088 43.68H21.152L21.968 40.776C21.9947 40.6907 22.04 40.6213 22.104 40.568C22.1733 40.5093 22.2533 40.48 22.344 40.48C22.456 40.48 22.5493 40.5173 22.624 40.592C22.6987 40.6667 22.736 40.76 22.736 40.872C22.736 40.888 22.7333 40.9067 22.728 40.928C22.728 40.944 22.7253 40.9627 22.72 40.984L21.968 43.68H23.656C23.768 43.68 23.8613 43.7173 23.936 43.792C24.0107 43.8667 24.048 43.96 24.048 44.072C24.048 44.1787 24.0107 44.272 23.936 44.352C23.8613 44.4267 23.768 44.464 23.656 44.464H21.752L21.08 46.88H22.76C22.872 46.88 22.9653 46.9173 23.04 46.992C23.1147 47.0667 23.152 47.16 23.152 47.272C23.152 47.3787 23.1147 47.472 23.04 47.552C22.9653 47.6267 22.872 47.664 22.76 47.664H20.864L20 50.744C19.9787 50.824 19.9333 50.8933 19.864 50.952C19.7947 51.0107 19.7147 51.04 19.624 51.04C19.5173 51.04 19.424 51.0027 19.344 50.928C19.2693 50.848 19.232 50.7547 19.232 50.648C19.232 50.6267 19.232 50.608 19.232 50.592C19.2373 50.5707 19.2427 50.552 19.248 50.536L20.048 47.664H17.984L17.12 50.744C17.0987 50.824 17.0533 50.8933 16.984 50.952C16.9147 51.0107 16.8347 51.04 16.744 51.04ZM18.2 46.88H20.272L20.944 44.464H18.872L18.2 46.88ZM26.1856 51C25.903 51 25.7616 50.8587 25.7616 50.576V41.112C25.7616 40.8293 25.903 40.688 26.1856 40.688H32.1776C32.4603 40.688 32.6016 40.8293 32.6016 41.112C32.6016 41.3893 32.4603 41.528 32.1776 41.528H26.6016V45.36H30.2896C30.5723 45.36 30.7136 45.4987 30.7136 45.776C30.7136 46.0587 30.5723 46.2 30.2896 46.2H26.6016V50.16H32.1776C32.4603 50.16 32.6016 50.2987 32.6016 50.576C32.6016 50.8587 32.4603 51 32.1776 51H26.1856ZM35.1544 51C34.8717 51 34.7304 50.8587 34.7304 50.576V41.112C34.7304 40.8293 34.8717 40.688 35.1544 40.688H39.3304C40.1144 40.688 40.7064 40.888 41.1064 41.288C41.5117 41.6827 41.7144 42.264 41.7144 43.032V43.464C41.7144 44.3013 41.445 44.8933 40.9064 45.24C41.8397 45.624 42.3064 46.456 42.3064 47.736V48.24C42.3064 49.1467 42.0717 49.8347 41.6024 50.304C41.1384 50.768 40.4504 51 39.5384 51H35.1544ZM35.5704 50.16H39.5384C40.2157 50.16 40.7064 50.008 41.0104 49.704C41.3144 49.4 41.4664 48.912 41.4664 48.24V47.736C41.4664 47.064 41.3144 46.5787 41.0104 46.28C40.7117 45.9813 40.221 45.832 39.5384 45.832H35.5704V50.16ZM35.5704 44.992H39.4504C39.9357 44.992 40.293 44.8693 40.5224 44.624C40.757 44.3733 40.8744 43.9867 40.8744 43.464V43.032C40.8744 42.4987 40.7517 42.1147 40.5064 41.88C40.2664 41.6453 39.8744 41.528 39.3304 41.528H35.5704V44.992ZM45.0763 51C44.7936 51 44.6523 50.8587 44.6523 50.576V41.112C44.6523 40.8293 44.7936 40.688 45.0763 40.688H51.0683C51.3509 40.688 51.4923 40.8293 51.4923 41.112C51.4923 41.3893 51.3509 41.528 51.0683 41.528H45.4923V45.36H49.1803C49.4629 45.36 49.6043 45.4987 49.6043 45.776C49.6043 46.0587 49.4629 46.2 49.1803 46.2H45.4923V50.16H51.0683C51.3509 50.16 51.4923 50.2987 51.4923 50.576C51.4923 50.8587 51.3509 51 51.0683 51H45.0763ZM54.045 51C53.7623 51 53.621 50.8587 53.621 50.576V41.112C53.621 40.8293 53.7623 40.688 54.045 40.688H58.221C59.005 40.688 59.597 40.888 59.997 41.288C60.4023 41.6827 60.605 42.264 60.605 43.032V43.464C60.605 44.3013 60.3357 44.8933 59.797 45.24C60.7303 45.624 61.197 46.456 61.197 47.736V48.24C61.197 49.1467 60.9623 49.8347 60.493 50.304C60.029 50.768 59.341 51 58.429 51H54.045ZM54.461 50.16H58.429C59.1063 50.16 59.597 50.008 59.901 49.704C60.205 49.4 60.357 48.912 60.357 48.24V47.736C60.357 47.064 60.205 46.5787 59.901 46.28C59.6023 45.9813 59.1117 45.832 58.429 45.832H54.461V50.16ZM54.461 44.992H58.341C58.8263 44.992 59.1837 44.8693 59.413 44.624C59.6477 44.3733 59.765 43.9867 59.765 43.464V43.032C59.765 42.4987 59.6423 42.1147 59.397 41.88C59.157 41.6453 58.765 41.528 58.221 41.528H54.461V44.992ZM63.9669 51C63.6842 51 63.5429 50.8587 63.5429 50.576V41.112C63.5429 40.8293 63.6842 40.688 63.9669 40.688H69.9589C70.2415 40.688 70.3829 40.8293 70.3829 41.112C70.3829 41.3893 70.2415 41.528 69.9589 41.528H64.3829V45.36H68.0709C68.3535 45.36 68.4949 45.4987 68.4949 45.776C68.4949 46.0587 68.3535 46.2 68.0709 46.2H64.3829V50.16H69.9589C70.2415 50.16 70.3829 50.2987 70.3829 50.576C70.3829 50.8587 70.2415 51 69.9589 51H63.9669ZM72.9356 51C72.653 51 72.5116 50.8587 72.5116 50.576V41.112C72.5116 40.8293 72.653 40.688 72.9356 40.688H77.1116C77.8956 40.688 78.4876 40.888 78.8876 41.288C79.293 41.6827 79.4956 42.264 79.4956 43.032V43.464C79.4956 44.3013 79.2263 44.8933 78.6876 45.24C79.621 45.624 80.0876 46.456 80.0876 47.736V48.24C80.0876 49.1467 79.853 49.8347 79.3836 50.304C78.9196 50.768 78.2316 51 77.3196 51H72.9356ZM73.3516 50.16H77.3196C77.997 50.16 78.4876 50.008 78.7916 49.704C79.0956 49.4 79.2476 48.912 79.2476 48.24V47.736C79.2476 47.064 79.0956 46.5787 78.7916 46.28C78.493 45.9813 78.0023 45.832 77.3196 45.832H73.3516V50.16ZM73.3516 44.992H77.2316C77.717 44.992 78.0743 44.8693 78.3036 44.624C78.5383 44.3733 78.6556 43.9867 78.6556 43.464V43.032C78.6556 42.4987 78.533 42.1147 78.2876 41.88C78.0476 41.6453 77.6556 41.528 77.1116 41.528H73.3516V44.992Z" fill="#010103"/>
<path d="M18.704 34C18.5013 34 18.3653 33.8907 18.296 33.672L15.232 24.248C15.1893 24.1253 15.2053 24.0027 15.28 23.88C15.3547 23.752 15.472 23.688 15.632 23.688C15.7227 23.688 15.8027 23.7147 15.872 23.768C15.9467 23.816 15.9973 23.8907 16.024 23.992L18.872 32.744H18.64L21.336 24.016C21.3733 23.8987 21.4373 23.8133 21.528 23.76C21.624 23.7067 21.7227 23.68 21.824 23.68C21.9307 23.68 22.032 23.7067 22.128 23.76C22.224 23.8133 22.2853 23.8987 22.312 24.016L25.008 32.744H24.776L27.624 23.992C27.6613 23.8907 27.712 23.816 27.776 23.768C27.8453 23.7147 27.9253 23.688 28.016 23.688C28.1973 23.688 28.32 23.7493 28.384 23.872C28.4533 23.9947 28.4667 24.12 28.424 24.248L25.352 33.672C25.2827 33.8907 25.136 34 24.912 34H24.88C24.6507 34 24.504 33.8907 24.44 33.672L21.696 24.856H21.928L19.184 33.672C19.1467 33.8053 19.088 33.8933 19.008 33.936C18.928 33.9787 18.8267 34 18.704 34ZM30.5919 34C30.3092 34 30.1679 33.8587 30.1679 33.576V23.32C30.1679 23.0427 30.3092 22.904 30.5919 22.904C30.8692 22.904 31.0079 23.0427 31.0079 23.32V27.624C31.5145 26.8347 32.4319 26.44 33.7599 26.44H34.2079C35.2052 26.44 35.9332 26.672 36.3919 27.136C36.8559 27.5947 37.0879 28.3227 37.0879 29.32V33.576C37.0879 33.8587 36.9492 34 36.6719 34C36.3892 34 36.2479 33.8587 36.2479 33.576V29.32C36.2479 28.5573 36.0959 28.0267 35.7919 27.728C35.4932 27.4293 34.9652 27.28 34.2079 27.28H33.7599C32.9332 27.28 32.2825 27.4107 31.8079 27.672C31.3332 27.9333 31.0665 28.3413 31.0079 28.896V33.576C31.0079 33.8587 30.8692 34 30.5919 34ZM40.3575 34C40.0748 34 39.9335 33.8587 39.9335 33.576V26.856C39.9335 26.5787 40.0748 26.44 40.3575 26.44C40.6348 26.44 40.7735 26.5787 40.7735 26.856V33.576C40.7735 33.8587 40.6348 34 40.3575 34ZM40.1815 24.976C39.8135 24.976 39.6295 24.7867 39.6295 24.408V24.048C39.6295 23.6853 39.8135 23.504 40.1815 23.504H40.5335C40.8962 23.504 41.0775 23.6853 41.0775 24.048V24.408C41.0775 24.7867 40.8962 24.976 40.5335 24.976H40.1815ZM46.8496 34C45.8683 34 45.151 33.7733 44.6976 33.32C44.2443 32.8667 44.0176 32.152 44.0176 31.176V27.28H43.0656C42.783 27.28 42.6416 27.1387 42.6416 26.856C42.6416 26.5787 42.783 26.44 43.0656 26.44H44.0176V24.72C44.0176 24.4373 44.1563 24.296 44.4336 24.296C44.7163 24.296 44.8576 24.4373 44.8576 24.72V26.44H46.8656C47.143 26.44 47.2816 26.5787 47.2816 26.856C47.2816 27.1387 47.143 27.28 46.8656 27.28H44.8576V31.176C44.8576 31.9227 45.0016 32.44 45.2896 32.728C45.583 33.016 46.103 33.16 46.8496 33.16C47.0043 33.16 47.1136 33.1947 47.1776 33.264C47.247 33.3333 47.2816 33.4373 47.2816 33.576C47.2816 33.8587 47.1376 34 46.8496 34ZM49.4794 30.544V31.128C49.4794 31.88 49.6287 32.408 49.9274 32.712C50.2314 33.0107 50.7647 33.16 51.5274 33.16H52.8394C53.5114 33.16 53.9994 33.0747 54.3034 32.904C54.6127 32.728 54.7967 32.4267 54.8554 32C54.8767 31.8667 54.9194 31.7653 54.9834 31.696C55.0527 31.6267 55.1567 31.592 55.2954 31.592C55.434 31.592 55.538 31.632 55.6074 31.712C55.682 31.7867 55.7114 31.8933 55.6954 32.032C55.626 32.704 55.3567 33.2 54.8874 33.52C54.418 33.84 53.7354 34 52.8394 34H51.5274C50.53 34 49.7994 33.7707 49.3354 33.312C48.8714 32.848 48.6394 32.12 48.6394 31.128V29.32C48.6394 28.312 48.8714 27.5787 49.3354 27.12C49.7994 26.656 50.53 26.4293 51.5274 26.44H52.8394C53.8367 26.44 54.5647 26.672 55.0234 27.136C55.4874 27.5947 55.7194 28.3227 55.7194 29.32V30.12C55.7194 30.4027 55.5807 30.544 55.3034 30.544H49.4794ZM51.5274 27.28C50.7647 27.2693 50.2314 27.416 49.9274 27.72C49.6287 28.0187 49.4794 28.552 49.4794 29.32V29.704H54.8794V29.32C54.8794 28.5573 54.73 28.0267 54.4314 27.728C54.1327 27.4293 53.602 27.28 52.8394 27.28H51.5274Z" fill="#010103"/>
<path d="M16.744 171.04C16.6373 171.04 16.544 171.003 16.464 170.928C16.3893 170.848 16.352 170.755 16.352 170.648C16.352 170.627 16.352 170.608 16.352 170.592C16.3573 170.571 16.3627 170.552 16.368 170.536L17.168 167.664H15.928C15.8213 167.664 15.728 167.627 15.648 167.552C15.5733 167.472 15.536 167.379 15.536 167.272C15.536 167.16 15.5733 167.067 15.648 166.992C15.728 166.917 15.8213 166.88 15.928 166.88H17.392L18.064 164.464H16.824C16.7173 164.464 16.624 164.427 16.544 164.352C16.4693 164.272 16.432 164.179 16.432 164.072C16.432 163.96 16.4693 163.867 16.544 163.792C16.624 163.717 16.7173 163.68 16.824 163.68H18.272L19.088 160.776C19.1147 160.691 19.16 160.621 19.224 160.568C19.2933 160.509 19.3733 160.48 19.464 160.48C19.576 160.48 19.6693 160.517 19.744 160.592C19.8187 160.667 19.856 160.76 19.856 160.872C19.856 160.888 19.8533 160.907 19.848 160.928C19.848 160.944 19.8453 160.963 19.84 160.984L19.088 163.68H21.152L21.968 160.776C21.9947 160.691 22.04 160.621 22.104 160.568C22.1733 160.509 22.2533 160.48 22.344 160.48C22.456 160.48 22.5493 160.517 22.624 160.592C22.6987 160.667 22.736 160.76 22.736 160.872C22.736 160.888 22.7333 160.907 22.728 160.928C22.728 160.944 22.7253 160.963 22.72 160.984L21.968 163.68H23.656C23.768 163.68 23.8613 163.717 23.936 163.792C24.0107 163.867 24.048 163.96 24.048 164.072C24.048 164.179 24.0107 164.272 23.936 164.352C23.8613 164.427 23.768 164.464 23.656 164.464H21.752L21.08 166.88H22.76C22.872 166.88 22.9653 166.917 23.04 166.992C23.1147 167.067 23.152 167.16 23.152 167.272C23.152 167.379 23.1147 167.472 23.04 167.552C22.9653 167.627 22.872 167.664 22.76 167.664H20.864L20 170.744C19.9787 170.824 19.9333 170.893 19.864 170.952C19.7947 171.011 19.7147 171.04 19.624 171.04C19.5173 171.04 19.424 171.003 19.344 170.928C19.2693 170.848 19.232 170.755 19.232 170.648C19.232 170.627 19.232 170.608 19.232 170.592C19.2373 170.571 19.2427 170.552 19.248 170.536L20.048 167.664H17.984L17.12 170.744C17.0987 170.824 17.0533 170.893 16.984 170.952C16.9147 171.011 16.8347 171.04 16.744 171.04ZM18.2 166.88H20.272L20.944 164.464H18.872L18.2 166.88ZM26.1856 171C25.903 171 25.7616 170.859 25.7616 170.576V161.112C25.7616 160.829 25.903 160.688 26.1856 160.688H30.3616C31.1456 160.688 31.7376 160.888 32.1376 161.288C32.543 161.683 32.7456 162.264 32.7456 163.032V163.464C32.7456 164.301 32.4763 164.893 31.9376 165.24C32.871 165.624 33.3376 166.456 33.3376 167.736V168.24C33.3376 169.147 33.103 169.835 32.6336 170.304C32.1696 170.768 31.4816 171 30.5696 171H26.1856ZM26.6016 170.16H30.5696C31.247 170.16 31.7376 170.008 32.0416 169.704C32.3456 169.4 32.4976 168.912 32.4976 168.24V167.736C32.4976 167.064 32.3456 166.579 32.0416 166.28C31.743 165.981 31.2523 165.832 30.5696 165.832H26.6016V170.16ZM26.6016 164.992H30.4816C30.967 164.992 31.3243 164.869 31.5536 164.624C31.7883 164.373 31.9056 163.987 31.9056 163.464V163.032C31.9056 162.499 31.783 162.115 31.5376 161.88C31.2976 161.645 30.9056 161.528 30.3616 161.528H26.6016V164.992ZM37.2029 171C36.9202 171 36.7789 170.859 36.7789 170.576V161.688L37.1629 161.632L35.4269 163.328C35.3309 163.424 35.2349 163.475 35.1389 163.48C35.0429 163.485 34.9469 163.44 34.8509 163.344C34.6695 163.152 34.6722 162.955 34.8589 162.752L36.7549 160.904C36.8829 160.76 37.0562 160.688 37.2749 160.688C37.5042 160.688 37.6189 160.829 37.6189 161.112V170.576C37.6189 170.859 37.4802 171 37.2029 171ZM41.1388 171C40.8561 171 40.7148 170.859 40.7148 170.576V161.112C40.7148 160.829 40.8561 160.688 41.1388 160.688H45.3148C46.0988 160.688 46.6908 160.888 47.0908 161.288C47.4961 161.683 47.6988 162.264 47.6988 163.032V163.464C47.6988 164.301 47.4294 164.893 46.8908 165.24C47.8241 165.624 48.2908 166.456 48.2908 167.736V168.24C48.2908 169.147 48.0561 169.835 47.5868 170.304C47.1228 170.768 46.4348 171 45.5228 171H41.1388ZM41.5548 170.16H45.5228C46.2001 170.16 46.6908 170.008 46.9948 169.704C47.2988 169.4 47.4508 168.912 47.4508 168.24V167.736C47.4508 167.064 47.2988 166.579 46.9948 166.28C46.6961 165.981 46.2054 165.832 45.5228 165.832H41.5548V170.16ZM41.5548 164.992H45.4348C45.9201 164.992 46.2774 164.869 46.5068 164.624C46.7414 164.373 46.8588 163.987 46.8588 163.464V163.032C46.8588 162.499 46.7361 162.115 46.4908 161.88C46.2508 161.645 45.8588 161.528 45.3148 161.528H41.5548V164.992ZM52.156 171C51.8733 171 51.732 170.859 51.732 170.576V161.688L52.116 161.632L50.38 163.328C50.284 163.424 50.188 163.475 50.092 163.48C49.996 163.485 49.9 163.44 49.804 163.344C49.6227 163.152 49.6253 162.955 49.812 162.752L51.708 160.904C51.836 160.76 52.0093 160.688 52.228 160.688C52.4573 160.688 52.572 160.829 52.572 161.112V170.576C52.572 170.859 52.4333 171 52.156 171ZM56.0919 171C55.8092 171 55.6679 170.859 55.6679 170.576V161.112C55.6679 160.829 55.8092 160.688 56.0919 160.688H60.2679C61.0519 160.688 61.6439 160.888 62.0439 161.288C62.4492 161.683 62.6519 162.264 62.6519 163.032V163.464C62.6519 164.301 62.3825 164.893 61.8439 165.24C62.7772 165.624 63.2439 166.456 63.2439 167.736V168.24C63.2439 169.147 63.0092 169.835 62.5399 170.304C62.0759 170.768 61.3879 171 60.4759 171H56.0919ZM56.5079 170.16H60.4759C61.1532 170.16 61.6439 170.008 61.9479 169.704C62.2519 169.4 62.4039 168.912 62.4039 168.24V167.736C62.4039 167.064 62.2519 166.579 61.9479 166.28C61.6492 165.981 61.1585 165.832 60.4759 165.832H56.5079V170.16ZM56.5079 164.992H60.3879C60.8732 164.992 61.2305 164.869 61.4599 164.624C61.6945 164.373 61.8119 163.987 61.8119 163.464V163.032C61.8119 162.499 61.6892 162.115 61.4439 161.88C61.2039 161.645 60.8119 161.528 60.2679 161.528H56.5079V164.992ZM67.1091 171C66.8265 171 66.6851 170.859 66.6851 170.576V161.688L67.0691 161.632L65.3331 163.328C65.2371 163.424 65.1411 163.475 65.0451 163.48C64.9491 163.485 64.8531 163.44 64.7571 163.344C64.5758 163.152 64.5785 162.955 64.7651 162.752L66.6611 160.904C66.7891 160.76 66.9625 160.688 67.1811 160.688C67.4105 160.688 67.5251 160.829 67.5251 161.112V170.576C67.5251 170.859 67.3865 171 67.1091 171Z" fill="#010103"/>
<path d="M128.744 171.04C128.637 171.04 128.544 171.003 128.464 170.928C128.389 170.848 128.352 170.755 128.352 170.648C128.352 170.627 128.352 170.608 128.352 170.592C128.357 170.571 128.363 170.552 128.368 170.536L129.168 167.664H127.928C127.821 167.664 127.728 167.627 127.648 167.552C127.573 167.472 127.536 167.379 127.536 167.272C127.536 167.16 127.573 167.067 127.648 166.992C127.728 166.917 127.821 166.88 127.928 166.88H129.392L130.064 164.464H128.824C128.717 164.464 128.624 164.427 128.544 164.352C128.469 164.272 128.432 164.179 128.432 164.072C128.432 163.96 128.469 163.867 128.544 163.792C128.624 163.717 128.717 163.68 128.824 163.68H130.272L131.088 160.776C131.115 160.691 131.16 160.621 131.224 160.568C131.293 160.509 131.373 160.48 131.464 160.48C131.576 160.48 131.669 160.517 131.744 160.592C131.819 160.667 131.856 160.76 131.856 160.872C131.856 160.888 131.853 160.907 131.848 160.928C131.848 160.944 131.845 160.963 131.84 160.984L131.088 163.68H133.152L133.968 160.776C133.995 160.691 134.04 160.621 134.104 160.568C134.173 160.509 134.253 160.48 134.344 160.48C134.456 160.48 134.549 160.517 134.624 160.592C134.699 160.667 134.736 160.76 134.736 160.872C134.736 160.888 134.733 160.907 134.728 160.928C134.728 160.944 134.725 160.963 134.72 160.984L133.968 163.68H135.656C135.768 163.68 135.861 163.717 135.936 163.792C136.011 163.867 136.048 163.96 136.048 164.072C136.048 164.179 136.011 164.272 135.936 164.352C135.861 164.427 135.768 164.464 135.656 164.464H133.752L133.08 166.88H134.76C134.872 166.88 134.965 166.917 135.04 166.992C135.115 167.067 135.152 167.16 135.152 167.272C135.152 167.379 135.115 167.472 135.04 167.552C134.965 167.627 134.872 167.664 134.76 167.664H132.864L132 170.744C131.979 170.824 131.933 170.893 131.864 170.952C131.795 171.011 131.715 171.04 131.624 171.04C131.517 171.04 131.424 171.003 131.344 170.928C131.269 170.848 131.232 170.755 131.232 170.648C131.232 170.627 131.232 170.608 131.232 170.592C131.237 170.571 131.243 170.552 131.248 170.536L132.048 167.664H129.984L129.12 170.744C129.099 170.824 129.053 170.893 128.984 170.952C128.915 171.011 128.835 171.04 128.744 171.04ZM130.2 166.88H132.272L132.944 164.464H130.872L130.2 166.88ZM138.938 171C138.655 171 138.516 170.853 138.522 170.56C138.527 169.808 138.564 169.147 138.634 168.576C138.703 168.005 138.82 167.501 138.986 167.064C139.151 166.627 139.383 166.229 139.682 165.872C139.986 165.515 140.372 165.173 140.842 164.848C141.226 164.576 141.535 164.288 141.77 163.984C142.004 163.68 142.178 163.333 142.29 162.944C142.407 162.549 142.476 162.077 142.498 161.528H137.226C136.943 161.528 136.802 161.389 136.802 161.112C136.802 160.829 136.943 160.688 137.226 160.688H142.922C143.199 160.688 143.338 160.829 143.338 161.112C143.338 161.832 143.271 162.459 143.138 162.992C143.01 163.525 142.796 163.997 142.498 164.408C142.204 164.813 141.812 165.187 141.322 165.528C140.943 165.795 140.628 166.069 140.378 166.352C140.127 166.635 139.927 166.96 139.778 167.328C139.634 167.691 139.53 168.133 139.466 168.656C139.407 169.179 139.372 169.813 139.362 170.56C139.356 170.853 139.215 171 138.938 171ZM146.547 171C146.264 171 146.126 170.853 146.131 170.56C146.136 169.808 146.174 169.147 146.243 168.576C146.312 168.005 146.43 167.501 146.595 167.064C146.76 166.627 146.992 166.229 147.291 165.872C147.595 165.515 147.982 165.173 148.451 164.848C148.835 164.576 149.144 164.288 149.379 163.984C149.614 163.68 149.787 163.333 149.899 162.944C150.016 162.549 150.086 162.077 150.107 161.528H144.835C144.552 161.528 144.411 161.389 144.411 161.112C144.411 160.829 144.552 160.688 144.835 160.688H150.531C150.808 160.688 150.947 160.829 150.947 161.112C150.947 161.832 150.88 162.459 150.747 162.992C150.619 163.525 150.406 163.997 150.107 164.408C149.814 164.813 149.422 165.187 148.931 165.528C148.552 165.795 148.238 166.069 147.987 166.352C147.736 166.635 147.536 166.96 147.387 167.328C147.243 167.691 147.139 168.133 147.075 168.656C147.016 169.179 146.982 169.813 146.971 170.56C146.966 170.853 146.824 171 146.547 171ZM154.156 171C153.874 171 153.735 170.853 153.74 170.56C153.746 169.808 153.783 169.147 153.852 168.576C153.922 168.005 154.039 167.501 154.204 167.064C154.37 166.627 154.602 166.229 154.9 165.872C155.204 165.515 155.591 165.173 156.06 164.848C156.444 164.576 156.754 164.288 156.988 163.984C157.223 163.68 157.396 163.333 157.508 162.944C157.626 162.549 157.695 162.077 157.716 161.528H152.444C152.162 161.528 152.02 161.389 152.02 161.112C152.02 160.829 152.162 160.688 152.444 160.688H158.14C158.418 160.688 158.556 160.829 158.556 161.112C158.556 161.832 158.49 162.459 158.356 162.992C158.228 163.525 158.015 163.997 157.716 164.408C157.423 164.813 157.031 165.187 156.54 165.528C156.162 165.795 155.847 166.069 155.596 166.352C155.346 166.635 155.146 166.96 154.996 167.328C154.852 167.691 154.748 168.133 154.684 168.656C154.626 169.179 154.591 169.813 154.58 170.56C154.575 170.853 154.434 171 154.156 171ZM166.374 165.656C167.275 166.061 167.726 166.891 167.726 168.144C167.726 169.131 167.496 169.853 167.038 170.312C166.579 170.771 165.854 171 164.862 171H163.038C162.046 171 161.318 170.771 160.854 170.312C160.395 169.853 160.166 169.131 160.166 168.144C160.166 166.875 160.635 166.037 161.574 165.632C160.859 165.2 160.502 164.451 160.502 163.384C160.502 162.456 160.72 161.776 161.158 161.344C161.595 160.907 162.28 160.688 163.214 160.688H164.766C165.699 160.688 166.382 160.907 166.814 161.344C167.251 161.776 167.47 162.456 167.47 163.384C167.47 164.477 167.104 165.235 166.374 165.656ZM163.214 161.528C162.515 161.528 162.027 161.667 161.75 161.944C161.478 162.216 161.342 162.696 161.342 163.384C161.342 164.099 161.478 164.597 161.75 164.88C162.022 165.157 162.491 165.296 163.158 165.296L165.006 165.288C165.422 165.288 165.747 165.219 165.982 165.08C166.222 164.936 166.39 164.725 166.486 164.448C166.582 164.165 166.63 163.811 166.63 163.384C166.63 162.696 166.494 162.216 166.222 161.944C165.95 161.667 165.464 161.528 164.766 161.528H163.214ZM164.862 170.16C165.619 170.16 166.144 170.013 166.438 169.72C166.736 169.421 166.886 168.896 166.886 168.144C166.886 167.392 166.736 166.869 166.438 166.576C166.144 166.283 165.619 166.136 164.862 166.136H163.038C162.275 166.136 161.744 166.283 161.446 166.576C161.152 166.869 161.006 167.392 161.006 168.144C161.006 168.896 161.152 169.421 161.446 169.72C161.744 170.013 162.275 170.16 163.038 170.16H164.862ZM176.077 165.656C176.978 166.061 177.429 166.891 177.429 168.144C177.429 169.131 177.2 169.853 176.741 170.312C176.282 170.771 175.557 171 174.565 171H172.741C171.749 171 171.021 170.771 170.557 170.312C170.098 169.853 169.869 169.131 169.869 168.144C169.869 166.875 170.338 166.037 171.277 165.632C170.562 165.2 170.205 164.451 170.205 163.384C170.205 162.456 170.424 161.776 170.861 161.344C171.298 160.907 171.984 160.688 172.917 160.688H174.469C175.402 160.688 176.085 160.907 176.517 161.344C176.954 161.776 177.173 162.456 177.173 163.384C177.173 164.477 176.808 165.235 176.077 165.656ZM172.917 161.528C172.218 161.528 171.73 161.667 171.453 161.944C171.181 162.216 171.045 162.696 171.045 163.384C171.045 164.099 171.181 164.597 171.453 164.88C171.725 165.157 172.194 165.296 172.861 165.296L174.709 165.288C175.125 165.288 175.45 165.219 175.685 165.08C175.925 164.936 176.093 164.725 176.189 164.448C176.285 164.165 176.333 163.811 176.333 163.384C176.333 162.696 176.197 162.216 175.925 161.944C175.653 161.667 175.168 161.528 174.469 161.528H172.917ZM174.565 170.16C175.322 170.16 175.848 170.013 176.141 169.72C176.44 169.421 176.589 168.896 176.589 168.144C176.589 167.392 176.44 166.869 176.141 166.576C175.848 166.283 175.322 166.136 174.565 166.136H172.741C171.978 166.136 171.448 166.283 171.149 166.576C170.856 166.869 170.709 167.392 170.709 168.144C170.709 168.896 170.856 169.421 171.149 169.72C171.448 170.013 171.978 170.16 172.741 170.16H174.565ZM182.908 171.032C181.751 171.032 180.905 170.765 180.372 170.232C179.839 169.699 179.572 168.853 179.572 167.696V164.048C179.572 162.891 179.839 162.048 180.372 161.52C180.911 160.992 181.756 160.731 182.908 160.736H183.868C185.025 160.736 185.868 161.003 186.396 161.536C186.929 162.064 187.196 162.907 187.196 164.064V167.696C187.196 168.853 186.929 169.699 186.396 170.232C185.868 170.765 185.025 171.032 183.868 171.032H182.908ZM182.908 170.192H183.868C184.481 170.192 184.969 170.112 185.332 169.952C185.695 169.792 185.956 169.531 186.116 169.168C186.276 168.8 186.356 168.309 186.356 167.696V164.064C186.356 163.451 186.276 162.963 186.116 162.6C185.956 162.237 185.695 161.976 185.332 161.816C184.969 161.656 184.481 161.576 183.868 161.576H182.908C182.295 161.571 181.804 161.648 181.436 161.808C181.073 161.963 180.812 162.221 180.652 162.584C180.492 162.947 180.412 163.435 180.412 164.048V167.696C180.412 168.309 180.492 168.8 180.652 169.168C180.812 169.531 181.073 169.792 181.436 169.952C181.799 170.112 182.289 170.192 182.908 170.192ZM183.244 166.512C182.935 166.512 182.78 166.355 182.78 166.04V165.736C182.78 165.432 182.935 165.28 183.244 165.28H183.54C183.844 165.28 183.996 165.432 183.996 165.736V166.04C183.996 166.355 183.844 166.512 183.54 166.512H183.244Z" fill="#010103"/>
<path d="M18.152 206.984C17.496 206.984 16.9947 206.845 16.648 206.568C16.3013 206.285 16.0933 205.856 16.024 205.28C16.008 205.141 16.0373 205.035 16.112 204.96C16.1867 204.88 16.296 204.84 16.44 204.84C16.5733 204.84 16.672 204.875 16.736 204.944C16.8053 205.013 16.8507 205.117 16.872 205.256C16.92 205.587 17.04 205.819 17.232 205.952C17.4293 206.08 17.736 206.144 18.152 206.144H20.776C21.272 206.144 21.6133 206.051 21.8 205.864C21.9867 205.677 22.08 205.336 22.08 204.84C22.08 204.339 21.9867 203.995 21.8 203.808C21.6133 203.621 21.272 203.528 20.776 203.528H18.184C17.4907 203.528 16.9733 203.363 16.632 203.032C16.296 202.696 16.128 202.181 16.128 201.488C16.128 200.779 16.296 200.259 16.632 199.928C16.968 199.592 17.4853 199.424 18.184 199.424H20.696C21.9013 199.424 22.5707 199.957 22.704 201.024C22.7253 201.163 22.696 201.272 22.616 201.352C22.5413 201.427 22.4347 201.464 22.296 201.464C22.1627 201.464 22.0613 201.429 21.992 201.36C21.928 201.291 21.8827 201.189 21.856 201.056C21.8187 200.757 21.7093 200.552 21.528 200.44C21.352 200.323 21.0747 200.264 20.696 200.264H18.184C17.72 200.264 17.4 200.349 17.224 200.52C17.0533 200.691 16.968 201.013 16.968 201.488C16.968 201.941 17.056 202.256 17.232 202.432C17.408 202.603 17.7253 202.688 18.184 202.688H20.776C21.512 202.688 22.0533 202.864 22.4 203.216C22.7467 203.563 22.92 204.104 22.92 204.84C22.92 205.571 22.7467 206.112 22.4 206.464C22.0533 206.811 21.512 206.984 20.776 206.984H18.152ZM28.5215 207C27.5402 207 26.8228 206.773 26.3695 206.32C25.9162 205.867 25.6895 205.152 25.6895 204.176V200.28H24.7375C24.4548 200.28 24.3135 200.139 24.3135 199.856C24.3135 199.579 24.4548 199.44 24.7375 199.44H25.6895V197.72C25.6895 197.437 25.8282 197.296 26.1055 197.296C26.3882 197.296 26.5295 197.437 26.5295 197.72V199.44H28.5375C28.8148 199.44 28.9535 199.579 28.9535 199.856C28.9535 200.139 28.8148 200.28 28.5375 200.28H26.5295V204.176C26.5295 204.923 26.6735 205.44 26.9615 205.728C27.2548 206.016 27.7748 206.16 28.5215 206.16C28.6762 206.16 28.7855 206.195 28.8495 206.264C28.9188 206.333 28.9535 206.437 28.9535 206.576C28.9535 206.859 28.8095 207 28.5215 207ZM32.9315 207C32.0995 207 31.4888 206.808 31.0995 206.424C30.7155 206.035 30.5235 205.424 30.5235 204.592C30.5235 203.76 30.7182 203.149 31.1075 202.76C31.4968 202.371 32.1048 202.176 32.9315 202.176H36.5715C36.5608 201.472 36.4008 200.981 36.0915 200.704C35.7875 200.421 35.2675 200.28 34.5315 200.28H33.6035C32.9262 200.28 32.4302 200.352 32.1155 200.496C31.8008 200.64 31.6062 200.885 31.5315 201.232C31.4942 201.365 31.4435 201.464 31.3795 201.528C31.3208 201.587 31.2248 201.616 31.0915 201.616C30.9528 201.616 30.8435 201.579 30.7635 201.504C30.6888 201.424 30.6622 201.317 30.6835 201.184C30.7528 200.576 31.0275 200.133 31.5075 199.856C31.9928 199.579 32.6915 199.44 33.6035 199.44H34.5315C35.5288 199.44 36.2568 199.672 36.7155 200.136C37.1795 200.595 37.4115 201.323 37.4115 202.32V206.576C37.4115 206.859 37.2728 207 36.9955 207C36.7128 207 36.5715 206.859 36.5715 206.576V205.784C36.0595 206.595 35.1448 207 33.8275 207H32.9315ZM32.9315 206.16H33.8275C34.3448 206.16 34.7982 206.104 35.1875 205.992C35.5822 205.875 35.8995 205.688 36.1395 205.432C36.3795 205.176 36.5235 204.835 36.5715 204.408V203.016H32.9315C32.3395 203.016 31.9288 203.131 31.6995 203.36C31.4755 203.584 31.3635 203.995 31.3635 204.592C31.3635 205.184 31.4755 205.595 31.6995 205.824C31.9288 206.048 32.3395 206.16 32.9315 206.16ZM40.6856 207C40.403 207 40.2616 206.859 40.2616 206.576V199.856C40.2616 199.579 40.403 199.44 40.6856 199.44C40.963 199.44 41.1016 199.579 41.1016 199.856V201.088C41.379 200.555 41.779 200.147 42.3016 199.864C42.8296 199.581 43.4536 199.44 44.1736 199.44C44.4563 199.44 44.5976 199.579 44.5976 199.856C44.5976 200.139 44.4563 200.28 44.1736 200.28C43.2243 200.28 42.4883 200.496 41.9656 200.928C41.443 201.355 41.155 201.965 41.1016 202.76V206.576C41.1016 206.859 40.963 207 40.6856 207ZM47.6364 206.984C46.9804 206.984 46.479 206.845 46.1324 206.568C45.7857 206.285 45.5777 205.856 45.5084 205.28C45.4924 205.141 45.5217 205.035 45.5964 204.96C45.671 204.88 45.7804 204.84 45.9244 204.84C46.0577 204.84 46.1564 204.875 46.2204 204.944C46.2897 205.013 46.335 205.117 46.3564 205.256C46.4044 205.587 46.5244 205.819 46.7164 205.952C46.9137 206.08 47.2204 206.144 47.6364 206.144H50.2604C50.7564 206.144 51.0977 206.051 51.2844 205.864C51.471 205.677 51.5644 205.336 51.5644 204.84C51.5644 204.339 51.471 203.995 51.2844 203.808C51.0977 203.621 50.7564 203.528 50.2604 203.528H47.6684C46.975 203.528 46.4577 203.363 46.1164 203.032C45.7804 202.696 45.6124 202.181 45.6124 201.488C45.6124 200.779 45.7804 200.259 46.1164 199.928C46.4524 199.592 46.9697 199.424 47.6684 199.424H50.1804C51.3857 199.424 52.055 199.957 52.1884 201.024C52.2097 201.163 52.1804 201.272 52.1004 201.352C52.0257 201.427 51.919 201.464 51.7804 201.464C51.647 201.464 51.5457 201.429 51.4764 201.36C51.4124 201.291 51.367 201.189 51.3404 201.056C51.303 200.757 51.1937 200.552 51.0124 200.44C50.8364 200.323 50.559 200.264 50.1804 200.264H47.6684C47.2044 200.264 46.8844 200.349 46.7084 200.52C46.5377 200.691 46.4524 201.013 46.4524 201.488C46.4524 201.941 46.5404 202.256 46.7164 202.432C46.8924 202.603 47.2097 202.688 47.6684 202.688H50.2604C50.9964 202.688 51.5377 202.864 51.8844 203.216C52.231 203.563 52.4044 204.104 52.4044 204.84C52.4044 205.571 52.231 206.112 51.8844 206.464C51.5377 206.811 50.9964 206.984 50.2604 206.984H47.6364ZM54.3419 208.608C54.2192 208.608 54.1179 208.573 54.0379 208.504C53.9579 208.435 53.9285 208.339 53.9499 208.216L54.3259 206.168C54.3472 205.901 54.4992 205.768 54.7819 205.768H55.0859C55.3845 205.768 55.5339 205.92 55.5339 206.224V206.456C55.5339 206.557 55.5259 206.635 55.5099 206.688C55.4992 206.741 55.4832 206.792 55.4619 206.84L54.7099 208.352C54.6245 208.523 54.5019 208.608 54.3419 208.608ZM62.6388 207C62.3561 207 62.2148 206.859 62.2148 206.576V199.856C62.2148 199.579 62.3561 199.44 62.6388 199.44C62.9161 199.44 63.0548 199.579 63.0548 199.856V206.576C63.0548 206.859 62.9161 207 62.6388 207ZM62.4628 197.976C62.0948 197.976 61.9108 197.787 61.9108 197.408V197.048C61.9108 196.685 62.0948 196.504 62.4628 196.504H62.8148C63.1774 196.504 63.3588 196.685 63.3588 197.048V197.408C63.3588 197.787 63.1774 197.976 62.8148 197.976H62.4628ZM68.7149 207C67.7175 207 66.9869 206.768 66.5229 206.304C66.0589 205.84 65.8269 205.109 65.8269 204.112V202.304C65.8269 201.307 66.0562 200.579 66.5149 200.12C66.9789 199.656 67.7122 199.429 68.7149 199.44H70.0269C70.8109 199.44 71.4082 199.573 71.8189 199.84C72.2349 200.101 72.4829 200.515 72.5629 201.08C72.5789 201.224 72.5469 201.333 72.4669 201.408C72.3922 201.483 72.2855 201.52 72.1469 201.52C72.0189 201.52 71.9229 201.488 71.8589 201.424C71.7949 201.355 71.7469 201.256 71.7149 201.128C71.6562 200.819 71.4989 200.6 71.2429 200.472C70.9869 200.344 70.5815 200.28 70.0269 200.28H68.7149C67.9522 200.269 67.4189 200.413 67.1149 200.712C66.8162 201.005 66.6669 201.536 66.6669 202.304V204.112C66.6669 204.875 66.8162 205.408 67.1149 205.712C67.4189 206.011 67.9522 206.16 68.7149 206.16H70.0269C70.5815 206.16 70.9869 206.096 71.2429 205.968C71.4989 205.84 71.6562 205.619 71.7149 205.304C71.7469 205.176 71.7949 205.08 71.8589 205.016C71.9229 204.947 72.0189 204.912 72.1469 204.912C72.2855 204.912 72.3922 204.952 72.4669 205.032C72.5469 205.107 72.5789 205.213 72.5629 205.352C72.4829 205.917 72.2349 206.333 71.8189 206.6C71.4082 206.867 70.8109 207 70.0269 207H68.7149ZM75.8075 203.544V204.128C75.8075 204.88 75.9568 205.408 76.2555 205.712C76.5595 206.011 77.0928 206.16 77.8555 206.16H79.1675C79.8395 206.16 80.3275 206.075 80.6315 205.904C80.9408 205.728 81.1248 205.427 81.1835 205C81.2048 204.867 81.2475 204.765 81.3115 204.696C81.3808 204.627 81.4848 204.592 81.6235 204.592C81.7622 204.592 81.8662 204.632 81.9355 204.712C82.0102 204.787 82.0395 204.893 82.0235 205.032C81.9542 205.704 81.6848 206.2 81.2155 206.52C80.7462 206.84 80.0635 207 79.1675 207H77.8555C76.8582 207 76.1275 206.771 75.6635 206.312C75.1995 205.848 74.9675 205.12 74.9675 204.128V202.32C74.9675 201.312 75.1995 200.579 75.6635 200.12C76.1275 199.656 76.8582 199.429 77.8555 199.44H79.1675C80.1648 199.44 80.8928 199.672 81.3515 200.136C81.8155 200.595 82.0475 201.323 82.0475 202.32V203.12C82.0475 203.403 81.9088 203.544 81.6315 203.544H75.8075ZM77.8555 200.28C77.0928 200.269 76.5595 200.416 76.2555 200.72C75.9568 201.019 75.8075 201.552 75.8075 202.32V202.704H81.2075V202.32C81.2075 201.557 81.0582 201.027 80.7595 200.728C80.4608 200.429 79.9302 200.28 79.1675 200.28H77.8555ZM83.4513 208.608C83.3286 208.608 83.2273 208.573 83.1473 208.504C83.0673 208.435 83.0379 208.339 83.0592 208.216L83.4353 206.168C83.4566 205.901 83.6086 205.768 83.8913 205.768H84.1953C84.4939 205.768 84.6432 205.92 84.6432 206.224V206.456C84.6432 206.557 84.6353 206.635 84.6193 206.688C84.6086 206.741 84.5926 206.792 84.5713 206.84L83.8193 208.352C83.7339 208.523 83.6113 208.608 83.4513 208.608ZM93.9961 207C92.9988 207 92.2681 206.768 91.8041 206.304C91.3401 205.84 91.1081 205.109 91.1081 204.112V202.304C91.1081 201.307 91.3375 200.579 91.7961 200.12C92.2601 199.656 92.9935 199.429 93.9961 199.44H95.3081C96.0921 199.44 96.6895 199.573 97.1001 199.84C97.5161 200.101 97.7641 200.515 97.8441 201.08C97.8601 201.224 97.8281 201.333 97.7481 201.408C97.6735 201.483 97.5668 201.52 97.4281 201.52C97.3001 201.52 97.2041 201.488 97.1401 201.424C97.0761 201.355 97.0281 201.256 96.9961 201.128C96.9375 200.819 96.7801 200.6 96.5241 200.472C96.2681 200.344 95.8628 200.28 95.3081 200.28H93.9961C93.2335 200.269 92.7001 200.413 92.3961 200.712C92.0975 201.005 91.9481 201.536 91.9481 202.304V204.112C91.9481 204.875 92.0975 205.408 92.3961 205.712C92.7001 206.011 93.2335 206.16 93.9961 206.16H95.3081C95.8628 206.16 96.2681 206.096 96.5241 205.968C96.7801 205.84 96.9375 205.619 96.9961 205.304C97.0281 205.176 97.0761 205.08 97.1401 205.016C97.2041 204.947 97.3001 204.912 97.4281 204.912C97.5668 204.912 97.6735 204.952 97.7481 205.032C97.8281 205.107 97.8601 205.213 97.8441 205.352C97.7641 205.917 97.5161 206.333 97.1001 206.6C96.6895 206.867 96.0921 207 95.3081 207H93.9961ZM103.137 207C102.139 207 101.409 206.771 100.945 206.312C100.481 205.848 100.249 205.12 100.249 204.128V202.32C100.249 201.312 100.481 200.579 100.945 200.12C101.409 199.656 102.139 199.429 103.137 199.44H104.449C105.446 199.44 106.174 199.672 106.633 200.136C107.097 200.595 107.329 201.323 107.329 202.32V204.112C107.329 205.109 107.097 205.84 106.633 206.304C106.174 206.768 105.446 207 104.449 207H103.137ZM101.089 204.128C101.089 204.88 101.238 205.408 101.537 205.712C101.841 206.011 102.374 206.16 103.137 206.16H104.449C105.211 206.16 105.742 206.011 106.041 205.712C106.339 205.408 106.489 204.875 106.489 204.112V202.32C106.489 201.557 106.339 201.027 106.041 200.728C105.742 200.429 105.211 200.28 104.449 200.28H103.137C102.625 200.275 102.219 200.336 101.921 200.464C101.622 200.592 101.409 200.805 101.281 201.104C101.153 201.403 101.089 201.808 101.089 202.32V204.128ZM112.305 207C111.548 207 110.991 206.824 110.633 206.472C110.281 206.12 110.105 205.568 110.105 204.816V196.32C110.105 196.043 110.247 195.904 110.529 195.904C110.807 195.904 110.945 196.043 110.945 196.32V204.816C110.945 205.333 111.041 205.688 111.233 205.88C111.425 206.067 111.78 206.16 112.297 206.16C112.585 206.16 112.729 206.299 112.729 206.576C112.735 206.859 112.593 207 112.305 207ZM117.121 207C116.124 207 115.393 206.768 114.929 206.304C114.465 205.84 114.233 205.109 114.233 204.112V202.32C114.233 201.323 114.465 200.595 114.929 200.136C115.393 199.672 116.124 199.44 117.121 199.44H120.473V196.32C120.473 196.043 120.614 195.904 120.897 195.904C121.174 195.904 121.313 196.043 121.313 196.32V206.576C121.313 206.859 121.174 207 120.897 207C120.614 207 120.473 206.859 120.473 206.576V205.888C120.244 206.256 119.908 206.533 119.465 206.72C119.022 206.907 118.444 207 117.729 207H117.121ZM117.121 206.16H117.729C118.561 206.16 119.225 206.029 119.721 205.768C120.222 205.501 120.473 205.104 120.473 204.576V200.28H117.121C116.358 200.28 115.825 200.432 115.521 200.736C115.222 201.035 115.073 201.563 115.073 202.32V204.112C115.073 204.875 115.222 205.408 115.521 205.712C115.825 206.011 116.358 206.16 117.121 206.16ZM123.592 208.608C123.469 208.608 123.368 208.573 123.288 208.504C123.208 208.435 123.179 208.339 123.2 208.216L123.576 206.168C123.597 205.901 123.749 205.768 124.032 205.768H124.336C124.635 205.768 124.784 205.92 124.784 206.224V206.456C124.784 206.557 124.776 206.635 124.76 206.688C124.749 206.741 124.733 206.792 124.712 206.84L123.96 208.352C123.875 208.523 123.752 208.608 123.592 208.608ZM131.889 207C131.606 207 131.465 206.859 131.465 206.576V199.856C131.465 199.579 131.606 199.44 131.889 199.44C132.166 199.44 132.305 199.579 132.305 199.856V206.576C132.305 206.859 132.166 207 131.889 207ZM131.713 197.976C131.345 197.976 131.161 197.787 131.161 197.408V197.048C131.161 196.685 131.345 196.504 131.713 196.504H132.065C132.427 196.504 132.609 196.685 132.609 197.048V197.408C132.609 197.787 132.427 197.976 132.065 197.976H131.713ZM136.949 206.984C136.293 206.984 135.792 206.845 135.445 206.568C135.098 206.285 134.89 205.856 134.821 205.28C134.805 205.141 134.834 205.035 134.909 204.96C134.984 204.88 135.093 204.84 135.237 204.84C135.37 204.84 135.469 204.875 135.533 204.944C135.602 205.013 135.648 205.117 135.669 205.256C135.717 205.587 135.837 205.819 136.029 205.952C136.226 206.08 136.533 206.144 136.949 206.144H139.573C140.069 206.144 140.41 206.051 140.597 205.864C140.784 205.677 140.877 205.336 140.877 204.84C140.877 204.339 140.784 203.995 140.597 203.808C140.41 203.621 140.069 203.528 139.573 203.528H136.981C136.288 203.528 135.77 203.363 135.429 203.032C135.093 202.696 134.925 202.181 134.925 201.488C134.925 200.779 135.093 200.259 135.429 199.928C135.765 199.592 136.282 199.424 136.981 199.424H139.493C140.698 199.424 141.368 199.957 141.501 201.024C141.522 201.163 141.493 201.272 141.413 201.352C141.338 201.427 141.232 201.464 141.093 201.464C140.96 201.464 140.858 201.429 140.789 201.36C140.725 201.291 140.68 201.189 140.653 201.056C140.616 200.757 140.506 200.552 140.325 200.44C140.149 200.323 139.872 200.264 139.493 200.264H136.981C136.517 200.264 136.197 200.349 136.021 200.52C135.85 200.691 135.765 201.013 135.765 201.488C135.765 201.941 135.853 202.256 136.029 202.432C136.205 202.603 136.522 202.688 136.981 202.688H139.573C140.309 202.688 140.85 202.864 141.197 203.216C141.544 203.563 141.717 204.104 141.717 204.84C141.717 205.571 141.544 206.112 141.197 206.464C140.85 206.811 140.309 206.984 139.573 206.984H136.949ZM146.902 207C145.905 207 145.174 206.771 144.71 206.312C144.246 205.848 144.014 205.12 144.014 204.128V202.32C144.014 201.312 144.246 200.579 144.71 200.12C145.174 199.656 145.905 199.429 146.902 199.44H148.214C149.212 199.44 149.94 199.672 150.398 200.136C150.862 200.595 151.094 201.323 151.094 202.32V204.112C151.094 205.109 150.862 205.84 150.398 206.304C149.94 206.768 149.212 207 148.214 207H146.902ZM144.854 204.128C144.854 204.88 145.004 205.408 145.302 205.712C145.606 206.011 146.14 206.16 146.902 206.16H148.214C148.977 206.16 149.508 206.011 149.806 205.712C150.105 205.408 150.254 204.875 150.254 204.112V202.32C150.254 201.557 150.105 201.027 149.806 200.728C149.508 200.429 148.977 200.28 148.214 200.28H146.902C146.39 200.275 145.985 200.336 145.686 200.464C145.388 200.592 145.174 200.805 145.046 201.104C144.918 201.403 144.854 201.808 144.854 202.32V204.128ZM156.071 207C155.314 207 154.756 206.824 154.399 206.472C154.047 206.12 153.871 205.568 153.871 204.816V196.32C153.871 196.043 154.012 195.904 154.295 195.904C154.572 195.904 154.711 196.043 154.711 196.32V204.816C154.711 205.333 154.807 205.688 154.999 205.88C155.191 206.067 155.546 206.16 156.063 206.16C156.351 206.16 156.495 206.299 156.495 206.576C156.5 206.859 156.359 207 156.071 207ZM160.463 207C159.631 207 159.02 206.808 158.631 206.424C158.247 206.035 158.055 205.424 158.055 204.592C158.055 203.76 158.249 203.149 158.639 202.76C159.028 202.371 159.636 202.176 160.463 202.176H164.103C164.092 201.472 163.932 200.981 163.623 200.704C163.319 200.421 162.799 200.28 162.063 200.28H161.135C160.457 200.28 159.961 200.352 159.647 200.496C159.332 200.64 159.137 200.885 159.063 201.232C159.025 201.365 158.975 201.464 158.911 201.528C158.852 201.587 158.756 201.616 158.623 201.616C158.484 201.616 158.375 201.579 158.295 201.504C158.22 201.424 158.193 201.317 158.215 201.184C158.284 200.576 158.559 200.133 159.039 199.856C159.524 199.579 160.223 199.44 161.135 199.44H162.063C163.06 199.44 163.788 199.672 164.247 200.136C164.711 200.595 164.943 201.323 164.943 202.32V206.576C164.943 206.859 164.804 207 164.527 207C164.244 207 164.103 206.859 164.103 206.576V205.784C163.591 206.595 162.676 207 161.359 207H160.463ZM160.463 206.16H161.359C161.876 206.16 162.329 206.104 162.719 205.992C163.113 205.875 163.431 205.688 163.671 205.432C163.911 205.176 164.055 204.835 164.103 204.408V203.016H160.463C159.871 203.016 159.46 203.131 159.231 203.36C159.007 203.584 158.895 203.995 158.895 204.592C158.895 205.184 159.007 205.595 159.231 205.824C159.46 206.048 159.871 206.16 160.463 206.16ZM170.881 207C169.9 207 169.182 206.773 168.729 206.32C168.276 205.867 168.049 205.152 168.049 204.176V200.28H167.097C166.814 200.28 166.673 200.139 166.673 199.856C166.673 199.579 166.814 199.44 167.097 199.44H168.049V197.72C168.049 197.437 168.188 197.296 168.465 197.296C168.748 197.296 168.889 197.437 168.889 197.72V199.44H170.897C171.174 199.44 171.313 199.579 171.313 199.856C171.313 200.139 171.174 200.28 170.897 200.28H168.889V204.176C168.889 204.923 169.033 205.44 169.321 205.728C169.614 206.016 170.134 206.16 170.881 206.16C171.036 206.16 171.145 206.195 171.209 206.264C171.278 206.333 171.313 206.437 171.313 206.576C171.313 206.859 171.169 207 170.881 207ZM173.951 207C173.669 207 173.527 206.859 173.527 206.576V199.856C173.527 199.579 173.669 199.44 173.951 199.44C174.229 199.44 174.367 199.579 174.367 199.856V206.576C174.367 206.859 174.229 207 173.951 207ZM173.775 197.976C173.407 197.976 173.223 197.787 173.223 197.408V197.048C173.223 196.685 173.407 196.504 173.775 196.504H174.127C174.49 196.504 174.671 196.685 174.671 197.048V197.408C174.671 197.787 174.49 197.976 174.127 197.976H173.775ZM180.027 207C179.03 207 178.299 206.771 177.835 206.312C177.371 205.848 177.139 205.12 177.139 204.128V202.32C177.139 201.312 177.371 200.579 177.835 200.12C178.299 199.656 179.03 199.429 180.027 199.44H181.339C182.337 199.44 183.065 199.672 183.523 200.136C183.987 200.595 184.219 201.323 184.219 202.32V204.112C184.219 205.109 183.987 205.84 183.523 206.304C183.065 206.768 182.337 207 181.339 207H180.027ZM177.979 204.128C177.979 204.88 178.129 205.408 178.427 205.712C178.731 206.011 179.265 206.16 180.027 206.16H181.339C182.102 206.16 182.633 206.011 182.931 205.712C183.23 205.408 183.379 204.875 183.379 204.112V202.32C183.379 201.557 183.23 201.027 182.931 200.728C182.633 200.429 182.102 200.28 181.339 200.28H180.027C179.515 200.275 179.11 200.336 178.811 200.464C178.513 200.592 178.299 200.805 178.171 201.104C178.043 201.403 177.979 201.808 177.979 202.32V204.128ZM187.42 207C187.137 207 186.996 206.859 186.996 206.576V199.856C186.996 199.579 187.137 199.44 187.42 199.44C187.697 199.44 187.836 199.579 187.836 199.856V200.624C188.343 199.835 189.26 199.44 190.588 199.44H191.036C192.033 199.44 192.761 199.672 193.22 200.136C193.684 200.595 193.916 201.323 193.916 202.32V206.576C193.916 206.859 193.777 207 193.5 207C193.217 207 193.076 206.859 193.076 206.576V202.32C193.076 201.557 192.924 201.027 192.62 200.728C192.321 200.429 191.793 200.28 191.036 200.28H190.588C189.761 200.28 189.111 200.411 188.636 200.672C188.161 200.933 187.895 201.341 187.836 201.896V206.576C187.836 206.859 187.697 207 187.42 207Z" fill="#EBEBEB"/>
</svg>
