<svg width="213" height="211" viewBox="0 0 213 211" fill="none" xmlns="http://www.w3.org/2000/svg">
<rect width="213" height="140" fill="#BE9D2A"/>
<rect y="140" width="213" height="47" fill="#BE9D2A" fill-opacity="0.1"/>
<path d="M16.744 51.04C16.6373 51.04 16.544 51.0027 16.464 50.928C16.3893 50.848 16.352 50.7547 16.352 50.648C16.352 50.6267 16.352 50.608 16.352 50.592C16.3573 50.5707 16.3627 50.552 16.368 50.536L17.168 47.664H15.928C15.8213 47.664 15.728 47.6267 15.648 47.552C15.5733 47.472 15.536 47.3787 15.536 47.272C15.536 47.16 15.5733 47.0667 15.648 46.992C15.728 46.9173 15.8213 46.88 15.928 46.88H17.392L18.064 44.464H16.824C16.7173 44.464 16.624 44.4267 16.544 44.352C16.4693 44.272 16.432 44.1787 16.432 44.072C16.432 43.96 16.4693 43.8667 16.544 43.792C16.624 43.7173 16.7173 43.68 16.824 43.68H18.272L19.088 40.776C19.1147 40.6907 19.16 40.6213 19.224 40.568C19.2933 40.5093 19.3733 40.48 19.464 40.48C19.576 40.48 19.6693 40.5173 19.744 40.592C19.8187 40.6667 19.856 40.76 19.856 40.872C19.856 40.888 19.8533 40.9067 19.848 40.928C19.848 40.944 19.8453 40.9627 19.84 40.984L19.088 43.68H21.152L21.968 40.776C21.9947 40.6907 22.04 40.6213 22.104 40.568C22.1733 40.5093 22.2533 40.48 22.344 40.48C22.456 40.48 22.5493 40.5173 22.624 40.592C22.6987 40.6667 22.736 40.76 22.736 40.872C22.736 40.888 22.7333 40.9067 22.728 40.928C22.728 40.944 22.7253 40.9627 22.72 40.984L21.968 43.68H23.656C23.768 43.68 23.8613 43.7173 23.936 43.792C24.0107 43.8667 24.048 43.96 24.048 44.072C24.048 44.1787 24.0107 44.272 23.936 44.352C23.8613 44.4267 23.768 44.464 23.656 44.464H21.752L21.08 46.88H22.76C22.872 46.88 22.9653 46.9173 23.04 46.992C23.1147 47.0667 23.152 47.16 23.152 47.272C23.152 47.3787 23.1147 47.472 23.04 47.552C22.9653 47.6267 22.872 47.664 22.76 47.664H20.864L20 50.744C19.9787 50.824 19.9333 50.8933 19.864 50.952C19.7947 51.0107 19.7147 51.04 19.624 51.04C19.5173 51.04 19.424 51.0027 19.344 50.928C19.2693 50.848 19.232 50.7547 19.232 50.648C19.232 50.6267 19.232 50.608 19.232 50.592C19.2373 50.5707 19.2427 50.552 19.248 50.536L20.048 47.664H17.984L17.12 50.744C17.0987 50.824 17.0533 50.8933 16.984 50.952C16.9147 51.0107 16.8347 51.04 16.744 51.04ZM18.2 46.88H20.272L20.944 44.464H18.872L18.2 46.88ZM26.1856 51C25.903 51 25.7616 50.8587 25.7616 50.576V41.112C25.7616 40.8293 25.903 40.688 26.1856 40.688H30.3616C31.1456 40.688 31.7376 40.888 32.1376 41.288C32.543 41.6827 32.7456 42.264 32.7456 43.032V43.464C32.7456 44.3013 32.4763 44.8933 31.9376 45.24C32.871 45.624 33.3376 46.456 33.3376 47.736V48.24C33.3376 49.1467 33.103 49.8347 32.6336 50.304C32.1696 50.768 31.4816 51 30.5696 51H26.1856ZM26.6016 50.16H30.5696C31.247 50.16 31.7376 50.008 32.0416 49.704C32.3456 49.4 32.4976 48.912 32.4976 48.24V47.736C32.4976 47.064 32.3456 46.5787 32.0416 46.28C31.743 45.9813 31.2523 45.832 30.5696 45.832H26.6016V50.16ZM26.6016 44.992H30.4816C30.967 44.992 31.3243 44.8693 31.5536 44.624C31.7883 44.3733 31.9056 43.9867 31.9056 43.464V43.032C31.9056 42.4987 31.783 42.1147 31.5376 41.88C31.2976 41.6453 30.9056 41.528 30.3616 41.528H26.6016V44.992ZM36.1075 51C35.8248 51 35.6835 50.8587 35.6835 50.576V41.112C35.6835 40.8293 35.8248 40.688 36.1075 40.688H42.0995C42.3822 40.688 42.5235 40.8293 42.5235 41.112C42.5235 41.3893 42.3822 41.528 42.0995 41.528H36.5235V45.36H40.2115C40.4942 45.36 40.6355 45.4987 40.6355 45.776C40.6355 46.0587 40.4942 46.2 40.2115 46.2H36.5235V50.16H42.0995C42.3822 50.16 42.5235 50.2987 42.5235 50.576C42.5235 50.8587 42.3822 51 42.0995 51H36.1075ZM48.7563 40.704C49.7483 40.704 50.4736 40.9333 50.9323 41.392C51.3963 41.8507 51.6283 42.5707 51.6283 43.552V48.288C51.6283 49.2213 51.4096 49.9067 50.9723 50.344C50.5349 50.7813 49.8496 51 48.9163 51H46.9323C46.0789 51 45.4336 50.8187 44.9963 50.456C44.5589 50.088 44.3109 49.5173 44.2523 48.744C44.2363 48.6053 44.2629 48.4987 44.3322 48.424C44.4069 48.344 44.5136 48.304 44.6523 48.304C44.9189 48.304 45.0656 48.4427 45.0923 48.72C45.1349 49.2533 45.2949 49.6267 45.5723 49.84C45.8549 50.0533 46.3083 50.16 46.9323 50.16H48.9163C49.6149 50.16 50.1003 50.024 50.3723 49.752C50.6496 49.4747 50.7883 48.9867 50.7883 48.288V46.504C50.4256 47.176 49.7483 47.512 48.7563 47.512H47.0923C46.1003 47.512 45.3749 47.2827 44.9163 46.824C44.4576 46.36 44.2283 45.632 44.2283 44.64V43.568C44.2283 42.5813 44.4576 41.8587 44.9163 41.4C45.3749 40.936 46.1003 40.704 47.0923 40.704H48.7563ZM48.7563 41.544H47.0923C46.3403 41.544 45.8149 41.696 45.5163 42C45.2176 42.2987 45.0683 42.8213 45.0683 43.568V44.64C45.0683 45.3973 45.2176 45.9253 45.5163 46.224C45.8149 46.5227 46.3403 46.672 47.0923 46.672H48.7563C49.5189 46.672 50.0469 46.5253 50.3403 46.232C50.6389 45.9333 50.7883 45.408 50.7883 44.656V43.552C50.7883 42.8053 50.6389 42.2853 50.3403 41.992C50.0469 41.6933 49.5189 41.544 48.7563 41.544ZM54.6231 51C54.3405 51 54.1991 50.8587 54.1991 50.576V41.112C54.1991 40.8293 54.3405 40.688 54.6231 40.688H58.4791C59.8071 40.688 60.7725 40.992 61.3751 41.6C61.9831 42.208 62.2871 43.176 62.2871 44.504V47.184C62.2871 48.512 61.9831 49.48 61.3751 50.088C60.7725 50.696 59.8071 51 58.4791 51H54.6231ZM55.0391 50.16H58.4791C59.2045 50.16 59.7831 50.064 60.2151 49.872C60.6525 49.68 60.9671 49.368 61.1591 48.936C61.3511 48.4987 61.4471 47.9147 61.4471 47.184V44.504C61.4471 43.7787 61.3511 43.2 61.1591 42.768C60.9671 42.3307 60.6525 42.016 60.2151 41.824C59.7831 41.6267 59.2045 41.528 58.4791 41.528H55.0391V50.16ZM71.2425 51H65.0425C64.7545 51 64.6105 50.8587 64.6105 50.576C64.6105 49.968 64.6932 49.4453 64.8585 49.008C65.0238 48.5707 65.2638 48.184 65.5785 47.848C65.8985 47.5067 66.2852 47.1867 66.7385 46.888C67.1972 46.5893 67.7145 46.2747 68.2905 45.944C68.8185 45.64 69.2638 45.3707 69.6265 45.136C69.9892 44.896 70.2638 44.6453 70.4505 44.384C70.6425 44.1173 70.7385 43.7893 70.7385 43.4C70.7385 42.7013 70.6025 42.216 70.3305 41.944C70.0585 41.6667 69.5705 41.528 68.8665 41.528H67.1545C66.5358 41.528 66.0852 41.6347 65.8025 41.848C65.5252 42.0613 65.3625 42.4347 65.3145 42.968C65.2985 43.1067 65.2558 43.2107 65.1865 43.28C65.1172 43.3493 65.0158 43.384 64.8825 43.384C64.7438 43.384 64.6372 43.3467 64.5625 43.272C64.4878 43.192 64.4558 43.0827 64.4665 42.944C64.5305 42.1707 64.7812 41.6027 65.2185 41.24C65.6558 40.872 66.3012 40.688 67.1545 40.688H68.8665C69.7998 40.688 70.4852 40.9067 70.9225 41.344C71.3598 41.7813 71.5785 42.4667 71.5785 43.4C71.5785 43.9493 71.4478 44.4133 71.1865 44.792C70.9305 45.1653 70.5838 45.4987 70.1465 45.792C69.7145 46.08 69.2345 46.3733 68.7065 46.672C68.0292 47.0613 67.4612 47.4133 67.0025 47.728C66.5438 48.0373 66.1865 48.3787 65.9305 48.752C65.6798 49.12 65.5278 49.5893 65.4745 50.16H71.2425C71.5252 50.16 71.6665 50.2987 71.6665 50.576C71.6665 50.8587 71.5252 51 71.2425 51ZM73.3286 50.96C73.0726 50.848 72.9953 50.6613 73.0966 50.4L77.0646 41.016C77.15 40.7973 77.3073 40.688 77.5366 40.688H77.5846C77.8033 40.6933 77.958 40.8027 78.0486 41.016L82.0166 50.4C82.1233 50.6613 82.0486 50.848 81.7926 50.96C81.5313 51.0667 81.35 50.992 81.2486 50.736L80.1846 48.216H74.9446L73.8806 50.736C73.774 50.992 73.59 51.0667 73.3286 50.96ZM75.2886 47.376H79.8326L77.5606 42.016L75.2886 47.376Z" fill="#EBEBEB"/>
<path d="M19.288 34C19.0107 34 18.872 33.8587 18.872 33.576V30.016L15.288 24.352C15.144 24.1227 15.1893 23.928 15.424 23.768C15.664 23.6187 15.8587 23.664 16.008 23.904L19.288 29.112L22.624 23.896C22.6987 23.784 22.784 23.7173 22.88 23.696C22.976 23.6747 23.0827 23.7013 23.2 23.776C23.44 23.92 23.4827 24.112 23.328 24.352L19.712 30.016V33.576C19.712 33.8587 19.5707 34 19.288 34ZM24.1669 30.544V31.128C24.1669 31.88 24.3162 32.408 24.6149 32.712C24.9189 33.0107 25.4522 33.16 26.2149 33.16H27.5269C28.1989 33.16 28.6869 33.0747 28.9909 32.904C29.3002 32.728 29.4842 32.4267 29.5429 32C29.5642 31.8667 29.6069 31.7653 29.6709 31.696C29.7402 31.6267 29.8442 31.592 29.9829 31.592C30.1215 31.592 30.2255 31.632 30.2949 31.712C30.3695 31.7867 30.3989 31.8933 30.3829 32.032C30.3135 32.704 30.0442 33.2 29.5749 33.52C29.1055 33.84 28.4229 34 27.5269 34H26.2149C25.2175 34 24.4869 33.7707 24.0229 33.312C23.5589 32.848 23.3269 32.12 23.3269 31.128V29.32C23.3269 28.312 23.5589 27.5787 24.0229 27.12C24.4869 26.656 25.2175 26.4293 26.2149 26.44H27.5269C28.5242 26.44 29.2522 26.672 29.7109 27.136C30.1749 27.5947 30.4069 28.3227 30.4069 29.32V30.12C30.4069 30.4027 30.2682 30.544 29.9909 30.544H24.1669ZM26.2149 27.28C25.4522 27.2693 24.9189 27.416 24.6149 27.72C24.3162 28.0187 24.1669 28.552 24.1669 29.32V29.704H29.5669V29.32C29.5669 28.5573 29.4175 28.0267 29.1189 27.728C28.8202 27.4293 28.2895 27.28 27.5269 27.28H26.2149ZM35.3835 34C34.6262 34 34.0688 33.824 33.7115 33.472C33.3595 33.12 33.1835 32.568 33.1835 31.816V23.32C33.1835 23.0427 33.3248 22.904 33.6075 22.904C33.8848 22.904 34.0235 23.0427 34.0235 23.32V31.816C34.0235 32.3333 34.1195 32.688 34.3115 32.88C34.5035 33.0667 34.8582 33.16 35.3755 33.16C35.6635 33.16 35.8075 33.2987 35.8075 33.576C35.8128 33.8587 35.6715 34 35.3835 34ZM40.0398 34C39.2824 34 38.7251 33.824 38.3678 33.472C38.0158 33.12 37.8398 32.568 37.8398 31.816V23.32C37.8398 23.0427 37.9811 22.904 38.2638 22.904C38.5411 22.904 38.6798 23.0427 38.6798 23.32V31.816C38.6798 32.3333 38.7758 32.688 38.9678 32.88C39.1598 33.0667 39.5144 33.16 40.0318 33.16C40.3198 33.16 40.4638 33.2987 40.4638 33.576C40.4691 33.8587 40.3278 34 40.0398 34ZM44.8555 34C43.8582 34 43.1275 33.7707 42.6635 33.312C42.1995 32.848 41.9675 32.12 41.9675 31.128V29.32C41.9675 28.312 42.1995 27.5787 42.6635 27.12C43.1275 26.656 43.8582 26.4293 44.8555 26.44H46.1675C47.1648 26.44 47.8928 26.672 48.3515 27.136C48.8155 27.5947 49.0475 28.3227 49.0475 29.32V31.112C49.0475 32.1093 48.8155 32.84 48.3515 33.304C47.8928 33.768 47.1648 34 46.1675 34H44.8555ZM42.8075 31.128C42.8075 31.88 42.9568 32.408 43.2555 32.712C43.5595 33.0107 44.0928 33.16 44.8555 33.16H46.1675C46.9302 33.16 47.4608 33.0107 47.7595 32.712C48.0582 32.408 48.2075 31.8747 48.2075 31.112V29.32C48.2075 28.5573 48.0582 28.0267 47.7595 27.728C47.4608 27.4293 46.9302 27.28 46.1675 27.28H44.8555C44.3435 27.2747 43.9382 27.336 43.6395 27.464C43.3408 27.592 43.1275 27.8053 42.9995 28.104C42.8715 28.4027 42.8075 28.808 42.8075 29.32V31.128ZM53.1676 34C52.917 34 52.7543 33.8853 52.6796 33.656L50.4236 27.008C50.333 26.736 50.421 26.5573 50.6876 26.472C50.949 26.392 51.1223 26.48 51.2076 26.736L53.3996 33.16H53.0636L55.1596 26.856C55.2343 26.632 55.3943 26.52 55.6396 26.52C55.8743 26.52 56.0263 26.6347 56.0956 26.864L58.0556 33.144H57.7036L60.0076 26.736C60.1143 26.464 60.2956 26.376 60.5516 26.472C60.8183 26.5733 60.9036 26.7547 60.8076 27.016L58.3356 33.656C58.2503 33.8853 58.085 34 57.8396 34C57.5676 34 57.397 33.8853 57.3276 33.656L55.5116 27.84H55.6716L53.6716 33.656C53.629 33.7893 53.5623 33.88 53.4716 33.928C53.381 33.976 53.2796 34 53.1676 34Z" fill="#EBEBEB"/>
<path d="M18.152 207C17.9013 207 17.7387 206.885 17.664 206.656L15.408 200.008C15.3173 199.736 15.4053 199.557 15.672 199.472C15.9333 199.392 16.1067 199.48 16.192 199.736L18.384 206.16H18.048L20.144 199.856C20.2187 199.632 20.3787 199.52 20.624 199.52C20.8587 199.52 21.0107 199.635 21.08 199.864L23.04 206.144H22.688L24.992 199.736C25.0987 199.464 25.28 199.376 25.536 199.472C25.8027 199.573 25.888 199.755 25.792 200.016L23.32 206.656C23.2347 206.885 23.0693 207 22.824 207C22.552 207 22.3813 206.885 22.312 206.656L20.496 200.84H20.656L18.656 206.656C18.6133 206.789 18.5467 206.88 18.456 206.928C18.3653 206.976 18.264 207 18.152 207ZM29.7909 207C28.9589 207 28.3482 206.808 27.9589 206.424C27.5749 206.035 27.3829 205.424 27.3829 204.592C27.3829 203.76 27.5775 203.149 27.9669 202.76C28.3562 202.371 28.9642 202.176 29.7909 202.176H33.4309C33.4202 201.472 33.2602 200.981 32.9509 200.704C32.6469 200.421 32.1269 200.28 31.3909 200.28H30.4629C29.7855 200.28 29.2895 200.352 28.9749 200.496C28.6602 200.64 28.4655 200.885 28.3909 201.232C28.3535 201.365 28.3029 201.464 28.2389 201.528C28.1802 201.587 28.0842 201.616 27.9509 201.616C27.8122 201.616 27.7029 201.579 27.6229 201.504C27.5482 201.424 27.5215 201.317 27.5429 201.184C27.6122 200.576 27.8869 200.133 28.3669 199.856C28.8522 199.579 29.5509 199.44 30.4629 199.44H31.3909C32.3882 199.44 33.1162 199.672 33.5749 200.136C34.0389 200.595 34.2709 201.323 34.2709 202.32V206.576C34.2709 206.859 34.1322 207 33.8549 207C33.5722 207 33.4309 206.859 33.4309 206.576V205.784C32.9189 206.595 32.0042 207 30.6869 207H29.7909ZM29.7909 206.16H30.6869C31.2042 206.16 31.6575 206.104 32.0469 205.992C32.4415 205.875 32.7589 205.688 32.9989 205.432C33.2389 205.176 33.3829 204.835 33.4309 204.408V203.016H29.7909C29.1989 203.016 28.7882 203.131 28.5589 203.36C28.3349 203.584 28.2229 203.995 28.2229 204.592C28.2229 205.184 28.3349 205.595 28.5589 205.824C28.7882 206.048 29.1989 206.16 29.7909 206.16ZM37.545 207C37.2623 207 37.121 206.859 37.121 206.576V199.856C37.121 199.579 37.2623 199.44 37.545 199.44C37.8223 199.44 37.961 199.579 37.961 199.856V201.088C38.2383 200.555 38.6383 200.147 39.161 199.864C39.689 199.581 40.313 199.44 41.033 199.44C41.3157 199.44 41.457 199.579 41.457 199.856C41.457 200.139 41.3157 200.28 41.033 200.28C40.0837 200.28 39.3477 200.496 38.825 200.928C38.3023 201.355 38.0143 201.965 37.961 202.76V206.576C37.961 206.859 37.8223 207 37.545 207ZM43.5763 207C43.2936 207 43.1523 206.859 43.1523 206.576V199.856C43.1523 199.579 43.2936 199.44 43.5763 199.44C43.8536 199.44 43.9923 199.579 43.9923 199.856V200.624C44.4989 199.835 45.4163 199.44 46.7443 199.44H47.1923C48.1896 199.44 48.9176 199.672 49.3763 200.136C49.8403 200.595 50.0723 201.323 50.0723 202.32V206.576C50.0723 206.859 49.9336 207 49.6562 207C49.3736 207 49.2323 206.859 49.2323 206.576V202.32C49.2323 201.557 49.0803 201.027 48.7763 200.728C48.4776 200.429 47.9496 200.28 47.1923 200.28H46.7443C45.9176 200.28 45.2669 200.411 44.7923 200.672C44.3176 200.933 44.0509 201.341 43.9923 201.896V206.576C43.9923 206.859 43.8536 207 43.5763 207ZM53.3419 207C53.0592 207 52.9179 206.859 52.9179 206.576V199.856C52.9179 199.579 53.0592 199.44 53.3419 199.44C53.6192 199.44 53.7579 199.579 53.7579 199.856V206.576C53.7579 206.859 53.6192 207 53.3419 207ZM53.1659 197.976C52.7979 197.976 52.6139 197.787 52.6139 197.408V197.048C52.6139 196.685 52.7979 196.504 53.1659 196.504H53.5179C53.8805 196.504 54.0619 196.685 54.0619 197.048V197.408C54.0619 197.787 53.8805 197.976 53.5179 197.976H53.1659ZM57.17 207C56.8873 207 56.746 206.859 56.746 206.576V199.856C56.746 199.579 56.8873 199.44 57.17 199.44C57.4473 199.44 57.586 199.579 57.586 199.856V200.624C58.0927 199.835 59.01 199.44 60.338 199.44H60.786C61.7833 199.44 62.5113 199.672 62.97 200.136C63.434 200.595 63.666 201.323 63.666 202.32V206.576C63.666 206.859 63.5273 207 63.25 207C62.9673 207 62.826 206.859 62.826 206.576V202.32C62.826 201.557 62.674 201.027 62.37 200.728C62.0713 200.429 61.5433 200.28 60.786 200.28H60.338C59.5113 200.28 58.8607 200.411 58.386 200.672C57.9113 200.933 57.6447 201.341 57.586 201.896V206.576C57.586 206.859 57.4473 207 57.17 207ZM68.3516 210.2C67.7223 210.2 67.2423 210.069 66.9116 209.808C66.581 209.552 66.3863 209.147 66.3276 208.592C66.3116 208.453 66.341 208.344 66.4156 208.264C66.4903 208.184 66.5943 208.144 66.7276 208.144C66.861 208.144 66.9623 208.179 67.0316 208.248C67.101 208.317 67.1463 208.421 67.1676 208.56C67.205 208.869 67.3143 209.08 67.4956 209.192C67.677 209.304 67.9623 209.36 68.3516 209.36H71.3276C71.797 209.36 72.1143 209.275 72.2796 209.104C72.4503 208.933 72.5356 208.613 72.5356 208.144V205.856C72.2903 206.229 71.9436 206.515 71.4956 206.712C71.0476 206.904 70.4796 207 69.7916 207H69.1836C68.1863 207 67.4556 206.771 66.9916 206.312C66.5276 205.848 66.2956 205.12 66.2956 204.128V202.32C66.2956 201.312 66.525 200.581 66.9836 200.128C67.4476 199.669 68.181 199.44 69.1836 199.44H70.4956C71.0183 199.44 71.4423 199.509 71.7676 199.648C72.093 199.787 72.349 200.003 72.5356 200.296V199.856C72.5356 199.579 72.677 199.44 72.9596 199.44C73.237 199.44 73.3756 199.579 73.3756 199.856V208.144C73.3756 208.848 73.2103 209.365 72.8796 209.696C72.549 210.032 72.0316 210.2 71.3276 210.2H68.3516ZM69.1836 206.16H69.7916C70.6236 206.16 71.2876 206.029 71.7836 205.768C72.285 205.507 72.5356 205.109 72.5356 204.576V201.904C72.5356 201.301 72.3676 200.88 72.0316 200.64C71.6956 200.4 71.1836 200.28 70.4956 200.28H69.1836C68.421 200.28 67.8876 200.429 67.5836 200.728C67.285 201.021 67.1356 201.552 67.1356 202.32V204.128C67.1356 204.88 67.285 205.408 67.5836 205.712C67.8876 206.011 68.421 206.16 69.1836 206.16ZM75.6544 208.608C75.5317 208.608 75.4304 208.573 75.3504 208.504C75.2704 208.435 75.241 208.339 75.2624 208.216L75.6384 206.168C75.6597 205.901 75.8117 205.768 76.0944 205.768H76.3984C76.697 205.768 76.8464 205.92 76.8464 206.224V206.456C76.8464 206.557 76.8384 206.635 76.8224 206.688C76.8117 206.741 76.7957 206.792 76.7744 206.84L76.0224 208.352C75.937 208.523 75.8144 208.608 75.6544 208.608ZM84.1513 203.544V204.128C84.1513 204.88 84.3006 205.408 84.5993 205.712C84.9033 206.011 85.4366 206.16 86.1993 206.16H87.5113C88.1833 206.16 88.6713 206.075 88.9753 205.904C89.2846 205.728 89.4686 205.427 89.5273 205C89.5486 204.867 89.5913 204.765 89.6553 204.696C89.7246 204.627 89.8286 204.592 89.9673 204.592C90.1059 204.592 90.2099 204.632 90.2793 204.712C90.3539 204.787 90.3833 204.893 90.3673 205.032C90.2979 205.704 90.0286 206.2 89.5593 206.52C89.0899 206.84 88.4073 207 87.5113 207H86.1993C85.2019 207 84.4713 206.771 84.0073 206.312C83.5433 205.848 83.3113 205.12 83.3113 204.128V202.32C83.3113 201.312 83.5433 200.579 84.0073 200.12C84.4713 199.656 85.2019 199.429 86.1993 199.44H87.5113C88.5086 199.44 89.2366 199.672 89.6953 200.136C90.1593 200.595 90.3913 201.323 90.3913 202.32V203.12C90.3913 203.403 90.2526 203.544 89.9753 203.544H84.1513ZM86.1993 200.28C85.4366 200.269 84.9033 200.416 84.5993 200.72C84.3006 201.019 84.1513 201.552 84.1513 202.32V202.704H89.5513V202.32C89.5513 201.557 89.4019 201.027 89.1033 200.728C88.8046 200.429 88.2739 200.28 87.5113 200.28H86.1993ZM92.1315 206.888C91.9075 206.712 91.8835 206.512 92.0595 206.288L94.5715 203.104L92.2675 200.136C92.0915 199.923 92.1128 199.725 92.3315 199.544C92.5555 199.379 92.7528 199.403 92.9235 199.616L95.1715 202.504L97.5075 199.616C97.6835 199.387 97.8808 199.365 98.0995 199.552C98.3235 199.728 98.3475 199.923 98.1715 200.136L95.6915 203.184L98.1235 206.296C98.2995 206.525 98.2782 206.72 98.0595 206.88C97.8355 207.061 97.6355 207.04 97.4595 206.816L95.1075 203.792L92.7155 206.808C92.5395 207.037 92.3448 207.064 92.1315 206.888ZM103.693 207C102.712 207 101.995 206.773 101.541 206.32C101.088 205.867 100.861 205.152 100.861 204.176V200.28H99.9094C99.6267 200.28 99.4854 200.139 99.4854 199.856C99.4854 199.579 99.6267 199.44 99.9094 199.44H100.861V197.72C100.861 197.437 101 197.296 101.277 197.296C101.56 197.296 101.701 197.437 101.701 197.72V199.44H103.709C103.987 199.44 104.125 199.579 104.125 199.856C104.125 200.139 103.987 200.28 103.709 200.28H101.701V204.176C101.701 204.923 101.845 205.44 102.133 205.728C102.427 206.016 102.947 206.16 103.693 206.16C103.848 206.16 103.957 206.195 104.021 206.264C104.091 206.333 104.125 206.437 104.125 206.576C104.125 206.859 103.981 207 103.693 207ZM106.764 207C106.481 207 106.34 206.859 106.34 206.576V199.856C106.34 199.579 106.481 199.44 106.764 199.44C107.041 199.44 107.18 199.579 107.18 199.856V201.088C107.457 200.555 107.857 200.147 108.38 199.864C108.908 199.581 109.532 199.44 110.252 199.44C110.534 199.44 110.676 199.579 110.676 199.856C110.676 200.139 110.534 200.28 110.252 200.28C109.302 200.28 108.566 200.496 108.044 200.928C107.521 201.355 107.233 201.965 107.18 202.76V206.576C107.18 206.859 107.041 207 106.764 207ZM112.683 203.544V204.128C112.683 204.88 112.832 205.408 113.131 205.712C113.435 206.011 113.968 206.16 114.731 206.16H116.043C116.715 206.16 117.203 206.075 117.507 205.904C117.816 205.728 118 205.427 118.059 205C118.08 204.867 118.123 204.765 118.187 204.696C118.256 204.627 118.36 204.592 118.499 204.592C118.637 204.592 118.741 204.632 118.811 204.712C118.885 204.787 118.915 204.893 118.899 205.032C118.829 205.704 118.56 206.2 118.091 206.52C117.621 206.84 116.939 207 116.043 207H114.731C113.733 207 113.003 206.771 112.539 206.312C112.075 205.848 111.843 205.12 111.843 204.128V202.32C111.843 201.312 112.075 200.579 112.539 200.12C113.003 199.656 113.733 199.429 114.731 199.44H116.043C117.04 199.44 117.768 199.672 118.227 200.136C118.691 200.595 118.923 201.323 118.923 202.32V203.12C118.923 203.403 118.784 203.544 118.507 203.544H112.683ZM114.731 200.28C113.968 200.269 113.435 200.416 113.131 200.72C112.832 201.019 112.683 201.552 112.683 202.32V202.704H118.083V202.32C118.083 201.557 117.933 201.027 117.635 200.728C117.336 200.429 116.805 200.28 116.043 200.28H114.731ZM130.171 199.424C131.03 199.424 131.643 199.643 132.011 200.08C132.384 200.517 132.571 201.24 132.571 202.248V206.592C132.571 206.869 132.432 207.008 132.155 207.008C131.872 207.008 131.731 206.869 131.731 206.592V202.248C131.731 201.544 131.611 201.037 131.371 200.728C131.131 200.419 130.731 200.264 130.171 200.264H129.507C128.808 200.264 128.307 200.419 128.003 200.728C127.704 201.037 127.555 201.544 127.555 202.248V206.592C127.555 206.869 127.416 207.008 127.139 207.008C126.856 207.008 126.715 206.869 126.715 206.592V202.248C126.715 201.544 126.595 201.037 126.355 200.728C126.115 200.419 125.715 200.264 125.155 200.264H124.491C123.792 200.264 123.291 200.419 122.987 200.728C122.688 201.037 122.539 201.544 122.539 202.248V206.592C122.539 206.869 122.4 207.008 122.123 207.008C121.84 207.008 121.699 206.869 121.699 206.592V199.856C121.699 199.579 121.84 199.44 122.123 199.44C122.4 199.44 122.539 199.579 122.539 199.856V200.48C122.774 200.101 123.051 199.832 123.371 199.672C123.696 199.507 124.107 199.424 124.603 199.424H125.155C125.715 199.424 126.163 199.523 126.499 199.72C126.84 199.912 127.11 200.229 127.307 200.672C127.542 200.229 127.83 199.912 128.171 199.72C128.512 199.523 128.958 199.424 129.507 199.424H130.171ZM136.042 203.544V204.128C136.042 204.88 136.191 205.408 136.49 205.712C136.794 206.011 137.327 206.16 138.09 206.16H139.402C140.074 206.16 140.562 206.075 140.866 205.904C141.175 205.728 141.359 205.427 141.418 205C141.439 204.867 141.482 204.765 141.546 204.696C141.615 204.627 141.719 204.592 141.858 204.592C141.997 204.592 142.101 204.632 142.17 204.712C142.245 204.787 142.274 204.893 142.258 205.032C142.189 205.704 141.919 206.2 141.45 206.52C140.981 206.84 140.298 207 139.402 207H138.09C137.093 207 136.362 206.771 135.898 206.312C135.434 205.848 135.202 205.12 135.202 204.128V202.32C135.202 201.312 135.434 200.579 135.898 200.12C136.362 199.656 137.093 199.429 138.09 199.44H139.402C140.399 199.44 141.127 199.672 141.586 200.136C142.05 200.595 142.282 201.323 142.282 202.32V203.12C142.282 203.403 142.143 203.544 141.866 203.544H136.042ZM138.09 200.28C137.327 200.269 136.794 200.416 136.49 200.72C136.191 201.019 136.042 201.552 136.042 202.32V202.704H141.442V202.32C141.442 201.557 141.293 201.027 140.994 200.728C140.695 200.429 140.165 200.28 139.402 200.28H138.09Z" fill="#EBEBEB"/>
</svg>
