<svg width="555" height="193" viewBox="0 0 555 193" fill="none" xmlns="http://www.w3.org/2000/svg">
<rect x="290" y="11" width="155" height="155" rx="20" fill="#F7F7F7"/>
<rect x="179" y="106" width="87" height="87" rx="20" fill="#DEDEDE"/>
<rect x="468" width="87" height="87" rx="20" fill="#739600"/>
<rect x="179" width="87" height="87" rx="20" fill="#001D51"/>
<path d="M491.213 44.5977H489.9L489.455 47H488.471L488.916 44.5977H487.562V43.6719H489.092L489.432 41.8379H488.008V40.9062H489.607L490.064 38.4688H491.043L490.586 40.9062H491.904L492.361 38.4688H493.34L492.883 40.9062H494.102V41.8379H492.707L492.367 43.6719H493.662V44.5977H492.191L491.746 47H490.768L491.213 44.5977ZM490.076 43.6719H491.389L491.729 41.8379H490.416L490.076 43.6719ZM500.641 39.2598L497.23 47H495.736L499.141 39.6113H494.729V38.4688H500.641V39.2598ZM503.43 42.084H504.297C504.734 42.0801 505.08 41.9668 505.334 41.7441C505.592 41.5215 505.721 41.1992 505.721 40.7773C505.721 40.3711 505.613 40.0566 505.398 39.834C505.188 39.6074 504.863 39.4941 504.426 39.4941C504.043 39.4941 503.729 39.6055 503.482 39.8281C503.236 40.0469 503.113 40.334 503.113 40.6895H501.689C501.689 40.252 501.805 39.8535 502.035 39.4941C502.27 39.1348 502.594 38.8555 503.008 38.6562C503.426 38.4531 503.893 38.3516 504.408 38.3516C505.26 38.3516 505.928 38.5664 506.412 38.9961C506.9 39.4219 507.145 40.0156 507.145 40.7773C507.145 41.1602 507.021 41.5215 506.775 41.8613C506.533 42.1973 506.219 42.4512 505.832 42.623C506.301 42.7832 506.656 43.0352 506.898 43.3789C507.145 43.7227 507.268 44.1328 507.268 44.6094C507.268 45.375 507.004 45.9844 506.477 46.4375C505.953 46.8906 505.264 47.1172 504.408 47.1172C503.588 47.1172 502.916 46.8984 502.393 46.4609C501.869 46.0234 501.607 45.4414 501.607 44.7148H503.031C503.031 45.0898 503.156 45.3945 503.406 45.6289C503.66 45.8633 504 45.9805 504.426 45.9805C504.867 45.9805 505.215 45.8633 505.469 45.6289C505.723 45.3945 505.85 45.0547 505.85 44.6094C505.85 44.1602 505.717 43.8145 505.451 43.5723C505.186 43.3301 504.791 43.209 504.268 43.209H503.43V42.084ZM512.641 43.4316C512.164 43.9355 511.607 44.1875 510.971 44.1875C510.221 44.1875 509.623 43.9258 509.178 43.4023C508.732 42.875 508.51 42.1836 508.51 41.3281C508.51 40.7656 508.623 40.2559 508.85 39.7988C509.076 39.3418 509.398 38.9863 509.816 38.7324C510.234 38.4785 510.719 38.3516 511.27 38.3516C512.129 38.3516 512.811 38.6719 513.314 39.3125C513.818 39.9531 514.07 40.8105 514.07 41.8848V42.2832C514.07 43.8223 513.723 44.9961 513.027 45.8047C512.332 46.6133 511.295 47.0234 509.916 47.0352H509.746V45.8574H509.951C510.791 45.8457 511.436 45.6445 511.885 45.2539C512.334 44.8594 512.586 44.252 512.641 43.4316ZM511.27 43.0742C511.555 43.0742 511.822 42.9922 512.072 42.8281C512.322 42.6641 512.516 42.4375 512.652 42.1484V41.5918C512.652 40.9629 512.523 40.457 512.266 40.0742C512.008 39.6914 511.674 39.5 511.264 39.5C510.854 39.5 510.525 39.6699 510.279 40.0098C510.037 40.3457 509.916 40.7715 509.916 41.2871C509.916 41.8223 510.039 42.2539 510.285 42.582C510.531 42.9102 510.859 43.0742 511.27 43.0742ZM519.854 38.4277V39.6055H519.678C518.881 39.6172 518.244 39.8359 517.768 40.2617C517.291 40.6875 517.008 41.291 516.918 42.0723C517.375 41.5918 517.959 41.3516 518.67 41.3516C519.424 41.3516 520.018 41.6172 520.451 42.1484C520.889 42.6797 521.107 43.3652 521.107 44.2051C521.107 45.0723 520.852 45.7754 520.34 46.3145C519.832 46.8496 519.164 47.1172 518.336 47.1172C517.484 47.1172 516.793 46.8027 516.262 46.1738C515.734 45.5449 515.471 44.7207 515.471 43.7012V43.2148C515.471 41.7188 515.834 40.5469 516.561 39.6992C517.291 38.8516 518.34 38.4277 519.707 38.4277H519.854ZM518.324 42.5C518.012 42.5 517.725 42.5879 517.463 42.7637C517.205 42.9395 517.016 43.1738 516.895 43.4668V43.9004C516.895 44.5332 517.027 45.0371 517.293 45.4121C517.559 45.7832 517.902 45.9688 518.324 45.9688C518.746 45.9688 519.08 45.8105 519.326 45.4941C519.572 45.1777 519.695 44.7617 519.695 44.2461C519.695 43.7305 519.57 43.3105 519.32 42.9863C519.07 42.6621 518.738 42.5 518.324 42.5ZM527.805 43.4082C527.805 44.6348 527.574 45.5605 527.113 46.1855C526.656 46.8066 525.959 47.1172 525.021 47.1172C524.1 47.1172 523.404 46.8145 522.936 46.209C522.471 45.5996 522.232 44.6992 522.221 43.5078V42.0312C522.221 40.8047 522.449 39.8848 522.906 39.2715C523.367 38.6582 524.068 38.3516 525.01 38.3516C525.943 38.3516 526.639 38.6504 527.096 39.248C527.557 39.8457 527.793 40.7402 527.805 41.9316V43.4082ZM526.381 41.8145C526.381 41.0137 526.271 40.4277 526.053 40.0566C525.834 39.6816 525.486 39.4941 525.01 39.4941C524.545 39.4941 524.203 39.6719 523.984 40.0273C523.766 40.3789 523.65 40.9297 523.639 41.6797V43.6133C523.639 44.4102 523.75 45.0039 523.973 45.3945C524.195 45.7852 524.545 45.9805 525.021 45.9805C525.479 45.9805 525.816 45.8008 526.035 45.4414C526.254 45.0781 526.369 44.5117 526.381 43.7422V41.8145ZM534.625 43.4082C534.625 44.6348 534.395 45.5605 533.934 46.1855C533.477 46.8066 532.779 47.1172 531.842 47.1172C530.92 47.1172 530.225 46.8145 529.756 46.209C529.291 45.5996 529.053 44.6992 529.041 43.5078V42.0312C529.041 40.8047 529.27 39.8848 529.727 39.2715C530.188 38.6582 530.889 38.3516 531.83 38.3516C532.764 38.3516 533.459 38.6504 533.916 39.248C534.377 39.8457 534.613 40.7402 534.625 41.9316V43.4082ZM533.201 41.8145C533.201 41.0137 533.092 40.4277 532.873 40.0566C532.654 39.6816 532.307 39.4941 531.83 39.4941C531.365 39.4941 531.023 39.6719 530.805 40.0273C530.586 40.3789 530.471 40.9297 530.459 41.6797V43.6133C530.459 44.4102 530.57 45.0039 530.793 45.3945C531.016 45.7852 531.365 45.9805 531.842 45.9805C532.299 45.9805 532.637 45.8008 532.855 45.4414C533.074 45.0781 533.189 44.5117 533.201 43.7422V41.8145Z" fill="white"/>
<rect x="468" y="106" width="87" height="87" rx="20" fill="#F6323E"/>
<path d="M491.213 150.598H489.9L489.455 153H488.471L488.916 150.598H487.562V149.672H489.092L489.432 147.838H488.008V146.906H489.607L490.064 144.469H491.043L490.586 146.906H491.904L492.361 144.469H493.34L492.883 146.906H494.102V147.838H492.707L492.367 149.672H493.662V150.598H492.191L491.746 153H490.768L491.213 150.598ZM490.076 149.672H491.389L491.729 147.838H490.416L490.076 149.672ZM500.107 149.385H496.674V153H495.191V144.469H500.611V145.664H496.674V148.201H500.107V149.385ZM505.99 144.428V145.605H505.814C505.018 145.617 504.381 145.836 503.904 146.262C503.428 146.688 503.145 147.291 503.055 148.072C503.512 147.592 504.096 147.352 504.807 147.352C505.561 147.352 506.154 147.617 506.588 148.148C507.025 148.68 507.244 149.365 507.244 150.205C507.244 151.072 506.988 151.775 506.477 152.314C505.969 152.85 505.301 153.117 504.473 153.117C503.621 153.117 502.93 152.803 502.398 152.174C501.871 151.545 501.607 150.721 501.607 149.701V149.215C501.607 147.719 501.971 146.547 502.697 145.699C503.428 144.852 504.477 144.428 505.844 144.428H505.99ZM504.461 148.5C504.148 148.5 503.861 148.588 503.6 148.764C503.342 148.939 503.152 149.174 503.031 149.467V149.9C503.031 150.533 503.164 151.037 503.43 151.412C503.695 151.783 504.039 151.969 504.461 151.969C504.883 151.969 505.217 151.811 505.463 151.494C505.709 151.178 505.832 150.762 505.832 150.246C505.832 149.73 505.707 149.311 505.457 148.986C505.207 148.662 504.875 148.5 504.461 148.5ZM510.027 148.084H510.895C511.332 148.08 511.678 147.967 511.932 147.744C512.189 147.521 512.318 147.199 512.318 146.777C512.318 146.371 512.211 146.057 511.996 145.834C511.785 145.607 511.461 145.494 511.023 145.494C510.641 145.494 510.326 145.605 510.08 145.828C509.834 146.047 509.711 146.334 509.711 146.689H508.287C508.287 146.252 508.402 145.854 508.633 145.494C508.867 145.135 509.191 144.855 509.605 144.656C510.023 144.453 510.49 144.352 511.006 144.352C511.857 144.352 512.525 144.566 513.01 144.996C513.498 145.422 513.742 146.016 513.742 146.777C513.742 147.16 513.619 147.521 513.373 147.861C513.131 148.197 512.816 148.451 512.43 148.623C512.898 148.783 513.254 149.035 513.496 149.379C513.742 149.723 513.865 150.133 513.865 150.609C513.865 151.375 513.602 151.984 513.074 152.438C512.551 152.891 511.861 153.117 511.006 153.117C510.186 153.117 509.514 152.898 508.99 152.461C508.467 152.023 508.205 151.441 508.205 150.715H509.629C509.629 151.09 509.754 151.395 510.004 151.629C510.258 151.863 510.598 151.98 511.023 151.98C511.465 151.98 511.812 151.863 512.066 151.629C512.32 151.395 512.447 151.055 512.447 150.609C512.447 150.16 512.314 149.814 512.049 149.572C511.783 149.33 511.389 149.209 510.865 149.209H510.027V148.084ZM520.938 153H515.201V152.021L518.043 148.922C518.453 148.465 518.744 148.084 518.916 147.779C519.092 147.471 519.18 147.162 519.18 146.854C519.18 146.447 519.064 146.119 518.834 145.869C518.607 145.619 518.301 145.494 517.914 145.494C517.453 145.494 517.096 145.635 516.842 145.916C516.588 146.197 516.461 146.582 516.461 147.07H515.037C515.037 146.551 515.154 146.084 515.389 145.67C515.627 145.252 515.965 144.928 516.402 144.697C516.844 144.467 517.352 144.352 517.926 144.352C518.754 144.352 519.406 144.561 519.883 144.979C520.363 145.393 520.604 145.967 520.604 146.701C520.604 147.127 520.482 147.574 520.24 148.043C520.002 148.508 519.609 149.037 519.062 149.631L516.977 151.863H520.938V153ZM523.668 148.084H524.535C524.973 148.08 525.318 147.967 525.572 147.744C525.83 147.521 525.959 147.199 525.959 146.777C525.959 146.371 525.852 146.057 525.637 145.834C525.426 145.607 525.102 145.494 524.664 145.494C524.281 145.494 523.967 145.605 523.721 145.828C523.475 146.047 523.352 146.334 523.352 146.689H521.928C521.928 146.252 522.043 145.854 522.273 145.494C522.508 145.135 522.832 144.855 523.246 144.656C523.664 144.453 524.131 144.352 524.646 144.352C525.498 144.352 526.166 144.566 526.65 144.996C527.139 145.422 527.383 146.016 527.383 146.777C527.383 147.16 527.26 147.521 527.014 147.861C526.771 148.197 526.457 148.451 526.07 148.623C526.539 148.783 526.895 149.035 527.137 149.379C527.383 149.723 527.506 150.133 527.506 150.609C527.506 151.375 527.242 151.984 526.715 152.438C526.191 152.891 525.502 153.117 524.646 153.117C523.826 153.117 523.154 152.898 522.631 152.461C522.107 152.023 521.846 151.441 521.846 150.715H523.27C523.27 151.09 523.395 151.395 523.645 151.629C523.898 151.863 524.238 151.98 524.664 151.98C525.105 151.98 525.453 151.863 525.707 151.629C525.961 151.395 526.088 151.055 526.088 150.609C526.088 150.16 525.955 149.814 525.689 149.572C525.424 149.33 525.029 149.209 524.506 149.209H523.668V148.084ZM534.057 149.191H530.553V151.816H534.648V153H529.07V144.469H534.607V145.664H530.553V148.02H534.057V149.191Z" fill="white"/>
<path d="M201.213 44.5977H199.9L199.455 47H198.471L198.916 44.5977H197.562V43.6719H199.092L199.432 41.8379H198.008V40.9062H199.607L200.064 38.4688H201.043L200.586 40.9062H201.904L202.361 38.4688H203.34L202.883 40.9062H204.102V41.8379H202.707L202.367 43.6719H203.662V44.5977H202.191L201.746 47H200.768L201.213 44.5977ZM200.076 43.6719H201.389L201.729 41.8379H200.416L200.076 43.6719ZM210.523 43.4082C210.523 44.6348 210.293 45.5605 209.832 46.1855C209.375 46.8066 208.678 47.1172 207.74 47.1172C206.818 47.1172 206.123 46.8145 205.654 46.209C205.189 45.5996 204.951 44.6992 204.939 43.5078V42.0312C204.939 40.8047 205.168 39.8848 205.625 39.2715C206.086 38.6582 206.787 38.3516 207.729 38.3516C208.662 38.3516 209.357 38.6504 209.814 39.248C210.275 39.8457 210.512 40.7402 210.523 41.9316V43.4082ZM209.1 41.8145C209.1 41.0137 208.99 40.4277 208.771 40.0566C208.553 39.6816 208.205 39.4941 207.729 39.4941C207.264 39.4941 206.922 39.6719 206.703 40.0273C206.484 40.3789 206.369 40.9297 206.357 41.6797V43.6133C206.357 44.4102 206.469 45.0039 206.691 45.3945C206.914 45.7852 207.264 45.9805 207.74 45.9805C208.197 45.9805 208.535 45.8008 208.754 45.4414C208.973 45.0781 209.088 44.5117 209.1 43.7422V41.8145ZM217.344 43.4082C217.344 44.6348 217.113 45.5605 216.652 46.1855C216.195 46.8066 215.498 47.1172 214.561 47.1172C213.639 47.1172 212.943 46.8145 212.475 46.209C212.01 45.5996 211.771 44.6992 211.76 43.5078V42.0312C211.76 40.8047 211.988 39.8848 212.445 39.2715C212.906 38.6582 213.607 38.3516 214.549 38.3516C215.482 38.3516 216.178 38.6504 216.635 39.248C217.096 39.8457 217.332 40.7402 217.344 41.9316V43.4082ZM215.92 41.8145C215.92 41.0137 215.811 40.4277 215.592 40.0566C215.373 39.6816 215.025 39.4941 214.549 39.4941C214.084 39.4941 213.742 39.6719 213.523 40.0273C213.305 40.3789 213.189 40.9297 213.178 41.6797V43.6133C213.178 44.4102 213.289 45.0039 213.512 45.3945C213.734 45.7852 214.084 45.9805 214.561 45.9805C215.018 45.9805 215.355 45.8008 215.574 45.4414C215.793 45.0781 215.908 44.5117 215.92 43.7422V41.8145ZM222.459 47H221.041V40.1504L218.949 40.8652V39.6641L222.277 38.4395H222.459V47ZM225.652 47V38.4688H228.172C228.926 38.4688 229.594 38.6367 230.176 38.9727C230.762 39.3086 231.215 39.7852 231.535 40.4023C231.855 41.0195 232.016 41.7266 232.016 42.5234V42.9512C232.016 43.7598 231.854 44.4707 231.529 45.084C231.209 45.6973 230.75 46.1699 230.152 46.502C229.559 46.834 228.877 47 228.107 47H225.652ZM227.135 39.6641V45.8164H228.102C228.879 45.8164 229.475 45.5742 229.889 45.0898C230.307 44.6016 230.52 43.9023 230.527 42.9922V42.5176C230.527 41.5918 230.326 40.8848 229.924 40.3965C229.521 39.9082 228.938 39.6641 228.172 39.6641H227.135ZM233.645 42.7695L234.107 38.4688H238.689V39.6992H235.291L235.057 41.7383C235.451 41.5117 235.896 41.3984 236.393 41.3984C237.205 41.3984 237.836 41.6582 238.285 42.1777C238.738 42.6973 238.965 43.3965 238.965 44.2754C238.965 45.1426 238.715 45.834 238.215 46.3496C237.715 46.8613 237.029 47.1172 236.158 47.1172C235.377 47.1172 234.729 46.8965 234.213 46.4551C233.701 46.0098 233.424 45.4238 233.381 44.6973H234.758C234.812 45.1113 234.961 45.4297 235.203 45.6523C235.445 45.8711 235.762 45.9805 236.152 45.9805C236.59 45.9805 236.93 45.8242 237.172 45.5117C237.418 45.1992 237.541 44.7734 237.541 44.2344C237.541 43.7148 237.406 43.3047 237.137 43.0039C236.867 42.6992 236.496 42.5469 236.023 42.5469C235.766 42.5469 235.547 42.582 235.367 42.6523C235.188 42.7188 234.992 42.8516 234.781 43.0508L233.645 42.7695ZM243.939 47H242.521V40.1504L240.43 40.8652V39.6641L243.758 38.4395H243.939V47Z" fill="#F7F7F7"/>
<path d="M347.482 90.5977H345.936L345.467 93H344.629L345.098 90.5977H343.697V89.7949H345.25L345.654 87.7207H344.143V86.9062H345.812L346.293 84.4688H347.131L346.65 86.9062H348.197L348.678 84.4688H349.521L349.041 86.9062H350.236V87.7207H348.883L348.479 89.7949H349.797V90.5977H348.326L347.857 93H347.014L347.482 90.5977ZM346.088 89.7949H347.635L348.039 87.7207H346.492L346.088 89.7949ZM356.09 89.2324H352.51V93H351.385V84.4688H356.67V85.3945H352.51V88.3125H356.09V89.2324ZM363.244 85.0781L359.711 93H358.574L362.096 85.3594H357.479V84.4688H363.244V85.0781ZM369.461 89.2324H365.881V93H364.756V84.4688H370.041V85.3945H365.881V88.3125H369.461V89.2324ZM376.615 85.0781L373.082 93H371.945L375.467 85.3594H370.85V84.4688H376.615V85.0781ZM382.832 89.2324H379.252V93H378.127V84.4688H383.412V85.3945H379.252V88.3125H382.832V89.2324ZM389.986 85.0781L386.453 93H385.316L388.838 85.3594H384.221V84.4688H389.986V85.0781Z" fill="black"/>
<path d="M200.482 150.598H198.936L198.467 153H197.629L198.098 150.598H196.697V149.795H198.25L198.654 147.721H197.143V146.906H198.812L199.293 144.469H200.131L199.65 146.906H201.197L201.678 144.469H202.521L202.041 146.906H203.236V147.721H201.883L201.479 149.795H202.797V150.598H201.326L200.857 153H200.014L200.482 150.598ZM199.088 149.795H200.635L201.039 147.721H199.492L199.088 149.795ZM204.385 153V144.469H206.793C207.535 144.469 208.191 144.633 208.762 144.961C209.332 145.289 209.771 145.756 210.08 146.361C210.393 146.967 210.551 147.662 210.555 148.447V148.992C210.555 149.797 210.398 150.502 210.086 151.107C209.777 151.713 209.334 152.178 208.756 152.502C208.182 152.826 207.512 152.992 206.746 153H204.385ZM205.51 145.395V152.08H206.693C207.561 152.08 208.234 151.811 208.715 151.271C209.199 150.732 209.441 149.965 209.441 148.969V148.471C209.441 147.502 209.213 146.75 208.756 146.215C208.303 145.676 207.658 145.402 206.822 145.395H205.51ZM217.082 149.057H213.385V152.08H217.68V153H212.26V144.469H217.621V145.395H213.385V148.137H217.082V149.057ZM219.08 153V144.469H221.488C222.23 144.469 222.887 144.633 223.457 144.961C224.027 145.289 224.467 145.756 224.775 146.361C225.088 146.967 225.246 147.662 225.25 148.447V148.992C225.25 149.797 225.094 150.502 224.781 151.107C224.473 151.713 224.029 152.178 223.451 152.502C222.877 152.826 222.207 152.992 221.441 153H219.08ZM220.205 145.395V152.08H221.389C222.256 152.08 222.93 151.811 223.41 151.271C223.895 150.732 224.137 149.965 224.137 148.969V148.471C224.137 147.502 223.908 146.75 223.451 146.215C222.998 145.676 222.354 145.402 221.518 145.395H220.205ZM231.777 149.057H228.08V152.08H232.375V153H226.955V144.469H232.316V145.395H228.08V148.137H231.777V149.057ZM233.775 153V144.469H236.184C236.926 144.469 237.582 144.633 238.152 144.961C238.723 145.289 239.162 145.756 239.471 146.361C239.783 146.967 239.941 147.662 239.945 148.447V148.992C239.945 149.797 239.789 150.502 239.477 151.107C239.168 151.713 238.725 152.178 238.146 152.502C237.572 152.826 236.902 152.992 236.137 153H233.775ZM234.9 145.395V152.08H236.084C236.951 152.08 237.625 151.811 238.105 151.271C238.59 150.732 238.832 149.965 238.832 148.969V148.471C238.832 147.502 238.604 146.75 238.146 146.215C237.693 145.676 237.049 145.402 236.213 145.395H234.9ZM246.473 149.057H242.775V152.08H247.07V153H241.65V144.469H247.012V145.395H242.775V148.137H246.473V149.057Z" fill="black"/>
<rect y="11" width="155" height="155" rx="20" fill="#003087"/>
<path d="M57.2129 90.5977H55.9004L55.4551 93H54.4707L54.916 90.5977H53.5625V89.6719H55.0918L55.4316 87.8379H54.0078V86.9062H55.6074L56.0645 84.4688H57.043L56.5859 86.9062H57.9043L58.3613 84.4688H59.3398L58.8828 86.9062H60.1016V87.8379H58.707L58.3672 89.6719H59.6621V90.5977H58.1914L57.7461 93H56.7676L57.2129 90.5977ZM56.0762 89.6719H57.3887L57.7285 87.8379H56.416L56.0762 89.6719ZM66.5234 89.4082C66.5234 90.6348 66.293 91.5605 65.832 92.1855C65.375 92.8066 64.6777 93.1172 63.7402 93.1172C62.8184 93.1172 62.123 92.8145 61.6543 92.209C61.1895 91.5996 60.9512 90.6992 60.9395 89.5078V88.0312C60.9395 86.8047 61.168 85.8848 61.625 85.2715C62.0859 84.6582 62.7871 84.3516 63.7285 84.3516C64.6621 84.3516 65.3574 84.6504 65.8145 85.248C66.2754 85.8457 66.5117 86.7402 66.5234 87.9316V89.4082ZM65.0996 87.8145C65.0996 87.0137 64.9902 86.4277 64.7715 86.0566C64.5527 85.6816 64.2051 85.4941 63.7285 85.4941C63.2637 85.4941 62.9219 85.6719 62.7031 86.0273C62.4844 86.3789 62.3691 86.9297 62.3574 87.6797V89.6133C62.3574 90.4102 62.4688 91.0039 62.6914 91.3945C62.9141 91.7852 63.2637 91.9805 63.7402 91.9805C64.1973 91.9805 64.5352 91.8008 64.7539 91.4414C64.9727 91.0781 65.0879 90.5117 65.0996 89.7422V87.8145ZM73.3438 89.4082C73.3438 90.6348 73.1133 91.5605 72.6523 92.1855C72.1953 92.8066 71.498 93.1172 70.5605 93.1172C69.6387 93.1172 68.9434 92.8145 68.4746 92.209C68.0098 91.5996 67.7715 90.6992 67.7598 89.5078V88.0312C67.7598 86.8047 67.9883 85.8848 68.4453 85.2715C68.9062 84.6582 69.6074 84.3516 70.5488 84.3516C71.4824 84.3516 72.1777 84.6504 72.6348 85.248C73.0957 85.8457 73.332 86.7402 73.3438 87.9316V89.4082ZM71.9199 87.8145C71.9199 87.0137 71.8105 86.4277 71.5918 86.0566C71.373 85.6816 71.0254 85.4941 70.5488 85.4941C70.084 85.4941 69.7422 85.6719 69.5234 86.0273C69.3047 86.3789 69.1895 86.9297 69.1777 87.6797V89.6133C69.1777 90.4102 69.2891 91.0039 69.5117 91.3945C69.7344 91.7852 70.084 91.9805 70.5605 91.9805C71.0176 91.9805 71.3555 91.8008 71.5742 91.4414C71.793 91.0781 71.9082 90.5117 71.9199 89.7422V87.8145ZM76.25 88.084H77.1172C77.5547 88.0801 77.9004 87.9668 78.1543 87.7441C78.4121 87.5215 78.541 87.1992 78.541 86.7773C78.541 86.3711 78.4336 86.0566 78.2188 85.834C78.0078 85.6074 77.6836 85.4941 77.2461 85.4941C76.8633 85.4941 76.5488 85.6055 76.3027 85.8281C76.0566 86.0469 75.9336 86.334 75.9336 86.6895H74.5098C74.5098 86.252 74.625 85.8535 74.8555 85.4941C75.0898 85.1348 75.4141 84.8555 75.8281 84.6562C76.2461 84.4531 76.7129 84.3516 77.2285 84.3516C78.0801 84.3516 78.748 84.5664 79.2324 84.9961C79.7207 85.4219 79.9648 86.0156 79.9648 86.7773C79.9648 87.1602 79.8418 87.5215 79.5957 87.8613C79.3535 88.1973 79.0391 88.4512 78.6523 88.623C79.1211 88.7832 79.4766 89.0352 79.7188 89.3789C79.9648 89.7227 80.0879 90.1328 80.0879 90.6094C80.0879 91.375 79.8242 91.9844 79.2969 92.4375C78.7734 92.8906 78.084 93.1172 77.2285 93.1172C76.4082 93.1172 75.7363 92.8984 75.2129 92.4609C74.6895 92.0234 74.4277 91.4414 74.4277 90.7148H75.8516C75.8516 91.0898 75.9766 91.3945 76.2266 91.6289C76.4805 91.8633 76.8203 91.9805 77.2461 91.9805C77.6875 91.9805 78.0352 91.8633 78.2891 91.6289C78.543 91.3945 78.6699 91.0547 78.6699 90.6094C78.6699 90.1602 78.5371 89.8145 78.2715 89.5723C78.0059 89.3301 77.6113 89.209 77.0879 89.209H76.25V88.084ZM86.9844 89.4082C86.9844 90.6348 86.7539 91.5605 86.293 92.1855C85.8359 92.8066 85.1387 93.1172 84.2012 93.1172C83.2793 93.1172 82.584 92.8145 82.1152 92.209C81.6504 91.5996 81.4121 90.6992 81.4004 89.5078V88.0312C81.4004 86.8047 81.6289 85.8848 82.0859 85.2715C82.5469 84.6582 83.248 84.3516 84.1895 84.3516C85.123 84.3516 85.8184 84.6504 86.2754 85.248C86.7363 85.8457 86.9727 86.7402 86.9844 87.9316V89.4082ZM85.5605 87.8145C85.5605 87.0137 85.4512 86.4277 85.2324 86.0566C85.0137 85.6816 84.666 85.4941 84.1895 85.4941C83.7246 85.4941 83.3828 85.6719 83.1641 86.0273C82.9453 86.3789 82.8301 86.9297 82.8184 87.6797V89.6133C82.8184 90.4102 82.9297 91.0039 83.1523 91.3945C83.375 91.7852 83.7246 91.9805 84.2012 91.9805C84.6582 91.9805 84.9961 91.8008 85.2148 91.4414C85.4336 91.0781 85.5488 90.5117 85.5605 89.7422V87.8145ZM93.6172 86.7188C93.6172 87.1367 93.5098 87.5098 93.2949 87.8379C93.0801 88.1621 92.7871 88.418 92.416 88.6055C92.8613 88.8125 93.2031 89.0957 93.4414 89.4551C93.6836 89.8145 93.8047 90.2207 93.8047 90.6738C93.8047 91.4238 93.5508 92.0195 93.043 92.4609C92.5352 92.8984 91.8594 93.1172 91.0156 93.1172C90.168 93.1172 89.4883 92.8965 88.9766 92.4551C88.4688 92.0137 88.2148 91.4199 88.2148 90.6738C88.2148 90.2168 88.3359 89.8066 88.5781 89.4434C88.8203 89.0801 89.1602 88.8008 89.5977 88.6055C89.2305 88.418 88.9395 88.1621 88.7246 87.8379C88.5137 87.5098 88.4082 87.1367 88.4082 86.7188C88.4082 85.9922 88.6426 85.416 89.1113 84.9902C89.5801 84.5645 90.2129 84.3516 91.0098 84.3516C91.8105 84.3516 92.4453 84.5645 92.9141 84.9902C93.3828 85.416 93.6172 85.9922 93.6172 86.7188ZM92.3809 90.6035C92.3809 90.1816 92.2539 89.8418 92 89.584C91.75 89.3223 91.418 89.1914 91.0039 89.1914C90.5898 89.1914 90.2578 89.3203 90.0078 89.5781C89.7617 89.8359 89.6387 90.1777 89.6387 90.6035C89.6387 91.0215 89.7598 91.3555 90.002 91.6055C90.248 91.8555 90.5859 91.9805 91.0156 91.9805C91.4453 91.9805 91.7793 91.8594 92.0176 91.6172C92.2598 91.375 92.3809 91.0371 92.3809 90.6035ZM92.1992 86.7715C92.1992 86.4004 92.0918 86.0957 91.877 85.8574C91.6621 85.6152 91.373 85.4941 91.0098 85.4941C90.6465 85.4941 90.3594 85.6094 90.1484 85.8398C89.9375 86.0664 89.832 86.377 89.832 86.7715C89.832 87.1621 89.9375 87.4727 90.1484 87.7031C90.3633 87.9336 90.6523 88.0488 91.0156 88.0488C91.3789 88.0488 91.666 87.9336 91.877 87.7031C92.0918 87.4727 92.1992 87.1621 92.1992 86.7715ZM100.742 85.2598L97.332 93H95.8379L99.2422 85.6113H94.8301V84.4688H100.742V85.2598Z" fill="#F7F7F7"/>
</svg>
