<svg id="Layer_1" data-name="Layer 1" xmlns="http://www.w3.org/2000/svg" xmlns:xlink="http://www.w3.org/1999/xlink" viewBox="0 0 356.25 80"><defs><style>.cls-1{fill:none;}.cls-2{clip-path:url(#clip-path);}.cls-3{fill:#eae8e8;}.cls-4{fill:#e9a622;}.cls-5{fill:#c54f26;}.cls-6{fill:#6a0e0e;}.cls-7{fill:#0e2213;}.cls-12,.cls-8{font-size:12px;font-family:Ubuntu;}.cls-8{fill:#0e2113;}.cls-9{letter-spacing:0.02em;}.cls-10{letter-spacing:0.02em;}.cls-11{letter-spacing:0.03em;}.cls-12{fill:#e9a722;}</style><clipPath id="clip-path" transform="translate(-1 -1)"><rect class="cls-1" x="1" y="1" width="383.62" height="80"/></clipPath></defs><g class="cls-2"><path class="cls-3" d="M41,81A40,40,0,1,0,1,41,40,40,0,0,0,41,81" transform="translate(-1 -1)"/><path class="cls-4" d="M110,81A40,40,0,1,0,70,41a40,40,0,0,0,40,40" transform="translate(-1 -1)"/><path class="cls-5" d="M177,81a40,40,0,1,0-40-40,40,40,0,0,0,40,40" transform="translate(-1 -1)"/><path class="cls-6" d="M246.71,81a40,40,0,1,0-40-40,40,40,0,0,0,40,40" transform="translate(-1 -1)"/><path class="cls-7" d="M317.25,81a40,40,0,1,0-40-40,40,40,0,0,0,40,40" transform="translate(-1 -1)"/></g><text class="cls-8" transform="translate(14 43.98)">#<tspan class="cls-9" x="8" y="0">E</tspan><tspan x="15.05" y="0">AE9E9</tspan></text><text class="cls-8" transform="translate(78.58 43.98)">#<tspan class="cls-10" x="8" y="0">E</tspan><tspan class="cls-11" x="15.06" y="0">A</tspan><tspan x="23.4" y="0">A81B</tspan></text><text class="cls-8" transform="translate(149 43.38)">#C95501</text><text class="cls-12" transform="translate(219.55 43.91)">#7D0000</text><text class="cls-12" transform="translate(290.64 43.91)">#012C0B</text></svg>