<svg width="179" height="130" viewBox="0 0 179 130" fill="none" xmlns="http://www.w3.org/2000/svg">
<path d="M8.256 23.36C7.168 23.36 6.224 23.192 5.424 22.856C4.624 22.52 3.968 22.064 3.456 21.488C2.944 20.896 2.56 20.2 2.304 19.4C2.064 18.6 1.944 17.736 1.944 16.808V6.368H4.272V16.544C4.272 18.208 4.64 19.416 5.376 20.168C6.112 20.92 7.072 21.296 8.256 21.296C8.848 21.296 9.384 21.208 9.864 21.032C10.36 20.84 10.784 20.552 11.136 20.168C11.488 19.784 11.76 19.296 11.952 18.704C12.144 18.096 12.24 17.376 12.24 16.544V6.368H14.568V16.808C14.568 17.736 14.44 18.6 14.184 19.4C13.944 20.2 13.56 20.896 13.032 21.488C12.52 22.064 11.864 22.52 11.064 22.856C10.28 23.192 9.344 23.36 8.256 23.36ZM20.6754 11.072C20.9474 10.896 21.3554 10.712 21.8994 10.52C22.4594 10.328 23.0994 10.232 23.8194 10.232C24.7154 10.232 25.5074 10.392 26.1954 10.712C26.8994 11.032 27.4914 11.48 27.9714 12.056C28.4514 12.632 28.8114 13.32 29.0514 14.12C29.3074 14.92 29.4354 15.8 29.4354 16.76C29.4354 17.768 29.2834 18.68 28.9794 19.496C28.6914 20.296 28.2754 20.976 27.7314 21.536C27.1874 22.096 26.5314 22.528 25.7634 22.832C24.9954 23.136 24.1314 23.288 23.1714 23.288C22.1314 23.288 21.2114 23.216 20.4114 23.072C19.6114 22.928 18.9554 22.784 18.4434 22.64V4.76L20.6754 4.376V11.072ZM20.6754 21.056C20.8994 21.12 21.2114 21.184 21.6114 21.248C22.0274 21.296 22.5394 21.32 23.1474 21.32C24.3474 21.32 25.3074 20.928 26.0274 20.144C26.7474 19.344 27.1074 18.216 27.1074 16.76C27.1074 16.12 27.0434 15.52 26.9154 14.96C26.7874 14.4 26.5794 13.92 26.2914 13.52C26.0034 13.104 25.6274 12.784 25.1634 12.56C24.7154 12.32 24.1714 12.2 23.5314 12.2C22.9234 12.2 22.3634 12.304 21.8514 12.512C21.3394 12.72 20.9474 12.936 20.6754 13.16V21.056ZM42.5123 22.64C42.0003 22.768 41.3203 22.904 40.4723 23.048C39.6403 23.192 38.6723 23.264 37.5683 23.264C36.6083 23.264 35.8003 23.128 35.1443 22.856C34.4883 22.568 33.9603 22.168 33.5603 21.656C33.1603 21.144 32.8723 20.544 32.6963 19.856C32.5203 19.152 32.4323 18.376 32.4323 17.528V10.52H34.6643V17.048C34.6643 18.568 34.9043 19.656 35.3843 20.312C35.8643 20.968 36.6723 21.296 37.8083 21.296C38.0483 21.296 38.2963 21.288 38.5523 21.272C38.8083 21.256 39.0483 21.24 39.2723 21.224C39.4963 21.192 39.6963 21.168 39.8723 21.152C40.0643 21.12 40.2003 21.088 40.2803 21.056V10.52H42.5123V22.64ZM46.3575 10.88C46.8695 10.752 47.5495 10.616 48.3975 10.472C49.2455 10.328 50.2215 10.256 51.3255 10.256C52.3175 10.256 53.1415 10.4 53.7975 10.688C54.4535 10.96 54.9735 11.352 55.3575 11.864C55.7575 12.36 56.0375 12.96 56.1975 13.664C56.3575 14.368 56.4375 15.144 56.4375 15.992V23H54.2055V16.472C54.2055 15.704 54.1495 15.048 54.0375 14.504C53.9415 13.96 53.7735 13.52 53.5335 13.184C53.2935 12.848 52.9735 12.608 52.5735 12.464C52.1735 12.304 51.6775 12.224 51.0855 12.224C50.8455 12.224 50.5975 12.232 50.3415 12.248C50.0855 12.264 49.8375 12.288 49.5975 12.32C49.3735 12.336 49.1655 12.36 48.9735 12.392C48.7975 12.424 48.6695 12.448 48.5895 12.464V23H46.3575V10.88ZM62.2268 10.52H66.9548V12.392H62.2268V18.152C62.2268 18.776 62.2748 19.296 62.3708 19.712C62.4668 20.112 62.6108 20.432 62.8028 20.672C62.9948 20.896 63.2348 21.056 63.5228 21.152C63.8108 21.248 64.1468 21.296 64.5308 21.296C65.2028 21.296 65.7388 21.224 66.1388 21.08C66.5548 20.92 66.8428 20.808 67.0028 20.744L67.4348 22.592C67.2108 22.704 66.8188 22.84 66.2588 23C65.6988 23.176 65.0588 23.264 64.3388 23.264C63.4908 23.264 62.7868 23.16 62.2268 22.952C61.6828 22.728 61.2428 22.4 60.9068 21.968C60.5708 21.536 60.3308 21.008 60.1868 20.384C60.0588 19.744 59.9948 19.008 59.9948 18.176V7.04L62.2268 6.656V10.52ZM79.731 22.64C79.219 22.768 78.539 22.904 77.691 23.048C76.859 23.192 75.891 23.264 74.787 23.264C73.827 23.264 73.019 23.128 72.363 22.856C71.707 22.568 71.179 22.168 70.779 21.656C70.379 21.144 70.091 20.544 69.915 19.856C69.739 19.152 69.651 18.376 69.651 17.528V10.52H71.883V17.048C71.883 18.568 72.123 19.656 72.603 20.312C73.083 20.968 73.891 21.296 75.027 21.296C75.267 21.296 75.515 21.288 75.771 21.272C76.027 21.256 76.267 21.24 76.491 21.224C76.715 21.192 76.915 21.168 77.091 21.152C77.283 21.12 77.419 21.088 77.499 21.056V10.52H79.731V22.64ZM93.7389 10.256C93.9309 10.256 94.1469 10.272 94.3869 10.304C94.6429 10.32 94.8909 10.352 95.1309 10.4C95.3709 10.432 95.5869 10.472 95.7789 10.52C95.9869 10.552 96.1389 10.584 96.2349 10.616L95.8509 12.56C95.6749 12.496 95.3789 12.424 94.9629 12.344C94.5629 12.248 94.0429 12.2 93.4029 12.2C92.9869 12.2 92.5709 12.248 92.1549 12.344C91.7549 12.424 91.4909 12.48 91.3629 12.512V23H89.1309V11.048C89.6589 10.856 90.3149 10.68 91.0989 10.52C91.8829 10.344 92.7629 10.256 93.7389 10.256ZM97.6928 16.784C97.6928 15.68 97.8528 14.72 98.1728 13.904C98.4928 13.072 98.9168 12.384 99.4448 11.84C99.9728 11.296 100.581 10.888 101.269 10.616C101.957 10.344 102.661 10.208 103.381 10.208C105.061 10.208 106.349 10.736 107.245 11.792C108.141 12.832 108.589 14.424 108.589 16.568C108.589 16.664 108.589 16.792 108.589 16.952C108.589 17.096 108.581 17.232 108.565 17.36H100.021C100.117 18.656 100.493 19.64 101.149 20.312C101.805 20.984 102.829 21.32 104.221 21.32C105.005 21.32 105.661 21.256 106.189 21.128C106.733 20.984 107.141 20.848 107.413 20.72L107.725 22.592C107.453 22.736 106.973 22.888 106.285 23.048C105.613 23.208 104.845 23.288 103.981 23.288C102.893 23.288 101.949 23.128 101.149 22.808C100.365 22.472 99.7168 22.016 99.2048 21.44C98.6928 20.864 98.3088 20.184 98.0527 19.4C97.8128 18.6 97.6928 17.728 97.6928 16.784ZM106.261 15.56C106.277 14.552 106.021 13.728 105.493 13.088C104.981 12.432 104.269 12.104 103.357 12.104C102.845 12.104 102.389 12.208 101.989 12.416C101.605 12.608 101.277 12.864 101.005 13.184C100.733 13.504 100.517 13.872 100.357 14.288C100.213 14.704 100.117 15.128 100.069 15.56H106.261ZM119.619 21.752C119.427 21.88 119.051 22.048 118.491 22.256C117.947 22.448 117.307 22.544 116.571 22.544C115.819 22.544 115.107 22.424 114.435 22.184C113.779 21.944 113.203 21.576 112.707 21.08C112.211 20.568 111.819 19.936 111.531 19.184C111.243 18.432 111.099 17.536 111.099 16.496C111.099 15.584 111.235 14.752 111.507 14C111.779 13.232 112.171 12.576 112.683 12.032C113.211 11.472 113.851 11.04 114.603 10.736C115.355 10.416 116.203 10.256 117.147 10.256C118.187 10.256 119.091 10.336 119.859 10.496C120.643 10.64 121.299 10.776 121.827 10.904V22.04C121.827 23.96 121.331 25.352 120.339 26.216C119.347 27.08 117.843 27.512 115.827 27.512C115.043 27.512 114.299 27.448 113.595 27.32C112.907 27.192 112.307 27.04 111.795 26.864L112.203 24.92C112.651 25.096 113.195 25.248 113.835 25.376C114.491 25.52 115.171 25.592 115.875 25.592C117.203 25.592 118.155 25.328 118.731 24.8C119.323 24.272 119.619 23.432 119.619 22.28V21.752ZM119.595 12.488C119.371 12.424 119.067 12.368 118.683 12.32C118.315 12.256 117.811 12.224 117.171 12.224C115.971 12.224 115.043 12.616 114.387 13.4C113.747 14.184 113.427 15.224 113.427 16.52C113.427 17.24 113.515 17.856 113.691 18.368C113.883 18.88 114.131 19.304 114.435 19.64C114.755 19.976 115.115 20.224 115.515 20.384C115.931 20.544 116.355 20.624 116.787 20.624C117.379 20.624 117.923 20.544 118.419 20.384C118.915 20.208 119.307 20.008 119.595 19.784V12.488ZM135.606 22.64C135.094 22.768 134.414 22.904 133.566 23.048C132.734 23.192 131.766 23.264 130.662 23.264C129.702 23.264 128.894 23.128 128.238 22.856C127.582 22.568 127.054 22.168 126.654 21.656C126.254 21.144 125.966 20.544 125.79 19.856C125.614 19.152 125.526 18.376 125.526 17.528V10.52H127.758V17.048C127.758 18.568 127.998 19.656 128.478 20.312C128.958 20.968 129.766 21.296 130.902 21.296C131.142 21.296 131.39 21.288 131.646 21.272C131.902 21.256 132.142 21.24 132.366 21.224C132.59 21.192 132.79 21.168 132.966 21.152C133.158 21.12 133.294 21.088 133.374 21.056V10.52H135.606V22.64ZM143.195 23.24C141.819 23.208 140.843 22.912 140.267 22.352C139.691 21.792 139.403 20.92 139.403 19.736V4.76L141.635 4.376V19.376C141.635 19.744 141.667 20.048 141.731 20.288C141.795 20.528 141.899 20.72 142.043 20.864C142.187 21.008 142.379 21.12 142.619 21.2C142.859 21.264 143.155 21.32 143.507 21.368L143.195 23.24ZM150.238 21.392C150.766 21.392 151.23 21.384 151.63 21.368C152.046 21.336 152.39 21.288 152.662 21.224V17.504C152.502 17.424 152.238 17.36 151.87 17.312C151.518 17.248 151.086 17.216 150.574 17.216C150.238 17.216 149.878 17.24 149.494 17.288C149.126 17.336 148.782 17.44 148.462 17.6C148.158 17.744 147.902 17.952 147.694 18.224C147.486 18.48 147.382 18.824 147.382 19.256C147.382 20.056 147.638 20.616 148.15 20.936C148.662 21.24 149.358 21.392 150.238 21.392ZM150.046 10.208C150.942 10.208 151.694 10.328 152.302 10.568C152.926 10.792 153.422 11.12 153.79 11.552C154.174 11.968 154.446 12.472 154.606 13.064C154.766 13.64 154.846 14.28 154.846 14.984V22.784C154.654 22.816 154.382 22.864 154.03 22.928C153.694 22.976 153.31 23.024 152.878 23.072C152.446 23.12 151.974 23.16 151.462 23.192C150.966 23.24 150.47 23.264 149.974 23.264C149.27 23.264 148.622 23.192 148.03 23.048C147.438 22.904 146.926 22.68 146.494 22.376C146.062 22.056 145.726 21.64 145.486 21.128C145.246 20.616 145.126 20 145.126 19.28C145.126 18.592 145.262 18 145.534 17.504C145.822 17.008 146.206 16.608 146.686 16.304C147.166 16 147.726 15.776 148.366 15.632C149.006 15.488 149.678 15.416 150.382 15.416C150.606 15.416 150.838 15.432 151.078 15.464C151.318 15.48 151.542 15.512 151.75 15.56C151.974 15.592 152.166 15.624 152.326 15.656C152.486 15.688 152.598 15.712 152.662 15.728V15.104C152.662 14.736 152.622 14.376 152.542 14.024C152.462 13.656 152.318 13.336 152.11 13.064C151.902 12.776 151.614 12.552 151.246 12.392C150.894 12.216 150.43 12.128 149.854 12.128C149.118 12.128 148.47 12.184 147.91 12.296C147.366 12.392 146.958 12.496 146.686 12.608L146.422 10.76C146.71 10.632 147.19 10.512 147.862 10.4C148.534 10.272 149.262 10.208 150.046 10.208ZM163.161 10.256C163.353 10.256 163.569 10.272 163.809 10.304C164.065 10.32 164.313 10.352 164.553 10.4C164.793 10.432 165.009 10.472 165.201 10.52C165.409 10.552 165.561 10.584 165.657 10.616L165.273 12.56C165.097 12.496 164.801 12.424 164.385 12.344C163.985 12.248 163.465 12.2 162.825 12.2C162.409 12.2 161.993 12.248 161.577 12.344C161.177 12.424 160.913 12.48 160.785 12.512V23H158.553V11.048C159.081 10.856 159.737 10.68 160.521 10.52C161.305 10.344 162.185 10.256 163.161 10.256Z" fill="black"/>
<path d="M8.4 74.36C7.264 74.36 6.288 74.2 5.472 73.88C4.656 73.544 3.976 73.08 3.432 72.488C2.904 71.896 2.512 71.2 2.256 70.4C2 69.6 1.872 68.72 1.872 67.76V57.368H4.92V67.472C4.92 68.224 5 68.872 5.16 69.416C5.336 69.944 5.576 70.376 5.88 70.712C6.2 71.048 6.568 71.296 6.984 71.456C7.416 71.616 7.896 71.696 8.424 71.696C8.952 71.696 9.432 71.616 9.864 71.456C10.296 71.296 10.664 71.048 10.968 70.712C11.288 70.376 11.528 69.944 11.688 69.416C11.864 68.872 11.952 68.224 11.952 67.472V57.368H15V67.76C15 68.72 14.864 69.6 14.592 70.4C14.336 71.2 13.936 71.896 13.392 72.488C12.864 73.08 12.184 73.544 11.352 73.88C10.52 74.2 9.536 74.36 8.4 74.36ZM27.051 67.688C27.051 66.456 26.803 65.48 26.307 64.76C25.827 64.04 25.059 63.68 24.003 63.68C23.523 63.68 23.067 63.752 22.635 63.896C22.219 64.04 21.883 64.2 21.627 64.376V71.6C21.835 71.648 22.099 71.696 22.419 71.744C22.755 71.776 23.155 71.792 23.619 71.792C24.691 71.792 25.531 71.432 26.139 70.712C26.747 69.976 27.051 68.968 27.051 67.688ZM30.027 67.736C30.027 68.744 29.875 69.656 29.571 70.472C29.283 71.272 28.859 71.96 28.299 72.536C27.755 73.112 27.091 73.552 26.307 73.856C25.523 74.16 24.635 74.312 23.643 74.312C22.683 74.312 21.763 74.24 20.883 74.096C20.019 73.952 19.299 73.792 18.723 73.616V55.856L21.627 55.376V61.88C21.963 61.704 22.371 61.544 22.851 61.4C23.347 61.256 23.891 61.184 24.483 61.184C25.363 61.184 26.147 61.344 26.835 61.664C27.539 61.968 28.123 62.408 28.587 62.984C29.051 63.56 29.403 64.256 29.643 65.072C29.899 65.872 30.027 66.76 30.027 67.736ZM43.3159 73.616C42.7559 73.76 42.0279 73.904 41.1319 74.048C40.2359 74.208 39.2519 74.288 38.1799 74.288C37.1719 74.288 36.3239 74.144 35.6359 73.856C34.9639 73.568 34.4199 73.168 34.0039 72.656C33.6039 72.144 33.3159 71.536 33.1399 70.832C32.9639 70.112 32.8759 69.328 32.8759 68.48V61.448H35.7799V68.024C35.7799 69.368 35.9719 70.328 36.3559 70.904C36.7559 71.48 37.4439 71.768 38.4199 71.768C38.7719 71.768 39.1399 71.752 39.5239 71.72C39.9239 71.688 40.2199 71.648 40.4119 71.6V61.448H43.3159V73.616ZM47.0121 61.856C47.5721 61.696 48.3001 61.544 49.1961 61.4C50.0921 61.256 51.0841 61.184 52.1721 61.184C53.1961 61.184 54.0521 61.328 54.7401 61.616C55.4281 61.888 55.9721 62.28 56.3721 62.792C56.7881 63.288 57.0761 63.896 57.2361 64.616C57.4121 65.32 57.5001 66.096 57.5001 66.944V74H54.5961V67.4C54.5961 66.728 54.5481 66.16 54.4521 65.696C54.3721 65.216 54.2281 64.832 54.0201 64.544C53.8281 64.24 53.5561 64.024 53.2041 63.896C52.8681 63.752 52.4521 63.68 51.9561 63.68C51.5881 63.68 51.2041 63.704 50.8041 63.752C50.4041 63.8 50.1081 63.84 49.9161 63.872V74H47.0121V61.856ZM60.9071 58.136L63.8111 57.656V61.448H68.2751V63.872H63.8111V68.984C63.8111 69.992 63.9711 70.712 64.2911 71.144C64.6111 71.576 65.1551 71.792 65.9231 71.792C66.4511 71.792 66.9151 71.736 67.3151 71.624C67.7311 71.512 68.0591 71.408 68.2991 71.312L68.7791 73.616C68.4431 73.76 68.0031 73.904 67.4591 74.048C66.9151 74.208 66.2751 74.288 65.5391 74.288C64.6431 74.288 63.8911 74.168 63.2831 73.928C62.6911 73.688 62.2191 73.344 61.8671 72.896C61.5151 72.432 61.2671 71.88 61.1231 71.24C60.9791 70.584 60.9071 69.84 60.9071 69.008V58.136ZM81.3784 73.616C80.8184 73.76 80.0904 73.904 79.1944 74.048C78.2984 74.208 77.3144 74.288 76.2424 74.288C75.2344 74.288 74.3864 74.144 73.6984 73.856C73.0264 73.568 72.4824 73.168 72.0664 72.656C71.6664 72.144 71.3784 71.536 71.2024 70.832C71.0264 70.112 70.9384 69.328 70.9384 68.48V61.448H73.8424V68.024C73.8424 69.368 74.0344 70.328 74.4184 70.904C74.8184 71.48 75.5064 71.768 76.4824 71.768C76.8344 71.768 77.2024 71.752 77.5864 71.72C77.9864 71.688 78.2824 71.648 78.4744 71.6V61.448H81.3784V73.616ZM97.8281 67.4C97.8281 66.088 97.6601 65.144 97.3241 64.568C97.0041 63.976 96.3961 63.68 95.5001 63.68C95.1801 63.68 94.8281 63.704 94.4441 63.752C94.0601 63.8 93.7721 63.84 93.5801 63.872V74H90.6761V61.856C91.2361 61.696 91.9641 61.544 92.8601 61.4C93.7721 61.256 94.7321 61.184 95.7401 61.184C96.6041 61.184 97.3081 61.296 97.8521 61.52C98.4121 61.744 98.8761 62.04 99.2441 62.408C99.4201 62.28 99.6441 62.144 99.9161 62C100.188 61.856 100.492 61.728 100.828 61.616C101.164 61.488 101.516 61.384 101.884 61.304C102.268 61.224 102.652 61.184 103.036 61.184C104.012 61.184 104.812 61.328 105.436 61.616C106.076 61.888 106.572 62.28 106.924 62.792C107.292 63.288 107.54 63.896 107.668 64.616C107.812 65.32 107.884 66.096 107.884 66.944V74H104.98V67.4C104.98 66.088 104.82 65.144 104.5 64.568C104.18 63.976 103.564 63.68 102.652 63.68C102.188 63.68 101.748 63.76 101.332 63.92C100.916 64.064 100.604 64.208 100.396 64.352C100.524 64.752 100.612 65.176 100.66 65.624C100.708 66.072 100.732 66.552 100.732 67.064V74H97.8281V67.4ZM110.746 67.784C110.746 66.68 110.906 65.712 111.226 64.88C111.562 64.048 112.002 63.36 112.546 62.816C113.09 62.256 113.714 61.84 114.418 61.568C115.122 61.28 115.842 61.136 116.578 61.136C118.306 61.136 119.65 61.672 120.61 62.744C121.586 63.816 122.074 65.416 122.074 67.544C122.074 67.704 122.066 67.888 122.05 68.096C122.05 68.288 122.042 68.464 122.026 68.624H113.746C113.826 69.632 114.178 70.416 114.802 70.976C115.442 71.52 116.362 71.792 117.562 71.792C118.266 71.792 118.906 71.728 119.482 71.6C120.074 71.472 120.538 71.336 120.874 71.192L121.258 73.568C121.098 73.648 120.874 73.736 120.586 73.832C120.314 73.912 119.994 73.984 119.626 74.048C119.274 74.128 118.89 74.192 118.474 74.24C118.058 74.288 117.634 74.312 117.202 74.312C116.098 74.312 115.138 74.152 114.322 73.832C113.506 73.496 112.834 73.04 112.306 72.464C111.778 71.872 111.386 71.184 111.13 70.4C110.874 69.6 110.746 68.728 110.746 67.784ZM119.17 66.488C119.17 66.088 119.114 65.712 119.002 65.36C118.89 64.992 118.722 64.68 118.498 64.424C118.29 64.152 118.026 63.944 117.706 63.8C117.402 63.64 117.034 63.56 116.602 63.56C116.154 63.56 115.762 63.648 115.426 63.824C115.09 63.984 114.802 64.2 114.562 64.472C114.338 64.744 114.162 65.056 114.034 65.408C113.906 65.76 113.818 66.12 113.77 66.488H119.17ZM127.433 67.688C127.433 68.968 127.737 69.976 128.345 70.712C128.953 71.432 129.793 71.792 130.865 71.792C131.329 71.792 131.721 71.776 132.041 71.744C132.377 71.696 132.649 71.648 132.857 71.6V64.4C132.601 64.224 132.257 64.064 131.825 63.92C131.409 63.76 130.961 63.68 130.481 63.68C129.425 63.68 128.649 64.04 128.153 64.76C127.673 65.48 127.433 66.456 127.433 67.688ZM135.761 73.616C135.185 73.792 134.457 73.952 133.577 74.096C132.713 74.24 131.801 74.312 130.841 74.312C129.849 74.312 128.961 74.16 128.177 73.856C127.393 73.552 126.721 73.12 126.161 72.56C125.617 71.984 125.193 71.296 124.889 70.496C124.601 69.68 124.457 68.768 124.457 67.76C124.457 66.768 124.577 65.872 124.817 65.072C125.073 64.256 125.441 63.56 125.921 62.984C126.401 62.408 126.985 61.968 127.673 61.664C128.361 61.344 129.153 61.184 130.049 61.184C130.657 61.184 131.193 61.256 131.657 61.4C132.121 61.544 132.521 61.704 132.857 61.88V55.856L135.761 55.376V73.616ZM142.378 74H139.474V61.448H142.378V74ZM142.69 57.776C142.69 58.32 142.514 58.752 142.162 59.072C141.81 59.392 141.394 59.552 140.914 59.552C140.418 59.552 139.994 59.392 139.642 59.072C139.29 58.752 139.114 58.32 139.114 57.776C139.114 57.216 139.29 56.776 139.642 56.456C139.994 56.136 140.418 55.976 140.914 55.976C141.394 55.976 141.81 56.136 142.162 56.456C142.514 56.776 142.69 57.216 142.69 57.776ZM156.378 73.616C155.818 73.76 155.09 73.904 154.194 74.048C153.298 74.208 152.314 74.288 151.242 74.288C150.234 74.288 149.386 74.144 148.698 73.856C148.026 73.568 147.482 73.168 147.066 72.656C146.666 72.144 146.378 71.536 146.202 70.832C146.026 70.112 145.938 69.328 145.938 68.48V61.448H148.842V68.024C148.842 69.368 149.034 70.328 149.418 70.904C149.818 71.48 150.506 71.768 151.482 71.768C151.834 71.768 152.202 71.752 152.586 71.72C152.986 71.688 153.282 71.648 153.474 71.6V61.448H156.378V73.616ZM167.227 67.4C167.227 66.088 167.059 65.144 166.723 64.568C166.403 63.976 165.795 63.68 164.899 63.68C164.579 63.68 164.227 63.704 163.843 63.752C163.459 63.8 163.171 63.84 162.979 63.872V74H160.075V61.856C160.635 61.696 161.363 61.544 162.259 61.4C163.171 61.256 164.131 61.184 165.139 61.184C166.003 61.184 166.707 61.296 167.251 61.52C167.811 61.744 168.275 62.04 168.643 62.408C168.819 62.28 169.043 62.144 169.315 62C169.587 61.856 169.891 61.728 170.227 61.616C170.563 61.488 170.915 61.384 171.283 61.304C171.667 61.224 172.051 61.184 172.435 61.184C173.411 61.184 174.211 61.328 174.835 61.616C175.475 61.888 175.971 62.28 176.323 62.792C176.691 63.288 176.939 63.896 177.067 64.616C177.211 65.32 177.283 66.096 177.283 66.944V74H174.379V67.4C174.379 66.088 174.219 65.144 173.899 64.568C173.579 63.976 172.963 63.68 172.051 63.68C171.587 63.68 171.147 63.76 170.731 63.92C170.315 64.064 170.003 64.208 169.795 64.352C169.923 64.752 170.011 65.176 170.059 65.624C170.107 66.072 170.131 66.552 170.131 67.064V74H167.227V67.4Z" fill="black"/>
<path d="M8.424 125.336C7.256 125.336 6.248 125.176 5.4 124.856C4.552 124.52 3.848 124.064 3.288 123.488C2.744 122.896 2.336 122.2 2.064 121.4C1.808 120.584 1.68 119.688 1.68 118.712V108.368H5.424V118.4C5.424 119.072 5.496 119.648 5.64 120.128C5.8 120.592 6.008 120.976 6.264 121.28C6.536 121.568 6.856 121.776 7.224 121.904C7.608 122.032 8.024 122.096 8.472 122.096C9.384 122.096 10.12 121.816 10.68 121.256C11.256 120.696 11.544 119.744 11.544 118.4V108.368H15.288V118.712C15.288 119.688 15.152 120.584 14.88 121.4C14.608 122.216 14.192 122.92 13.632 123.512C13.072 124.088 12.36 124.536 11.496 124.856C10.632 125.176 9.608 125.336 8.424 125.336ZM26.7368 118.592C26.7368 116.288 25.8888 115.136 24.1928 115.136C23.8248 115.136 23.4568 115.184 23.0888 115.28C22.7368 115.376 22.4488 115.496 22.2248 115.64V122.144C22.4008 122.176 22.6248 122.208 22.8968 122.24C23.1688 122.256 23.4648 122.264 23.7848 122.264C24.7608 122.264 25.4968 121.928 25.9928 121.256C26.4888 120.584 26.7368 119.696 26.7368 118.592ZM30.3848 118.688C30.3848 119.696 30.2328 120.608 29.9288 121.424C29.6408 122.24 29.2168 122.936 28.6568 123.512C28.0968 124.088 27.4088 124.536 26.5928 124.856C25.7768 125.16 24.8488 125.312 23.8088 125.312C23.3768 125.312 22.9208 125.288 22.4408 125.24C21.9768 125.208 21.5128 125.16 21.0488 125.096C20.6008 125.032 20.1688 124.96 19.7528 124.88C19.3368 124.784 18.9688 124.688 18.6488 124.592V106.952L22.2248 106.376V112.664C22.6248 112.488 23.0408 112.352 23.4728 112.256C23.9048 112.16 24.3688 112.112 24.8648 112.112C25.7608 112.112 26.5528 112.272 27.2408 112.592C27.9288 112.896 28.5048 113.336 28.9688 113.912C29.4328 114.488 29.7848 115.184 30.0248 116C30.2648 116.8 30.3848 117.696 30.3848 118.688ZM43.9091 124.568C43.3011 124.744 42.5171 124.904 41.5571 125.048C40.5971 125.208 39.5891 125.288 38.5331 125.288C37.4611 125.288 36.5651 125.144 35.8451 124.856C35.1411 124.568 34.5811 124.168 34.1651 123.656C33.7491 123.128 33.4531 122.504 33.2771 121.784C33.1011 121.064 33.0131 120.272 33.0131 119.408V112.376H36.5891V118.976C36.5891 120.128 36.7411 120.96 37.0451 121.472C37.3491 121.984 37.9171 122.24 38.7491 122.24C39.0051 122.24 39.2771 122.232 39.5651 122.216C39.8531 122.184 40.1091 122.152 40.3331 122.12V112.376H43.9091V124.568ZM47.2659 112.808C47.8739 112.632 48.6579 112.472 49.6179 112.328C50.5779 112.168 51.5859 112.088 52.6419 112.088C53.7139 112.088 54.6019 112.232 55.3059 112.52C56.0259 112.792 56.5939 113.184 57.0099 113.696C57.4259 114.208 57.7219 114.816 57.8979 115.52C58.0739 116.224 58.1619 117.008 58.1619 117.872V125H54.5859V118.304C54.5859 117.152 54.4339 116.336 54.1299 115.856C53.8259 115.376 53.2579 115.136 52.4259 115.136C52.1699 115.136 51.8979 115.152 51.6099 115.184C51.3219 115.2 51.0659 115.224 50.8419 115.256V125H47.2659V112.808ZM61.2788 109.232L64.8548 108.656V112.376H69.1508V115.352H64.8548V119.792C64.8548 120.544 64.9828 121.144 65.2388 121.592C65.5108 122.04 66.0468 122.264 66.8468 122.264C67.2308 122.264 67.6228 122.232 68.0228 122.168C68.4388 122.088 68.8148 121.984 69.1508 121.856L69.6548 124.64C69.2228 124.816 68.7428 124.968 68.2148 125.096C67.6868 125.224 67.0388 125.288 66.2708 125.288C65.2948 125.288 64.4868 125.16 63.8468 124.904C63.2068 124.632 62.6948 124.264 62.3108 123.8C61.9268 123.32 61.6548 122.744 61.4948 122.072C61.3508 121.4 61.2788 120.656 61.2788 119.84V109.232ZM82.8388 124.568C82.2308 124.744 81.4468 124.904 80.4868 125.048C79.5268 125.208 78.5188 125.288 77.4628 125.288C76.3908 125.288 75.4948 125.144 74.7748 124.856C74.0708 124.568 73.5108 124.168 73.0948 123.656C72.6788 123.128 72.3828 122.504 72.2068 121.784C72.0308 121.064 71.9428 120.272 71.9428 119.408V112.376H75.5188V118.976C75.5188 120.128 75.6708 120.96 75.9748 121.472C76.2788 121.984 76.8468 122.24 77.6788 122.24C77.9348 122.24 78.2068 122.232 78.4948 122.216C78.7828 122.184 79.0388 122.152 79.2628 122.12V112.376H82.8388V124.568ZM100.049 118.592C100.049 116.288 99.2013 115.136 97.5053 115.136C97.1373 115.136 96.7693 115.184 96.4013 115.28C96.0493 115.376 95.7613 115.496 95.5373 115.64V122.144C95.7133 122.176 95.9373 122.208 96.2093 122.24C96.4813 122.256 96.7773 122.264 97.0973 122.264C98.0733 122.264 98.8093 121.928 99.3053 121.256C99.8013 120.584 100.049 119.696 100.049 118.592ZM103.697 118.688C103.697 119.696 103.545 120.608 103.241 121.424C102.953 122.24 102.529 122.936 101.969 123.512C101.409 124.088 100.721 124.536 99.9053 124.856C99.0893 125.16 98.1613 125.312 97.1213 125.312C96.6893 125.312 96.2333 125.288 95.7533 125.24C95.2893 125.208 94.8253 125.16 94.3613 125.096C93.9133 125.032 93.4813 124.96 93.0653 124.88C92.6493 124.784 92.2813 124.688 91.9613 124.592V106.952L95.5373 106.376V112.664C95.9373 112.488 96.3533 112.352 96.7853 112.256C97.2173 112.16 97.6813 112.112 98.1773 112.112C99.0733 112.112 99.8653 112.272 100.553 112.592C101.241 112.896 101.817 113.336 102.281 113.912C102.745 114.488 103.097 115.184 103.337 116C103.577 116.8 103.697 117.696 103.697 118.688ZM118.254 118.664C118.254 119.656 118.11 120.568 117.822 121.4C117.534 122.216 117.118 122.92 116.574 123.512C116.03 124.088 115.374 124.536 114.606 124.856C113.854 125.176 113.006 125.336 112.062 125.336C111.134 125.336 110.286 125.176 109.518 124.856C108.766 124.536 108.118 124.088 107.574 123.512C107.03 122.92 106.606 122.216 106.302 121.4C105.998 120.568 105.846 119.656 105.846 118.664C105.846 117.672 105.998 116.768 106.302 115.952C106.622 115.136 107.054 114.44 107.598 113.864C108.158 113.288 108.814 112.84 109.566 112.52C110.334 112.2 111.166 112.04 112.062 112.04C112.974 112.04 113.806 112.2 114.558 112.52C115.326 112.84 115.982 113.288 116.526 113.864C117.07 114.44 117.494 115.136 117.798 115.952C118.102 116.768 118.254 117.672 118.254 118.664ZM114.606 118.664C114.606 117.56 114.382 116.696 113.934 116.072C113.502 115.432 112.878 115.112 112.062 115.112C111.246 115.112 110.614 115.432 110.166 116.072C109.718 116.696 109.494 117.56 109.494 118.664C109.494 119.768 109.718 120.648 110.166 121.304C110.614 121.944 111.246 122.264 112.062 122.264C112.878 122.264 113.502 121.944 113.934 121.304C114.382 120.648 114.606 119.768 114.606 118.664ZM126.064 125.24C125.024 125.224 124.176 125.112 123.52 124.904C122.88 124.696 122.368 124.408 121.984 124.04C121.616 123.656 121.36 123.2 121.216 122.672C121.088 122.128 121.024 121.52 121.024 120.848V106.952L124.6 106.376V120.128C124.6 120.448 124.624 120.736 124.672 120.992C124.72 121.248 124.808 121.464 124.936 121.64C125.08 121.816 125.28 121.96 125.536 122.072C125.792 122.184 126.136 122.256 126.568 122.288L126.064 125.24ZM131.666 118.592C131.666 119.696 131.914 120.584 132.41 121.256C132.906 121.928 133.642 122.264 134.618 122.264C134.938 122.264 135.234 122.256 135.506 122.24C135.778 122.208 136.002 122.176 136.178 122.144V115.64C135.954 115.496 135.658 115.376 135.29 115.28C134.938 115.184 134.578 115.136 134.21 115.136C132.514 115.136 131.666 116.288 131.666 118.592ZM139.754 124.592C139.434 124.688 139.066 124.784 138.65 124.88C138.234 124.96 137.794 125.032 137.33 125.096C136.882 125.16 136.418 125.208 135.938 125.24C135.474 125.288 135.026 125.312 134.594 125.312C133.554 125.312 132.626 125.16 131.81 124.856C130.994 124.552 130.306 124.12 129.746 123.56C129.186 122.984 128.754 122.296 128.45 121.496C128.162 120.68 128.018 119.768 128.018 118.76C128.018 117.736 128.146 116.816 128.402 116C128.658 115.168 129.026 114.464 129.506 113.888C129.986 113.312 130.57 112.872 131.258 112.568C131.962 112.264 132.762 112.112 133.658 112.112C134.154 112.112 134.594 112.16 134.978 112.256C135.378 112.352 135.778 112.488 136.178 112.664V106.952L139.754 106.376V124.592Z" fill="black"/>
</svg>
