<svg id="Layer_1" data-name="Layer 1" xmlns="http://www.w3.org/2000/svg" xmlns:xlink="http://www.w3.org/1999/xlink" viewBox="0 0 89.84 74.97"><defs><style>.cls-1{fill:none;}.cls-2,.cls-3{font-size:12px;fill:#231f20;}.cls-2{font-family:Ubuntu-Medium, Ubuntu;font-weight:500;}.cls-3{font-family:Ubuntu;}.cls-4{clip-path:url(#clip-path);}.cls-5{fill:#000001;}</style><clipPath id="clip-path" transform="translate(0.24 0.38)"><rect class="cls-1" x="-14.79" y="-6.54" width="147.15" height="81.12"/></clipPath></defs><text class="cls-2" transform="translate(0 10.16)">Ububtu Medium</text><text class="cls-3" transform="translate(0 38.15)">Ububtu Regular</text><g class="cls-4"><path class="cls-5" d="M47.89,60.86h2.92L50.55,62a8.75,8.75,0,0,1,1.23-.84A2.58,2.58,0,0,1,53,60.86a1.28,1.28,0,0,1,1,.4,1.34,1.34,0,0,1,.39,1,1.3,1.3,0,0,1-.39.93,1.41,1.41,0,0,1-1.07.41.81.81,0,0,1-.61-.19,1.39,1.39,0,0,1-.22-.56,1.12,1.12,0,0,0-.13-.35.21.21,0,0,0-.22-.11,1.51,1.51,0,0,0-.73.16,5.17,5.17,0,0,0-.75.53l-1.62,7H45.74Zm-6.22,4.57A2.76,2.76,0,0,0,43.09,65a3.46,3.46,0,0,0,1.1-1.12,2.67,2.67,0,0,0,.42-1.43c0-.5-.17-.75-.5-.75-.49,0-1,.39-1.44,1.16a8.49,8.49,0,0,0-1,2.61m0,4.69a3.5,3.5,0,0,1-2.33-.7,2.76,2.76,0,0,1-.83-2.21A8.39,8.39,0,0,1,39,64.43a6.26,6.26,0,0,1,1.78-2.62,4.49,4.49,0,0,1,3.14-1.12c1.49,0,2.23.59,2.23,1.76a3,3,0,0,1-.65,1.88,4.7,4.7,0,0,1-1.72,1.4,6.14,6.14,0,0,1-2.29.58c0,.37,0,.61,0,.73a1.69,1.69,0,0,0,.35,1.23,1.62,1.62,0,0,0,1.11.31,3.58,3.58,0,0,0,1.87-.46,8.37,8.37,0,0,0,1.72-1.39h.69Q45,70.12,41.63,70.12m-6.29,0a2.25,2.25,0,0,1-1.58-.55,2.17,2.17,0,0,1-.59-1.65,6.42,6.42,0,0,1,.16-1.19l1.22-5.14h-.67l.16-.73h.67l.61-2.53,3-.37-.69,2.9h1.22l-.17.73H37.47l-1.3,5.49a2.21,2.21,0,0,0-.08.59.69.69,0,0,0,.18.53,1.21,1.21,0,0,0,.65.14A1.63,1.63,0,0,0,38,67.9a2.5,2.5,0,0,0,.72-1.17h.86a5.12,5.12,0,0,1-1.93,2.69,4.49,4.49,0,0,1-2.33.7M21,68.34a1.37,1.37,0,0,0,1-.55,4.26,4.26,0,0,0,.83-1.44,7.71,7.71,0,0,0,.47-1.8.8.8,0,0,1-.33-.73,1.08,1.08,0,0,1,.27-.75,1.62,1.62,0,0,0-.37-.69.75.75,0,0,0-.61-.28,3.11,3.11,0,0,0-.69.09.87.87,0,0,0-.5.24L20,67.08a1.64,1.64,0,0,0-.06.42q0,.84,1.08.84m-1.14,1.78a3.25,3.25,0,0,1-2.11-.6A2.19,2.19,0,0,1,17,67.78a3.6,3.6,0,0,1,.14-1l2.17-9.17,3-.36-1,4.11a4.59,4.59,0,0,1,.93-.4A2.69,2.69,0,0,1,23,60.8c1.49,0,2.29.92,2.39,2.75.92-.16,2-1.13,3.12-2.89l3-.37c.07,1.56.19,3.25.35,5.07.07.73.1,1.26.1,1.59a3.58,3.58,0,0,1-.06.68,14,14,0,0,0,1.44-.9h.85a11.86,11.86,0,0,1-2.82,2.14,2.93,2.93,0,0,1-1.29,1,4.88,4.88,0,0,1-1.69.29,2.86,2.86,0,0,1-2.23-.7,2.59,2.59,0,0,1-.58-1.74A1.77,1.77,0,0,1,26,66.44,1.34,1.34,0,0,1,27,66c.7,0,1.05.25,1.05.76a.81.81,0,0,1-.28.59,1,1,0,0,1-.69.24c-.29,0-.47-.08-.55-.24a1.66,1.66,0,0,0,.28,1,1.13,1.13,0,0,0,.89.34,1.19,1.19,0,0,0,1-.36A2.24,2.24,0,0,0,29,67a10.14,10.14,0,0,0-.12-1.39c-.14-1.17-.24-2.37-.32-3.59a6.43,6.43,0,0,1-3.21,2.47A7.49,7.49,0,0,1,24.69,67a5.65,5.65,0,0,1-1.81,2.18,4.92,4.92,0,0,1-3,.9M12,68.44a1.38,1.38,0,0,0,1-.5,4.4,4.4,0,0,0,.85-1.37,8.11,8.11,0,0,0,.53-1.94.69.69,0,0,1-.55-.77,1,1,0,0,1,.63-1,1.56,1.56,0,0,0-.2-.82.64.64,0,0,0-.57-.24,1.68,1.68,0,0,0-1.29.88,7.33,7.33,0,0,0-1,2.1A7.57,7.57,0,0,0,11,67a2.19,2.19,0,0,0,.22,1.19,1,1,0,0,0,.81.3m-.81,1.64a3.71,3.71,0,0,1-2.37-.69A2.66,2.66,0,0,1,8,67.19a7.91,7.91,0,0,1,.57-2.76,6.25,6.25,0,0,1,1.82-2.62,4.56,4.56,0,0,1,3.16-1.12c1.73,0,2.59,1,2.59,2.93v0l.23,0a4.88,4.88,0,0,0,1.54-.31,8.63,8.63,0,0,0,1.58-.79l.18.49a4.73,4.73,0,0,1-1.54,1,8.44,8.44,0,0,1-2.05.55,7.45,7.45,0,0,1-.83,2.91,5.14,5.14,0,0,1-1.72,1.93,4.16,4.16,0,0,1-2.29.67m.69,4.51a3.74,3.74,0,0,1-1.8-.48,20.3,20.3,0,0,1-2.23-1.43c-.68-.49-1.26-.88-1.74-1.19a9.37,9.37,0,0,0-1.56-.75,4.83,4.83,0,0,0-1.71-.31l-.46,0,3-12.69A4.4,4.4,0,0,0,3.3,59.28a4.08,4.08,0,0,0-.73,2.47,2.38,2.38,0,0,0,.14,1,1,1,0,0,1,.14.29,2.83,2.83,0,0,1-1.64-.4,1.66,1.66,0,0,1-.52-1.38A3.3,3.3,0,0,1,1.74,59a7.9,7.9,0,0,1,2.74-1.79,8.57,8.57,0,0,1,3.32-.7l.81,0L5.49,69.64A7.66,7.66,0,0,1,6.64,70c.41.17.89.4,1.46.68.88.42,1.63.75,2.25,1a5.56,5.56,0,0,0,2,.34,4.78,4.78,0,0,0,1.7-.29,4.46,4.46,0,0,1-.73,2.11,1.65,1.65,0,0,1-1.38.77" transform="translate(0.24 0.38)"/></g></svg>