<svg width="906" height="155" viewBox="0 0 906 155" fill="none" xmlns="http://www.w3.org/2000/svg">
<g clip-path="url(#clip0)">
<rect x="564" width="155" height="155" rx="20" fill="#F7F7F7"/>
<rect y="1" width="155" height="155" rx="20" fill="#003087"/>
<rect x="751" width="155" height="155" rx="20" fill="#DEDEDE"/>
<rect x="190" width="155" height="155" rx="20" fill="#F2A900"/>
<rect x="377" width="155" height="155" rx="20" fill="#001D51"/>
<path d="M247.213 79.5977H245.9L245.455 82H244.471L244.916 79.5977H243.562V78.6719H245.092L245.432 76.8379H244.008V75.9062H245.607L246.064 73.4688H247.043L246.586 75.9062H247.904L248.361 73.4688H249.34L248.883 75.9062H250.102V76.8379H248.707L248.367 78.6719H249.662V79.5977H248.191L247.746 82H246.768L247.213 79.5977ZM246.076 78.6719H247.389L247.729 76.8379H246.416L246.076 78.6719ZM256.107 78.3848H252.674V82H251.191V73.4688H256.611V74.6641H252.674V77.2012H256.107V78.3848ZM263.297 82H257.561V81.0215L260.402 77.9219C260.812 77.4648 261.104 77.084 261.275 76.7793C261.451 76.4707 261.539 76.1621 261.539 75.8535C261.539 75.4473 261.424 75.1191 261.193 74.8691C260.967 74.6191 260.66 74.4941 260.273 74.4941C259.812 74.4941 259.455 74.6348 259.201 74.916C258.947 75.1973 258.82 75.582 258.82 76.0703H257.396C257.396 75.5508 257.514 75.084 257.748 74.6699C257.986 74.252 258.324 73.9277 258.762 73.6973C259.203 73.4668 259.711 73.3516 260.285 73.3516C261.113 73.3516 261.766 73.5605 262.242 73.9785C262.723 74.3926 262.963 74.9668 262.963 75.7012C262.963 76.127 262.842 76.5742 262.6 77.043C262.361 77.5078 261.969 78.0371 261.422 78.6309L259.336 80.8633H263.297V82ZM269.385 80.0137H266.08L265.389 82H263.848L267.07 73.4688H268.4L271.629 82H270.082L269.385 80.0137ZM266.496 78.8184H268.969L267.732 75.2793L266.496 78.8184ZM276.41 78.4316C275.934 78.9355 275.377 79.1875 274.74 79.1875C273.99 79.1875 273.393 78.9258 272.947 78.4023C272.502 77.875 272.279 77.1836 272.279 76.3281C272.279 75.7656 272.393 75.2559 272.619 74.7988C272.846 74.3418 273.168 73.9863 273.586 73.7324C274.004 73.4785 274.488 73.3516 275.039 73.3516C275.898 73.3516 276.58 73.6719 277.084 74.3125C277.588 74.9531 277.84 75.8105 277.84 76.8848V77.2832C277.84 78.8223 277.492 79.9961 276.797 80.8047C276.102 81.6133 275.064 82.0234 273.686 82.0352H273.516V80.8574H273.721C274.561 80.8457 275.205 80.6445 275.654 80.2539C276.104 79.8594 276.355 79.252 276.41 78.4316ZM275.039 78.0742C275.324 78.0742 275.592 77.9922 275.842 77.8281C276.092 77.6641 276.285 77.4375 276.422 77.1484V76.5918C276.422 75.9629 276.293 75.457 276.035 75.0742C275.777 74.6914 275.443 74.5 275.033 74.5C274.623 74.5 274.295 74.6699 274.049 75.0098C273.807 75.3457 273.686 75.7715 273.686 76.2871C273.686 76.8223 273.809 77.2539 274.055 77.582C274.301 77.9102 274.629 78.0742 275.039 78.0742ZM284.754 78.4082C284.754 79.6348 284.523 80.5605 284.062 81.1855C283.605 81.8066 282.908 82.1172 281.971 82.1172C281.049 82.1172 280.354 81.8145 279.885 81.209C279.42 80.5996 279.182 79.6992 279.17 78.5078V77.0312C279.17 75.8047 279.398 74.8848 279.855 74.2715C280.316 73.6582 281.018 73.3516 281.959 73.3516C282.893 73.3516 283.588 73.6504 284.045 74.248C284.506 74.8457 284.742 75.7402 284.754 76.9316V78.4082ZM283.33 76.8145C283.33 76.0137 283.221 75.4277 283.002 75.0566C282.783 74.6816 282.436 74.4941 281.959 74.4941C281.494 74.4941 281.152 74.6719 280.934 75.0273C280.715 75.3789 280.6 75.9297 280.588 76.6797V78.6133C280.588 79.4102 280.699 80.0039 280.922 80.3945C281.145 80.7852 281.494 80.9805 281.971 80.9805C282.428 80.9805 282.766 80.8008 282.984 80.4414C283.203 80.0781 283.318 79.5117 283.33 78.7422V76.8145ZM291.574 78.4082C291.574 79.6348 291.344 80.5605 290.883 81.1855C290.426 81.8066 289.729 82.1172 288.791 82.1172C287.869 82.1172 287.174 81.8145 286.705 81.209C286.24 80.5996 286.002 79.6992 285.99 78.5078V77.0312C285.99 75.8047 286.219 74.8848 286.676 74.2715C287.137 73.6582 287.838 73.3516 288.779 73.3516C289.713 73.3516 290.408 73.6504 290.865 74.248C291.326 74.8457 291.562 75.7402 291.574 76.9316V78.4082ZM290.15 76.8145C290.15 76.0137 290.041 75.4277 289.822 75.0566C289.604 74.6816 289.256 74.4941 288.779 74.4941C288.314 74.4941 287.973 74.6719 287.754 75.0273C287.535 75.3789 287.42 75.9297 287.408 76.6797V78.6133C287.408 79.4102 287.52 80.0039 287.742 80.3945C287.965 80.7852 288.314 80.9805 288.791 80.9805C289.248 80.9805 289.586 80.8008 289.805 80.4414C290.023 80.0781 290.139 79.5117 290.15 78.7422V76.8145Z" fill="#001D51"/>
<path d="M434.213 79.5977H432.9L432.455 82H431.471L431.916 79.5977H430.562V78.6719H432.092L432.432 76.8379H431.008V75.9062H432.607L433.064 73.4688H434.043L433.586 75.9062H434.904L435.361 73.4688H436.34L435.883 75.9062H437.102V76.8379H435.707L435.367 78.6719H436.662V79.5977H435.191L434.746 82H433.768L434.213 79.5977ZM433.076 78.6719H434.389L434.729 76.8379H433.416L433.076 78.6719ZM443.523 78.4082C443.523 79.6348 443.293 80.5605 442.832 81.1855C442.375 81.8066 441.678 82.1172 440.74 82.1172C439.818 82.1172 439.123 81.8145 438.654 81.209C438.189 80.5996 437.951 79.6992 437.939 78.5078V77.0312C437.939 75.8047 438.168 74.8848 438.625 74.2715C439.086 73.6582 439.787 73.3516 440.729 73.3516C441.662 73.3516 442.357 73.6504 442.814 74.248C443.275 74.8457 443.512 75.7402 443.523 76.9316V78.4082ZM442.1 76.8145C442.1 76.0137 441.99 75.4277 441.771 75.0566C441.553 74.6816 441.205 74.4941 440.729 74.4941C440.264 74.4941 439.922 74.6719 439.703 75.0273C439.484 75.3789 439.369 75.9297 439.357 76.6797V78.6133C439.357 79.4102 439.469 80.0039 439.691 80.3945C439.914 80.7852 440.264 80.9805 440.74 80.9805C441.197 80.9805 441.535 80.8008 441.754 80.4414C441.973 80.0781 442.088 79.5117 442.1 78.7422V76.8145ZM450.344 78.4082C450.344 79.6348 450.113 80.5605 449.652 81.1855C449.195 81.8066 448.498 82.1172 447.561 82.1172C446.639 82.1172 445.943 81.8145 445.475 81.209C445.01 80.5996 444.771 79.6992 444.76 78.5078V77.0312C444.76 75.8047 444.988 74.8848 445.445 74.2715C445.906 73.6582 446.607 73.3516 447.549 73.3516C448.482 73.3516 449.178 73.6504 449.635 74.248C450.096 74.8457 450.332 75.7402 450.344 76.9316V78.4082ZM448.92 76.8145C448.92 76.0137 448.811 75.4277 448.592 75.0566C448.373 74.6816 448.025 74.4941 447.549 74.4941C447.084 74.4941 446.742 74.6719 446.523 75.0273C446.305 75.3789 446.189 75.9297 446.178 76.6797V78.6133C446.178 79.4102 446.289 80.0039 446.512 80.3945C446.734 80.7852 447.084 80.9805 447.561 80.9805C448.018 80.9805 448.355 80.8008 448.574 80.4414C448.793 80.0781 448.908 79.5117 448.92 78.7422V76.8145ZM455.459 82H454.041V75.1504L451.949 75.8652V74.6641L455.277 73.4395H455.459V82ZM458.652 82V73.4688H461.172C461.926 73.4688 462.594 73.6367 463.176 73.9727C463.762 74.3086 464.215 74.7852 464.535 75.4023C464.855 76.0195 465.016 76.7266 465.016 77.5234V77.9512C465.016 78.7598 464.854 79.4707 464.529 80.084C464.209 80.6973 463.75 81.1699 463.152 81.502C462.559 81.834 461.877 82 461.107 82H458.652ZM460.135 74.6641V80.8164H461.102C461.879 80.8164 462.475 80.5742 462.889 80.0898C463.307 79.6016 463.52 78.9023 463.527 77.9922V77.5176C463.527 76.5918 463.326 75.8848 462.924 75.3965C462.521 74.9082 461.938 74.6641 461.172 74.6641H460.135ZM466.645 77.7695L467.107 73.4688H471.689V74.6992H468.291L468.057 76.7383C468.451 76.5117 468.896 76.3984 469.393 76.3984C470.205 76.3984 470.836 76.6582 471.285 77.1777C471.738 77.6973 471.965 78.3965 471.965 79.2754C471.965 80.1426 471.715 80.834 471.215 81.3496C470.715 81.8613 470.029 82.1172 469.158 82.1172C468.377 82.1172 467.729 81.8965 467.213 81.4551C466.701 81.0098 466.424 80.4238 466.381 79.6973H467.758C467.812 80.1113 467.961 80.4297 468.203 80.6523C468.445 80.8711 468.762 80.9805 469.152 80.9805C469.59 80.9805 469.93 80.8242 470.172 80.5117C470.418 80.1992 470.541 79.7734 470.541 79.2344C470.541 78.7148 470.406 78.3047 470.137 78.0039C469.867 77.6992 469.496 77.5469 469.023 77.5469C468.766 77.5469 468.547 77.582 468.367 77.6523C468.188 77.7188 467.992 77.8516 467.781 78.0508L466.645 77.7695ZM476.939 82H475.521V75.1504L473.43 75.8652V74.6641L476.758 73.4395H476.939V82Z" fill="#F7F7F7"/>
<path d="M622.482 79.5977H620.936L620.467 82H619.629L620.098 79.5977H618.697V78.7949H620.25L620.654 76.7207H619.143V75.9062H620.812L621.293 73.4688H622.131L621.65 75.9062H623.197L623.678 73.4688H624.521L624.041 75.9062H625.236V76.7207H623.883L623.479 78.7949H624.797V79.5977H623.326L622.857 82H622.014L622.482 79.5977ZM621.088 78.7949H622.635L623.039 76.7207H621.492L621.088 78.7949ZM631.09 78.2324H627.51V82H626.385V73.4688H631.67V74.3945H627.51V77.3125H631.09V78.2324ZM638.244 74.0781L634.711 82H633.574L637.096 74.3594H632.479V73.4688H638.244V74.0781ZM644.461 78.2324H640.881V82H639.756V73.4688H645.041V74.3945H640.881V77.3125H644.461V78.2324ZM651.615 74.0781L648.082 82H646.945L650.467 74.3594H645.85V73.4688H651.615V74.0781ZM657.832 78.2324H654.252V82H653.127V73.4688H658.412V74.3945H654.252V77.3125H657.832V78.2324ZM664.986 74.0781L661.453 82H660.316L663.838 74.3594H659.221V73.4688H664.986V74.0781Z" fill="#001D51"/>
<path d="M809.482 79.5977H807.936L807.467 82H806.629L807.098 79.5977H805.697V78.7949H807.25L807.654 76.7207H806.143V75.9062H807.812L808.293 73.4688H809.131L808.65 75.9062H810.197L810.678 73.4688H811.521L811.041 75.9062H812.236V76.7207H810.883L810.479 78.7949H811.797V79.5977H810.326L809.857 82H809.014L809.482 79.5977ZM808.088 78.7949H809.635L810.039 76.7207H808.492L808.088 78.7949ZM813.385 82V73.4688H815.793C816.535 73.4688 817.191 73.6328 817.762 73.9609C818.332 74.2891 818.771 74.7559 819.08 75.3613C819.393 75.9668 819.551 76.6621 819.555 77.4473V77.9922C819.555 78.7969 819.398 79.502 819.086 80.1074C818.777 80.7129 818.334 81.1777 817.756 81.502C817.182 81.8262 816.512 81.9922 815.746 82H813.385ZM814.51 74.3945V81.0801H815.693C816.561 81.0801 817.234 80.8105 817.715 80.2715C818.199 79.7324 818.441 78.9648 818.441 77.9688V77.4707C818.441 76.502 818.213 75.75 817.756 75.2148C817.303 74.6758 816.658 74.4023 815.822 74.3945H814.51ZM826.082 78.0566H822.385V81.0801H826.68V82H821.26V73.4688H826.621V74.3945H822.385V77.1367H826.082V78.0566ZM828.08 82V73.4688H830.488C831.23 73.4688 831.887 73.6328 832.457 73.9609C833.027 74.2891 833.467 74.7559 833.775 75.3613C834.088 75.9668 834.246 76.6621 834.25 77.4473V77.9922C834.25 78.7969 834.094 79.502 833.781 80.1074C833.473 80.7129 833.029 81.1777 832.451 81.502C831.877 81.8262 831.207 81.9922 830.441 82H828.08ZM829.205 74.3945V81.0801H830.389C831.256 81.0801 831.93 80.8105 832.41 80.2715C832.895 79.7324 833.137 78.9648 833.137 77.9688V77.4707C833.137 76.502 832.908 75.75 832.451 75.2148C831.998 74.6758 831.354 74.4023 830.518 74.3945H829.205ZM840.777 78.0566H837.08V81.0801H841.375V82H835.955V73.4688H841.316V74.3945H837.08V77.1367H840.777V78.0566ZM842.775 82V73.4688H845.184C845.926 73.4688 846.582 73.6328 847.152 73.9609C847.723 74.2891 848.162 74.7559 848.471 75.3613C848.783 75.9668 848.941 76.6621 848.945 77.4473V77.9922C848.945 78.7969 848.789 79.502 848.477 80.1074C848.168 80.7129 847.725 81.1777 847.146 81.502C846.572 81.8262 845.902 81.9922 845.137 82H842.775ZM843.9 74.3945V81.0801H845.084C845.951 81.0801 846.625 80.8105 847.105 80.2715C847.59 79.7324 847.832 78.9648 847.832 77.9688V77.4707C847.832 76.502 847.604 75.75 847.146 75.2148C846.693 74.6758 846.049 74.4023 845.213 74.3945H843.9ZM855.473 78.0566H851.775V81.0801H856.07V82H850.65V73.4688H856.012V74.3945H851.775V77.1367H855.473V78.0566Z" fill="#001D51"/>
<path d="M57.2129 80.5977H55.9004L55.4551 83H54.4707L54.916 80.5977H53.5625V79.6719H55.0918L55.4316 77.8379H54.0078V76.9062H55.6074L56.0645 74.4688H57.043L56.5859 76.9062H57.9043L58.3613 74.4688H59.3398L58.8828 76.9062H60.1016V77.8379H58.707L58.3672 79.6719H59.6621V80.5977H58.1914L57.7461 83H56.7676L57.2129 80.5977ZM56.0762 79.6719H57.3887L57.7285 77.8379H56.416L56.0762 79.6719ZM66.5234 79.4082C66.5234 80.6348 66.293 81.5605 65.832 82.1855C65.375 82.8066 64.6777 83.1172 63.7402 83.1172C62.8184 83.1172 62.123 82.8145 61.6543 82.209C61.1895 81.5996 60.9512 80.6992 60.9395 79.5078V78.0312C60.9395 76.8047 61.168 75.8848 61.625 75.2715C62.0859 74.6582 62.7871 74.3516 63.7285 74.3516C64.6621 74.3516 65.3574 74.6504 65.8145 75.248C66.2754 75.8457 66.5117 76.7402 66.5234 77.9316V79.4082ZM65.0996 77.8145C65.0996 77.0137 64.9902 76.4277 64.7715 76.0566C64.5527 75.6816 64.2051 75.4941 63.7285 75.4941C63.2637 75.4941 62.9219 75.6719 62.7031 76.0273C62.4844 76.3789 62.3691 76.9297 62.3574 77.6797V79.6133C62.3574 80.4102 62.4688 81.0039 62.6914 81.3945C62.9141 81.7852 63.2637 81.9805 63.7402 81.9805C64.1973 81.9805 64.5352 81.8008 64.7539 81.4414C64.9727 81.0781 65.0879 80.5117 65.0996 79.7422V77.8145ZM73.3438 79.4082C73.3438 80.6348 73.1133 81.5605 72.6523 82.1855C72.1953 82.8066 71.498 83.1172 70.5605 83.1172C69.6387 83.1172 68.9434 82.8145 68.4746 82.209C68.0098 81.5996 67.7715 80.6992 67.7598 79.5078V78.0312C67.7598 76.8047 67.9883 75.8848 68.4453 75.2715C68.9062 74.6582 69.6074 74.3516 70.5488 74.3516C71.4824 74.3516 72.1777 74.6504 72.6348 75.248C73.0957 75.8457 73.332 76.7402 73.3438 77.9316V79.4082ZM71.9199 77.8145C71.9199 77.0137 71.8105 76.4277 71.5918 76.0566C71.373 75.6816 71.0254 75.4941 70.5488 75.4941C70.084 75.4941 69.7422 75.6719 69.5234 76.0273C69.3047 76.3789 69.1895 76.9297 69.1777 77.6797V79.6133C69.1777 80.4102 69.2891 81.0039 69.5117 81.3945C69.7344 81.7852 70.084 81.9805 70.5605 81.9805C71.0176 81.9805 71.3555 81.8008 71.5742 81.4414C71.793 81.0781 71.9082 80.5117 71.9199 79.7422V77.8145ZM76.25 78.084H77.1172C77.5547 78.0801 77.9004 77.9668 78.1543 77.7441C78.4121 77.5215 78.541 77.1992 78.541 76.7773C78.541 76.3711 78.4336 76.0566 78.2188 75.834C78.0078 75.6074 77.6836 75.4941 77.2461 75.4941C76.8633 75.4941 76.5488 75.6055 76.3027 75.8281C76.0566 76.0469 75.9336 76.334 75.9336 76.6895H74.5098C74.5098 76.252 74.625 75.8535 74.8555 75.4941C75.0898 75.1348 75.4141 74.8555 75.8281 74.6562C76.2461 74.4531 76.7129 74.3516 77.2285 74.3516C78.0801 74.3516 78.748 74.5664 79.2324 74.9961C79.7207 75.4219 79.9648 76.0156 79.9648 76.7773C79.9648 77.1602 79.8418 77.5215 79.5957 77.8613C79.3535 78.1973 79.0391 78.4512 78.6523 78.623C79.1211 78.7832 79.4766 79.0352 79.7188 79.3789C79.9648 79.7227 80.0879 80.1328 80.0879 80.6094C80.0879 81.375 79.8242 81.9844 79.2969 82.4375C78.7734 82.8906 78.084 83.1172 77.2285 83.1172C76.4082 83.1172 75.7363 82.8984 75.2129 82.4609C74.6895 82.0234 74.4277 81.4414 74.4277 80.7148H75.8516C75.8516 81.0898 75.9766 81.3945 76.2266 81.6289C76.4805 81.8633 76.8203 81.9805 77.2461 81.9805C77.6875 81.9805 78.0352 81.8633 78.2891 81.6289C78.543 81.3945 78.6699 81.0547 78.6699 80.6094C78.6699 80.1602 78.5371 79.8145 78.2715 79.5723C78.0059 79.3301 77.6113 79.209 77.0879 79.209H76.25V78.084ZM86.9844 79.4082C86.9844 80.6348 86.7539 81.5605 86.293 82.1855C85.8359 82.8066 85.1387 83.1172 84.2012 83.1172C83.2793 83.1172 82.584 82.8145 82.1152 82.209C81.6504 81.5996 81.4121 80.6992 81.4004 79.5078V78.0312C81.4004 76.8047 81.6289 75.8848 82.0859 75.2715C82.5469 74.6582 83.248 74.3516 84.1895 74.3516C85.123 74.3516 85.8184 74.6504 86.2754 75.248C86.7363 75.8457 86.9727 76.7402 86.9844 77.9316V79.4082ZM85.5605 77.8145C85.5605 77.0137 85.4512 76.4277 85.2324 76.0566C85.0137 75.6816 84.666 75.4941 84.1895 75.4941C83.7246 75.4941 83.3828 75.6719 83.1641 76.0273C82.9453 76.3789 82.8301 76.9297 82.8184 77.6797V79.6133C82.8184 80.4102 82.9297 81.0039 83.1523 81.3945C83.375 81.7852 83.7246 81.9805 84.2012 81.9805C84.6582 81.9805 84.9961 81.8008 85.2148 81.4414C85.4336 81.0781 85.5488 80.5117 85.5605 79.7422V77.8145ZM93.6172 76.7188C93.6172 77.1367 93.5098 77.5098 93.2949 77.8379C93.0801 78.1621 92.7871 78.418 92.416 78.6055C92.8613 78.8125 93.2031 79.0957 93.4414 79.4551C93.6836 79.8145 93.8047 80.2207 93.8047 80.6738C93.8047 81.4238 93.5508 82.0195 93.043 82.4609C92.5352 82.8984 91.8594 83.1172 91.0156 83.1172C90.168 83.1172 89.4883 82.8965 88.9766 82.4551C88.4688 82.0137 88.2148 81.4199 88.2148 80.6738C88.2148 80.2168 88.3359 79.8066 88.5781 79.4434C88.8203 79.0801 89.1602 78.8008 89.5977 78.6055C89.2305 78.418 88.9395 78.1621 88.7246 77.8379C88.5137 77.5098 88.4082 77.1367 88.4082 76.7188C88.4082 75.9922 88.6426 75.416 89.1113 74.9902C89.5801 74.5645 90.2129 74.3516 91.0098 74.3516C91.8105 74.3516 92.4453 74.5645 92.9141 74.9902C93.3828 75.416 93.6172 75.9922 93.6172 76.7188ZM92.3809 80.6035C92.3809 80.1816 92.2539 79.8418 92 79.584C91.75 79.3223 91.418 79.1914 91.0039 79.1914C90.5898 79.1914 90.2578 79.3203 90.0078 79.5781C89.7617 79.8359 89.6387 80.1777 89.6387 80.6035C89.6387 81.0215 89.7598 81.3555 90.002 81.6055C90.248 81.8555 90.5859 81.9805 91.0156 81.9805C91.4453 81.9805 91.7793 81.8594 92.0176 81.6172C92.2598 81.375 92.3809 81.0371 92.3809 80.6035ZM92.1992 76.7715C92.1992 76.4004 92.0918 76.0957 91.877 75.8574C91.6621 75.6152 91.373 75.4941 91.0098 75.4941C90.6465 75.4941 90.3594 75.6094 90.1484 75.8398C89.9375 76.0664 89.832 76.377 89.832 76.7715C89.832 77.1621 89.9375 77.4727 90.1484 77.7031C90.3633 77.9336 90.6523 78.0488 91.0156 78.0488C91.3789 78.0488 91.666 77.9336 91.877 77.7031C92.0918 77.4727 92.1992 77.1621 92.1992 76.7715ZM100.742 75.2598L97.332 83H95.8379L99.2422 75.6113H94.8301V74.4688H100.742V75.2598Z" fill="#F7F7F7"/>
</g>
<defs>
<clipPath id="clip0">
<rect width="906" height="155" fill="white"/>
</clipPath>
</defs>
</svg>
