<svg width="238" height="112" viewBox="0 0 238 112" fill="none" xmlns="http://www.w3.org/2000/svg">
<path d="M5.49219 75.3984H2.82031V80H1.3125V68.625H5.07812C6.35938 68.625 7.34375 68.9167 8.03125 69.5C8.72396 70.0833 9.07031 70.9323 9.07031 72.0469C9.07031 72.7552 8.8776 73.3724 8.49219 73.8984C8.11198 74.4245 7.58073 74.8177 6.89844 75.0781L9.57031 79.9062V80H7.96094L5.49219 75.3984ZM2.82031 74.1719H5.125C5.86979 74.1719 6.46094 73.9792 6.89844 73.5938C7.34115 73.2083 7.5625 72.6927 7.5625 72.0469C7.5625 71.3438 7.35156 70.8047 6.92969 70.4297C6.51302 70.0547 5.90885 69.8646 5.11719 69.8594H2.82031V74.1719ZM10.5703 75.6953C10.5703 74.8672 10.7318 74.1224 11.0547 73.4609C11.3828 72.7995 11.8359 72.2891 12.4141 71.9297C12.9974 71.5703 13.6615 71.3906 14.4062 71.3906C15.5573 71.3906 16.487 71.7891 17.1953 72.5859C17.9089 73.3828 18.2656 74.4427 18.2656 75.7656V75.8672C18.2656 76.6901 18.1068 77.4297 17.7891 78.0859C17.4766 78.737 17.026 79.2448 16.4375 79.6094C15.8542 79.974 15.1823 80.1562 14.4219 80.1562C13.276 80.1562 12.3464 79.7578 11.6328 78.9609C10.9245 78.1641 10.5703 77.1094 10.5703 75.7969V75.6953ZM12.0234 75.8672C12.0234 76.8047 12.2396 77.5573 12.6719 78.125C13.1094 78.6927 13.6927 78.9766 14.4219 78.9766C15.1562 78.9766 15.7396 78.6901 16.1719 78.1172C16.6042 77.5391 16.8203 76.7318 16.8203 75.6953C16.8203 74.7682 16.599 74.0182 16.1562 73.4453C15.7188 72.8672 15.1354 72.5781 14.4062 72.5781C13.6927 72.5781 13.1172 72.862 12.6797 73.4297C12.2422 73.9974 12.0234 74.8099 12.0234 75.8672ZM27.2344 75.8672C27.2344 77.1589 26.9375 78.1979 26.3438 78.9844C25.75 79.7656 24.9531 80.1562 23.9531 80.1562C22.8854 80.1562 22.0599 79.7786 21.4766 79.0234L21.4062 80H20.0781V68H21.5234V72.4766C22.1068 71.7526 22.9115 71.3906 23.9375 71.3906C24.9635 71.3906 25.7682 71.7786 26.3516 72.5547C26.9401 73.3307 27.2344 74.3932 27.2344 75.7422V75.8672ZM25.7891 75.7031C25.7891 74.7188 25.599 73.9583 25.2188 73.4219C24.8385 72.8854 24.2917 72.6172 23.5781 72.6172C22.625 72.6172 21.9401 73.0599 21.5234 73.9453V77.6016C21.9661 78.487 22.6562 78.9297 23.5938 78.9297C24.2865 78.9297 24.8255 78.6615 25.2109 78.125C25.5964 77.5885 25.7891 76.7812 25.7891 75.7031ZM28.6797 75.6953C28.6797 74.8672 28.8411 74.1224 29.1641 73.4609C29.4922 72.7995 29.9453 72.2891 30.5234 71.9297C31.1068 71.5703 31.7708 71.3906 32.5156 71.3906C33.6667 71.3906 34.5964 71.7891 35.3047 72.5859C36.0182 73.3828 36.375 74.4427 36.375 75.7656V75.8672C36.375 76.6901 36.2161 77.4297 35.8984 78.0859C35.5859 78.737 35.1354 79.2448 34.5469 79.6094C33.9635 79.974 33.2917 80.1562 32.5312 80.1562C31.3854 80.1562 30.4557 79.7578 29.7422 78.9609C29.0339 78.1641 28.6797 77.1094 28.6797 75.7969V75.6953ZM30.1328 75.8672C30.1328 76.8047 30.349 77.5573 30.7812 78.125C31.2188 78.6927 31.8021 78.9766 32.5312 78.9766C33.2656 78.9766 33.849 78.6901 34.2812 78.1172C34.7135 77.5391 34.9297 76.7318 34.9297 75.6953C34.9297 74.7682 34.7083 74.0182 34.2656 73.4453C33.8281 72.8672 33.2448 72.5781 32.5156 72.5781C31.8021 72.5781 31.2266 72.862 30.7891 73.4297C30.3516 73.9974 30.1328 74.8099 30.1328 75.8672ZM40.1484 69.5V71.5469H41.7266V72.6641H40.1484V77.9062C40.1484 78.2448 40.2188 78.5 40.3594 78.6719C40.5 78.8385 40.7396 78.9219 41.0781 78.9219C41.2448 78.9219 41.474 78.8906 41.7656 78.8281V80C41.3854 80.1042 41.0156 80.1562 40.6562 80.1562C40.0104 80.1562 39.5234 79.9609 39.1953 79.5703C38.8672 79.1797 38.7031 78.625 38.7031 77.9062V72.6641H37.1641V71.5469H38.7031V69.5H40.1484ZM42.8828 75.6953C42.8828 74.8672 43.0443 74.1224 43.3672 73.4609C43.6953 72.7995 44.1484 72.2891 44.7266 71.9297C45.3099 71.5703 45.974 71.3906 46.7188 71.3906C47.8698 71.3906 48.7995 71.7891 49.5078 72.5859C50.2214 73.3828 50.5781 74.4427 50.5781 75.7656V75.8672C50.5781 76.6901 50.4193 77.4297 50.1016 78.0859C49.7891 78.737 49.3385 79.2448 48.75 79.6094C48.1667 79.974 47.4948 80.1562 46.7344 80.1562C45.5885 80.1562 44.6589 79.7578 43.9453 78.9609C43.237 78.1641 42.8828 77.1094 42.8828 75.7969V75.6953ZM44.3359 75.8672C44.3359 76.8047 44.5521 77.5573 44.9844 78.125C45.4219 78.6927 46.0052 78.9766 46.7344 78.9766C47.4688 78.9766 48.0521 78.6901 48.4844 78.1172C48.9167 77.5391 49.1328 76.7318 49.1328 75.6953C49.1328 74.7682 48.9115 74.0182 48.4688 73.4453C48.0312 72.8672 47.4479 72.5781 46.7188 72.5781C46.0052 72.5781 45.4297 72.862 44.9922 73.4297C44.5547 73.9974 44.3359 74.8099 44.3359 75.8672ZM60.7578 75.3984H58.0859V80H56.5781V68.625H60.3438C61.625 68.625 62.6094 68.9167 63.2969 69.5C63.9896 70.0833 64.3359 70.9323 64.3359 72.0469C64.3359 72.7552 64.1432 73.3724 63.7578 73.8984C63.3776 74.4245 62.8464 74.8177 62.1641 75.0781L64.8359 79.9062V80H63.2266L60.7578 75.3984ZM58.0859 74.1719H60.3906C61.1354 74.1719 61.7266 73.9792 62.1641 73.5938C62.6068 73.2083 62.8281 72.6927 62.8281 72.0469C62.8281 71.3438 62.6172 70.8047 62.1953 70.4297C61.7786 70.0547 61.1745 69.8646 60.3828 69.8594H58.0859V74.1719ZM69.7266 80.1562C68.5807 80.1562 67.6484 79.7812 66.9297 79.0312C66.2109 78.276 65.8516 77.2682 65.8516 76.0078V75.7422C65.8516 74.9036 66.0104 74.1562 66.3281 73.5C66.651 72.8385 67.099 72.3229 67.6719 71.9531C68.25 71.5781 68.875 71.3906 69.5469 71.3906C70.6458 71.3906 71.5 71.7526 72.1094 72.4766C72.7188 73.2005 73.0234 74.237 73.0234 75.5859V76.1875H67.2969C67.3177 77.0208 67.5599 77.6953 68.0234 78.2109C68.4922 78.7214 69.0859 78.9766 69.8047 78.9766C70.3151 78.9766 70.7474 78.8724 71.1016 78.6641C71.4557 78.4557 71.7656 78.1797 72.0312 77.8359L72.9141 78.5234C72.2057 79.612 71.1432 80.1562 69.7266 80.1562ZM69.5469 72.5781C68.9635 72.5781 68.474 72.7917 68.0781 73.2188C67.6823 73.6406 67.4375 74.2344 67.3438 75H71.5781V74.8906C71.5365 74.1562 71.3385 73.5885 70.9844 73.1875C70.6302 72.7812 70.151 72.5781 69.5469 72.5781ZM74.3594 75.7031C74.3594 74.3854 74.6641 73.3385 75.2734 72.5625C75.8828 71.7812 76.6901 71.3906 77.6953 71.3906C78.7266 71.3906 79.5312 71.7552 80.1094 72.4844L80.1797 71.5469H81.5V79.7969C81.5 80.8906 81.1745 81.7526 80.5234 82.3828C79.8776 83.013 79.0078 83.3281 77.9141 83.3281C77.3047 83.3281 76.7083 83.1979 76.125 82.9375C75.5417 82.6771 75.0964 82.3203 74.7891 81.8672L75.5391 81C76.1589 81.7656 76.9167 82.1484 77.8125 82.1484C78.5156 82.1484 79.0625 81.9505 79.4531 81.5547C79.849 81.1589 80.0469 80.6016 80.0469 79.8828V79.1562C79.4688 79.8229 78.6797 80.1562 77.6797 80.1562C76.6901 80.1562 75.888 79.7578 75.2734 78.9609C74.6641 78.1641 74.3594 77.0781 74.3594 75.7031ZM75.8125 75.8672C75.8125 76.8203 76.0078 77.5703 76.3984 78.1172C76.7891 78.6589 77.3359 78.9297 78.0391 78.9297C78.9505 78.9297 79.6198 78.5156 80.0469 77.6875V73.8281C79.6042 73.0208 78.9401 72.6172 78.0547 72.6172C77.3516 72.6172 76.8021 72.8906 76.4062 73.4375C76.0104 73.9844 75.8125 74.7943 75.8125 75.8672ZM88.9062 79.1641C88.3438 79.8255 87.5182 80.1562 86.4297 80.1562C85.5286 80.1562 84.8411 79.8958 84.3672 79.375C83.8984 78.849 83.6615 78.0729 83.6562 77.0469V71.5469H85.1016V77.0078C85.1016 78.2891 85.6224 78.9297 86.6641 78.9297C87.7682 78.9297 88.5026 78.5182 88.8672 77.6953V71.5469H90.3125V80H88.9375L88.9062 79.1641ZM94.0859 80H92.6406V68H94.0859V80ZM101.625 80C101.542 79.8333 101.474 79.5365 101.422 79.1094C100.75 79.8073 99.9479 80.1562 99.0156 80.1562C98.1823 80.1562 97.4974 79.9219 96.9609 79.4531C96.4297 78.9792 96.1641 78.3802 96.1641 77.6562C96.1641 76.776 96.4974 76.0938 97.1641 75.6094C97.8359 75.1198 98.7786 74.875 99.9922 74.875H101.398V74.2109C101.398 73.7057 101.247 73.3047 100.945 73.0078C100.643 72.7057 100.198 72.5547 99.6094 72.5547C99.0938 72.5547 98.6615 72.6849 98.3125 72.9453C97.9635 73.2057 97.7891 73.5208 97.7891 73.8906H96.3359C96.3359 73.4688 96.4844 73.0625 96.7812 72.6719C97.0833 72.276 97.4896 71.9635 98 71.7344C98.5156 71.5052 99.0807 71.3906 99.6953 71.3906C100.669 71.3906 101.432 71.6354 101.984 72.125C102.536 72.6094 102.823 73.2786 102.844 74.1328V78.0234C102.844 78.7995 102.943 79.4167 103.141 79.875V80H101.625ZM99.2266 78.8984C99.6797 78.8984 100.109 78.7812 100.516 78.5469C100.922 78.3125 101.216 78.0078 101.398 77.6328V75.8984H100.266C98.4948 75.8984 97.6094 76.4167 97.6094 77.4531C97.6094 77.9062 97.7604 78.2604 98.0625 78.5156C98.3646 78.7708 98.7526 78.8984 99.2266 78.8984ZM109.195 72.8438C108.977 72.8073 108.74 72.7891 108.484 72.7891C107.536 72.7891 106.893 73.1927 106.555 74V80H105.109V71.5469H106.516L106.539 72.5234C107.013 71.7682 107.685 71.3906 108.555 71.3906C108.836 71.3906 109.049 71.4271 109.195 71.5V72.8438ZM109.516 82.2656L108.695 81.7031C109.185 81.0208 109.44 80.3177 109.461 79.5938V78.2891H110.875V79.4219C110.875 79.9479 110.745 80.474 110.484 81C110.229 81.526 109.906 81.9479 109.516 82.2656ZM121.273 80H119.82V70.3672L116.906 71.4375V70.125L121.047 68.5703H121.273V80ZM131.18 68.6172V69.8438H130.914C129.789 69.8646 128.893 70.1979 128.227 70.8438C127.56 71.4896 127.174 72.3984 127.07 73.5703C127.669 72.8828 128.487 72.5391 129.523 72.5391C130.513 72.5391 131.302 72.888 131.891 73.5859C132.484 74.2839 132.781 75.1849 132.781 76.2891C132.781 77.4609 132.461 78.3984 131.82 79.1016C131.185 79.8047 130.331 80.1562 129.258 80.1562C128.169 80.1562 127.286 79.7396 126.609 78.9062C125.932 78.0677 125.594 76.9896 125.594 75.6719V75.1172C125.594 73.0234 126.039 71.4245 126.93 70.3203C127.826 69.2109 129.156 68.6432 130.922 68.6172H131.18ZM129.281 73.7422C128.786 73.7422 128.331 73.8906 127.914 74.1875C127.497 74.4844 127.208 74.8568 127.047 75.3047V75.8359C127.047 76.7734 127.258 77.5286 127.68 78.1016C128.102 78.6745 128.628 78.9609 129.258 78.9609C129.909 78.9609 130.419 78.7214 130.789 78.2422C131.164 77.763 131.352 77.1354 131.352 76.3594C131.352 75.5781 131.161 74.9479 130.781 74.4688C130.406 73.9844 129.906 73.7422 129.281 73.7422ZM141.781 75.8672C141.781 77.1536 141.487 78.1901 140.898 78.9766C140.31 79.763 139.513 80.1562 138.508 80.1562C137.482 80.1562 136.674 79.8307 136.086 79.1797V83.25H134.641V71.5469H135.961L136.031 72.4844C136.62 71.7552 137.438 71.3906 138.484 71.3906C139.5 71.3906 140.302 71.7734 140.891 72.5391C141.484 73.3047 141.781 74.3698 141.781 75.7344V75.8672ZM140.336 75.7031C140.336 74.75 140.133 73.9974 139.727 73.4453C139.32 72.8932 138.763 72.6172 138.055 72.6172C137.18 72.6172 136.523 73.0052 136.086 73.7812V77.8203C136.518 78.5911 137.18 78.9766 138.07 78.9766C138.763 78.9766 139.312 78.7031 139.719 78.1562C140.13 77.6042 140.336 76.7865 140.336 75.7031ZM146.336 74.6328L148.211 71.5469H149.898L147.133 75.7266L149.984 80H148.312L146.359 76.8359L144.406 80H142.727L145.578 75.7266L142.812 71.5469H144.484L146.336 74.6328Z" fill="#001D51"/>
<path d="M8.00391 15.4258H4.69922V22H1.73438V4.9375H7.73438C9.70312 4.9375 11.2227 5.37891 12.293 6.26172C13.3633 7.14453 13.8984 8.42188 13.8984 10.0938C13.8984 11.2344 13.6211 12.1914 13.0664 12.9648C12.5195 13.7305 11.7539 14.3203 10.7695 14.7344L14.6016 21.8477V22H11.4258L8.00391 15.4258ZM4.69922 13.0469H7.74609C8.74609 13.0469 9.52734 12.7969 10.0898 12.2969C10.6523 11.7891 10.9336 11.0977 10.9336 10.2227C10.9336 9.30859 10.6719 8.60156 10.1484 8.10156C9.63281 7.60156 8.85938 7.34375 7.82812 7.32812H4.69922V13.0469ZM15.9023 15.543C15.9023 14.3008 16.1484 13.1836 16.6406 12.1914C17.1328 11.1914 17.8242 10.4258 18.7148 9.89453C19.6055 9.35547 20.6289 9.08594 21.7852 9.08594C23.4961 9.08594 24.8828 9.63672 25.9453 10.7383C27.0156 11.8398 27.5938 13.3008 27.6797 15.1211L27.6914 15.7891C27.6914 17.0391 27.4492 18.1562 26.9648 19.1406C26.4883 20.125 25.8008 20.8867 24.9023 21.4258C24.0117 21.9648 22.9805 22.2344 21.8086 22.2344C20.0195 22.2344 18.5859 21.6406 17.5078 20.4531C16.4375 19.2578 15.9023 17.668 15.9023 15.6836V15.543ZM18.75 15.7891C18.75 17.0938 19.0195 18.1172 19.5586 18.8594C20.0977 19.5938 20.8477 19.9609 21.8086 19.9609C22.7695 19.9609 23.5156 19.5859 24.0469 18.8359C24.5859 18.0859 24.8555 16.9883 24.8555 15.543C24.8555 14.2617 24.5781 13.2461 24.0234 12.4961C23.4766 11.7461 22.7305 11.3711 21.7852 11.3711C20.8555 11.3711 20.1172 11.7422 19.5703 12.4844C19.0234 13.2188 18.75 14.3203 18.75 15.7891ZM41.2266 15.7891C41.2266 17.7578 40.7852 19.3242 39.9023 20.4883C39.0273 21.6523 37.8203 22.2344 36.2812 22.2344C34.7969 22.2344 33.6406 21.6992 32.8125 20.6289L32.6719 22H30.0938V4H32.9414V10.5391C33.7617 9.57031 34.8672 9.08594 36.2578 9.08594C37.8047 9.08594 39.0195 9.66016 39.9023 10.8086C40.7852 11.957 41.2266 13.5625 41.2266 15.625V15.7891ZM38.3789 15.543C38.3789 14.168 38.1367 13.1367 37.6523 12.4492C37.168 11.7617 36.4648 11.418 35.543 11.418C34.3086 11.418 33.4414 11.957 32.9414 13.0352V18.2617C33.4492 19.3633 34.3242 19.9141 35.5664 19.9141C36.457 19.9141 37.1445 19.582 37.6289 18.918C38.1133 18.2539 38.3633 17.25 38.3789 15.9062V15.543ZM43.0898 15.543C43.0898 14.3008 43.3359 13.1836 43.8281 12.1914C44.3203 11.1914 45.0117 10.4258 45.9023 9.89453C46.793 9.35547 47.8164 9.08594 48.9727 9.08594C50.6836 9.08594 52.0703 9.63672 53.1328 10.7383C54.2031 11.8398 54.7812 13.3008 54.8672 15.1211L54.8789 15.7891C54.8789 17.0391 54.6367 18.1562 54.1523 19.1406C53.6758 20.125 52.9883 20.8867 52.0898 21.4258C51.1992 21.9648 50.168 22.2344 48.9961 22.2344C47.207 22.2344 45.7734 21.6406 44.6953 20.4531C43.625 19.2578 43.0898 17.668 43.0898 15.6836V15.543ZM45.9375 15.7891C45.9375 17.0938 46.207 18.1172 46.7461 18.8594C47.2852 19.5938 48.0352 19.9609 48.9961 19.9609C49.957 19.9609 50.7031 19.5859 51.2344 18.8359C51.7734 18.0859 52.043 16.9883 52.043 15.543C52.043 14.2617 51.7656 13.2461 51.2109 12.4961C50.6641 11.7461 49.918 11.3711 48.9727 11.3711C48.043 11.3711 47.3047 11.7422 46.7578 12.4844C46.2109 13.2188 45.9375 14.3203 45.9375 15.7891ZM60.8555 6.23828V9.32031H63.0938V11.4297H60.8555V18.5078C60.8555 18.9922 60.9492 19.3438 61.1367 19.5625C61.332 19.7734 61.6758 19.8789 62.168 19.8789C62.4961 19.8789 62.8281 19.8398 63.1641 19.7617V21.9648C62.5156 22.1445 61.8906 22.2344 61.2891 22.2344C59.1016 22.2344 58.0078 21.0273 58.0078 18.6133V11.4297H55.9219V9.32031H58.0078V6.23828H60.8555ZM64.3945 15.543C64.3945 14.3008 64.6406 13.1836 65.1328 12.1914C65.625 11.1914 66.3164 10.4258 67.207 9.89453C68.0977 9.35547 69.1211 9.08594 70.2773 9.08594C71.9883 9.08594 73.375 9.63672 74.4375 10.7383C75.5078 11.8398 76.0859 13.3008 76.1719 15.1211L76.1836 15.7891C76.1836 17.0391 75.9414 18.1562 75.457 19.1406C74.9805 20.125 74.293 20.8867 73.3945 21.4258C72.5039 21.9648 71.4727 22.2344 70.3008 22.2344C68.5117 22.2344 67.0781 21.6406 66 20.4531C64.9297 19.2578 64.3945 17.668 64.3945 15.6836V15.543ZM67.2422 15.7891C67.2422 17.0938 67.5117 18.1172 68.0508 18.8594C68.5898 19.5938 69.3398 19.9609 70.3008 19.9609C71.2617 19.9609 72.0078 19.5859 72.5391 18.8359C73.0781 18.0859 73.3477 16.9883 73.3477 15.543C73.3477 14.2617 73.0703 13.2461 72.5156 12.4961C71.9688 11.7461 71.2227 11.3711 70.2773 11.3711C69.3477 11.3711 68.6094 11.7422 68.0625 12.4844C67.5156 13.2188 67.2422 14.3203 67.2422 15.7891ZM88.6875 4.9375L93.6094 18.0156L98.5195 4.9375H102.352V22H99.3984V16.375L99.6914 8.85156L94.6523 22H92.5312L87.5039 8.86328L87.7969 16.375V22H84.8438V4.9375H88.6875ZM111.176 22.2344C109.371 22.2344 107.906 21.668 106.781 20.5352C105.664 19.3945 105.105 17.8789 105.105 15.9883V15.6367C105.105 14.3711 105.348 13.2422 105.832 12.25C106.324 11.25 107.012 10.4727 107.895 9.91797C108.777 9.36328 109.762 9.08594 110.848 9.08594C112.574 9.08594 113.906 9.63672 114.844 10.7383C115.789 11.8398 116.262 13.3984 116.262 15.4141V16.5625H107.977C108.062 17.6094 108.41 18.4375 109.02 19.0469C109.637 19.6562 110.41 19.9609 111.34 19.9609C112.645 19.9609 113.707 19.4336 114.527 18.3789L116.062 19.8438C115.555 20.6016 114.875 21.1914 114.023 21.6133C113.18 22.0273 112.23 22.2344 111.176 22.2344ZM110.836 11.3711C110.055 11.3711 109.422 11.6445 108.938 12.1914C108.461 12.7383 108.156 13.5 108.023 14.4766H113.449V14.2656C113.387 13.3125 113.133 12.5938 112.688 12.1094C112.242 11.6172 111.625 11.3711 110.836 11.3711ZM117.949 15.5664C117.949 13.6133 118.402 12.0469 119.309 10.8672C120.215 9.67969 121.43 9.08594 122.953 9.08594C124.297 9.08594 125.383 9.55469 126.211 10.4922V4H129.059V22H126.48L126.34 20.6875C125.488 21.7188 124.352 22.2344 122.93 22.2344C121.445 22.2344 120.242 21.6367 119.32 20.4414C118.406 19.2461 117.949 17.6211 117.949 15.5664ZM120.797 15.8125C120.797 17.1016 121.043 18.1094 121.535 18.8359C122.035 19.5547 122.742 19.9141 123.656 19.9141C124.82 19.9141 125.672 19.3945 126.211 18.3555V12.9414C125.688 11.9258 124.844 11.418 123.68 11.418C122.758 11.418 122.047 11.7852 121.547 12.5195C121.047 13.2461 120.797 14.3438 120.797 15.8125ZM135.059 22H132.211V9.32031H135.059V22ZM132.035 6.02734C132.035 5.58984 132.172 5.22656 132.445 4.9375C132.727 4.64844 133.125 4.50391 133.641 4.50391C134.156 4.50391 134.555 4.64844 134.836 4.9375C135.117 5.22656 135.258 5.58984 135.258 6.02734C135.258 6.45703 135.117 6.81641 134.836 7.10547C134.555 7.38672 134.156 7.52734 133.641 7.52734C133.125 7.52734 132.727 7.38672 132.445 7.10547C132.172 6.81641 132.035 6.45703 132.035 6.02734ZM145.852 20.7578C145.016 21.7422 143.828 22.2344 142.289 22.2344C140.914 22.2344 139.871 21.832 139.16 21.0273C138.457 20.2227 138.105 19.0586 138.105 17.5352V9.32031H140.953V17.5C140.953 19.1094 141.621 19.9141 142.957 19.9141C144.34 19.9141 145.273 19.418 145.758 18.4258V9.32031H148.605V22H145.922L145.852 20.7578ZM154.184 9.32031L154.266 10.6445C155.156 9.60547 156.375 9.08594 157.922 9.08594C159.617 9.08594 160.777 9.73438 161.402 11.0312C162.324 9.73438 163.621 9.08594 165.293 9.08594C166.691 9.08594 167.73 9.47266 168.41 10.2461C169.098 11.0195 169.449 12.1602 169.465 13.668V22H166.617V13.75C166.617 12.9453 166.441 12.3555 166.09 11.9805C165.738 11.6055 165.156 11.418 164.344 11.418C163.695 11.418 163.164 11.5938 162.75 11.9453C162.344 12.2891 162.059 12.7422 161.895 13.3047L161.906 22H159.059V13.6562C159.02 12.1641 158.258 11.418 156.773 11.418C155.633 11.418 154.824 11.8828 154.348 12.8125V22H151.5V9.32031H154.184ZM172.793 25.8438L171.258 24.9297C171.711 24.2188 172.02 23.5977 172.184 23.0664C172.355 22.543 172.445 22.0078 172.453 21.4609V19.2461H175.02L175.008 21.2969C175 22.125 174.789 22.9531 174.375 23.7812C173.969 24.6172 173.441 25.3047 172.793 25.8438ZM194.93 22H183.457V20.043L189.141 13.8438C189.961 12.9297 190.543 12.168 190.887 11.5586C191.238 10.9414 191.414 10.3242 191.414 9.70703C191.414 8.89453 191.184 8.23828 190.723 7.73828C190.27 7.23828 189.656 6.98828 188.883 6.98828C187.961 6.98828 187.246 7.26953 186.738 7.83203C186.23 8.39453 185.977 9.16406 185.977 10.1406H183.129C183.129 9.10156 183.363 8.16797 183.832 7.33984C184.309 6.50391 184.984 5.85547 185.859 5.39453C186.742 4.93359 187.758 4.70312 188.906 4.70312C190.562 4.70312 191.867 5.12109 192.82 5.95703C193.781 6.78516 194.262 7.93359 194.262 9.40234C194.262 10.2539 194.02 11.1484 193.535 12.0859C193.059 13.0156 192.273 14.0742 191.18 15.2617L187.008 19.7266H194.93V22ZM206.73 15.918H208.852V18.2031H206.73V22H203.883V18.2031H196.512L196.43 16.4688L203.789 4.9375H206.73V15.918ZM199.418 15.918H203.883V8.79297L203.672 9.16797L199.418 15.918ZM222.023 15.7891C222.023 17.75 221.578 19.3164 220.688 20.4883C219.797 21.6523 218.602 22.2344 217.102 22.2344C215.711 22.2344 214.598 21.7773 213.762 20.8633V26.875H210.914V9.32031H213.539L213.656 10.6094C214.492 9.59375 215.629 9.08594 217.066 9.08594C218.613 9.08594 219.824 9.66406 220.699 10.8203C221.582 11.9688 222.023 13.5664 222.023 15.6133V15.7891ZM219.188 15.543C219.188 14.2773 218.934 13.2734 218.426 12.5312C217.926 11.7891 217.207 11.418 216.27 11.418C215.105 11.418 214.27 11.8984 213.762 12.8594V18.4844C214.277 19.4688 215.121 19.9609 216.293 19.9609C217.199 19.9609 217.906 19.5977 218.414 18.8711C218.93 18.1367 219.188 17.0273 219.188 15.543ZM228.809 13.4922L231.223 9.32031H234.387L230.508 15.5664L234.516 22H231.375L228.844 17.6641L226.324 22H223.16L227.168 15.5664L223.301 9.32031H226.441L228.809 13.4922Z" fill="#001D51"/>
<path d="M5.33594 47.6172H3.13281V52H1.15625V40.625H5.15625C6.46875 40.625 7.48177 40.9193 8.19531 41.5078C8.90885 42.0964 9.26562 42.9479 9.26562 44.0625C9.26562 44.8229 9.08073 45.4609 8.71094 45.9766C8.34635 46.487 7.83594 46.8802 7.17969 47.1562L9.73438 51.8984V52H7.61719L5.33594 47.6172ZM3.13281 46.0312H5.16406C5.83073 46.0312 6.35156 45.8646 6.72656 45.5312C7.10156 45.1927 7.28906 44.7318 7.28906 44.1484C7.28906 43.5391 7.11458 43.0677 6.76562 42.7344C6.42188 42.401 5.90625 42.2292 5.21875 42.2188H3.13281V46.0312ZM10.6016 47.6953C10.6016 46.8672 10.7656 46.1224 11.0938 45.4609C11.4219 44.7943 11.8828 44.2839 12.4766 43.9297C13.0703 43.5703 13.7526 43.3906 14.5234 43.3906C15.6641 43.3906 16.5885 43.7578 17.2969 44.4922C18.0104 45.2266 18.3958 46.2005 18.4531 47.4141L18.4609 47.8594C18.4609 48.6927 18.2995 49.4375 17.9766 50.0938C17.6589 50.75 17.2005 51.2578 16.6016 51.6172C16.0078 51.9766 15.3203 52.1562 14.5391 52.1562C13.3464 52.1562 12.3906 51.7604 11.6719 50.9688C10.9583 50.1719 10.6016 49.112 10.6016 47.7891V47.6953ZM12.5 47.8594C12.5 48.7292 12.6797 49.4115 13.0391 49.9062C13.3984 50.3958 13.8984 50.6406 14.5391 50.6406C15.1797 50.6406 15.6771 50.3906 16.0312 49.8906C16.3906 49.3906 16.5703 48.6589 16.5703 47.6953C16.5703 46.8411 16.3854 46.1641 16.0156 45.6641C15.651 45.1641 15.1536 44.9141 14.5234 44.9141C13.9036 44.9141 13.4115 45.1615 13.0469 45.6562C12.6823 46.1458 12.5 46.8802 12.5 47.8594ZM27.4844 47.8594C27.4844 49.1719 27.1901 50.2161 26.6016 50.9922C26.0182 51.7682 25.2135 52.1562 24.1875 52.1562C23.1979 52.1562 22.4271 51.7995 21.875 51.0859L21.7812 52H20.0625V40H21.9609V44.3594C22.5078 43.7135 23.2448 43.3906 24.1719 43.3906C25.2031 43.3906 26.013 43.7734 26.6016 44.5391C27.1901 45.3047 27.4844 46.375 27.4844 47.75V47.8594ZM25.5859 47.6953C25.5859 46.7786 25.4245 46.0911 25.1016 45.6328C24.7786 45.1745 24.3099 44.9453 23.6953 44.9453C22.8724 44.9453 22.2943 45.3047 21.9609 46.0234V49.5078C22.2995 50.2422 22.8828 50.6094 23.7109 50.6094C24.3047 50.6094 24.763 50.388 25.0859 49.9453C25.4089 49.5026 25.5755 48.8333 25.5859 47.9375V47.6953ZM28.7266 47.6953C28.7266 46.8672 28.8906 46.1224 29.2188 45.4609C29.5469 44.7943 30.0078 44.2839 30.6016 43.9297C31.1953 43.5703 31.8776 43.3906 32.6484 43.3906C33.7891 43.3906 34.7135 43.7578 35.4219 44.4922C36.1354 45.2266 36.5208 46.2005 36.5781 47.4141L36.5859 47.8594C36.5859 48.6927 36.4245 49.4375 36.1016 50.0938C35.7839 50.75 35.3255 51.2578 34.7266 51.6172C34.1328 51.9766 33.4453 52.1562 32.6641 52.1562C31.4714 52.1562 30.5156 51.7604 29.7969 50.9688C29.0833 50.1719 28.7266 49.112 28.7266 47.7891V47.6953ZM30.625 47.8594C30.625 48.7292 30.8047 49.4115 31.1641 49.9062C31.5234 50.3958 32.0234 50.6406 32.6641 50.6406C33.3047 50.6406 33.8021 50.3906 34.1562 49.8906C34.5156 49.3906 34.6953 48.6589 34.6953 47.6953C34.6953 46.8411 34.5104 46.1641 34.1406 45.6641C33.776 45.1641 33.2786 44.9141 32.6484 44.9141C32.0286 44.9141 31.5365 45.1615 31.1719 45.6562C30.8073 46.1458 30.625 46.8802 30.625 47.8594ZM40.5703 41.4922V43.5469H42.0625V44.9531H40.5703V49.6719C40.5703 49.9948 40.6328 50.2292 40.7578 50.375C40.888 50.5156 41.1172 50.5859 41.4453 50.5859C41.6641 50.5859 41.8854 50.5599 42.1094 50.5078V51.9766C41.6771 52.0964 41.2604 52.1562 40.8594 52.1562C39.401 52.1562 38.6719 51.3516 38.6719 49.7422V44.9531H37.2812V43.5469H38.6719V41.4922H40.5703ZM42.9297 47.6953C42.9297 46.8672 43.0938 46.1224 43.4219 45.4609C43.75 44.7943 44.2109 44.2839 44.8047 43.9297C45.3984 43.5703 46.0807 43.3906 46.8516 43.3906C47.9922 43.3906 48.9167 43.7578 49.625 44.4922C50.3385 45.2266 50.724 46.2005 50.7812 47.4141L50.7891 47.8594C50.7891 48.6927 50.6276 49.4375 50.3047 50.0938C49.987 50.75 49.5286 51.2578 48.9297 51.6172C48.3359 51.9766 47.6484 52.1562 46.8672 52.1562C45.6745 52.1562 44.7188 51.7604 44 50.9688C43.2865 50.1719 42.9297 49.112 42.9297 47.7891V47.6953ZM44.8281 47.8594C44.8281 48.7292 45.0078 49.4115 45.3672 49.9062C45.7266 50.3958 46.2266 50.6406 46.8672 50.6406C47.5078 50.6406 48.0052 50.3906 48.3594 49.8906C48.7188 49.3906 48.8984 48.6589 48.8984 47.6953C48.8984 46.8411 48.7135 46.1641 48.3438 45.6641C47.9792 45.1641 47.4818 44.9141 46.8516 44.9141C46.2318 44.9141 45.7396 45.1615 45.375 45.6562C45.0104 46.1458 44.8281 46.8802 44.8281 47.8594ZM59.125 40.625L62.4062 49.3438L65.6797 40.625H68.2344V52H66.2656V48.25L66.4609 43.2344L63.1016 52H61.6875L58.3359 43.2422L58.5312 48.25V52H56.5625V40.625H59.125ZM74.1172 52.1562C72.9141 52.1562 71.9375 51.7786 71.1875 51.0234C70.4427 50.263 70.0703 49.2526 70.0703 47.9922V47.7578C70.0703 46.9141 70.2318 46.1615 70.5547 45.5C70.8828 44.8333 71.3411 44.3151 71.9297 43.9453C72.5182 43.5755 73.1745 43.3906 73.8984 43.3906C75.0495 43.3906 75.9375 43.7578 76.5625 44.4922C77.1927 45.2266 77.5078 46.2656 77.5078 47.6094V48.375H71.9844C72.0417 49.0729 72.2734 49.625 72.6797 50.0312C73.0911 50.4375 73.6068 50.6406 74.2266 50.6406C75.0964 50.6406 75.8047 50.2891 76.3516 49.5859L77.375 50.5625C77.0365 51.0677 76.5833 51.4609 76.0156 51.7422C75.4531 52.0182 74.8203 52.1562 74.1172 52.1562ZM73.8906 44.9141C73.3698 44.9141 72.9479 45.0964 72.625 45.4609C72.3073 45.8255 72.1042 46.3333 72.0156 46.9844H75.6328V46.8438C75.5911 46.2083 75.4219 45.7292 75.125 45.4062C74.8281 45.0781 74.4167 44.9141 73.8906 44.9141ZM78.6328 47.7109C78.6328 46.4089 78.9349 45.3646 79.5391 44.5781C80.1432 43.7865 80.9531 43.3906 81.9688 43.3906C82.8646 43.3906 83.5885 43.7031 84.1406 44.3281V40H86.0391V52H84.3203L84.2266 51.125C83.6589 51.8125 82.901 52.1562 81.9531 52.1562C80.9635 52.1562 80.1615 51.7578 79.5469 50.9609C78.9375 50.1641 78.6328 49.0807 78.6328 47.7109ZM80.5312 47.875C80.5312 48.7344 80.6953 49.4062 81.0234 49.8906C81.3568 50.3698 81.8281 50.6094 82.4375 50.6094C83.2135 50.6094 83.7812 50.263 84.1406 49.5703V45.9609C83.7917 45.2839 83.2292 44.9453 82.4531 44.9453C81.8385 44.9453 81.3646 45.1901 81.0312 45.6797C80.6979 46.1641 80.5312 46.8958 80.5312 47.875ZM90.0391 52H88.1406V43.5469H90.0391V52ZM88.0234 41.3516C88.0234 41.0599 88.1146 40.8177 88.2969 40.625C88.4844 40.4323 88.75 40.3359 89.0938 40.3359C89.4375 40.3359 89.7031 40.4323 89.8906 40.625C90.0781 40.8177 90.1719 41.0599 90.1719 41.3516C90.1719 41.638 90.0781 41.8776 89.8906 42.0703C89.7031 42.2578 89.4375 42.3516 89.0938 42.3516C88.75 42.3516 88.4844 42.2578 88.2969 42.0703C88.1146 41.8776 88.0234 41.638 88.0234 41.3516ZM97.2344 51.1719C96.6771 51.8281 95.8854 52.1562 94.8594 52.1562C93.9427 52.1562 93.2474 51.888 92.7734 51.3516C92.3047 50.8151 92.0703 50.0391 92.0703 49.0234V43.5469H93.9688V49C93.9688 50.0729 94.4141 50.6094 95.3047 50.6094C96.2266 50.6094 96.849 50.2786 97.1719 49.6172V43.5469H99.0703V52H97.2812L97.2344 51.1719ZM102.789 43.5469L102.844 44.4297C103.438 43.737 104.25 43.3906 105.281 43.3906C106.411 43.3906 107.185 43.8229 107.602 44.6875C108.216 43.8229 109.081 43.3906 110.195 43.3906C111.128 43.3906 111.82 43.6484 112.273 44.1641C112.732 44.6797 112.966 45.4401 112.977 46.4453V52H111.078V46.5C111.078 45.9635 110.961 45.5703 110.727 45.3203C110.492 45.0703 110.104 44.9453 109.562 44.9453C109.13 44.9453 108.776 45.0625 108.5 45.2969C108.229 45.526 108.039 45.8281 107.93 46.2031L107.938 52H106.039V46.4375C106.013 45.4427 105.505 44.9453 104.516 44.9453C103.755 44.9453 103.216 45.2552 102.898 45.875V52H101V43.5469H102.789ZM115.195 54.5625L114.172 53.9531C114.474 53.4792 114.68 53.0651 114.789 52.7109C114.904 52.362 114.964 52.0052 114.969 51.6406V50.1641H116.68L116.672 51.5312C116.667 52.0833 116.526 52.6354 116.25 53.1875C115.979 53.7448 115.628 54.2031 115.195 54.5625ZM127.445 52H125.555V42.8672L122.766 43.8203V42.2188L127.203 40.5859H127.445V52ZM137.305 40.5703V42.1406H137.07C136.008 42.1562 135.159 42.4479 134.523 43.0156C133.888 43.5833 133.51 44.388 133.391 45.4297C134 44.7891 134.779 44.4688 135.727 44.4688C136.732 44.4688 137.523 44.8229 138.102 45.5312C138.685 46.2396 138.977 47.1536 138.977 48.2734C138.977 49.4297 138.635 50.3672 137.953 51.0859C137.276 51.7995 136.385 52.1562 135.281 52.1562C134.146 52.1562 133.224 51.737 132.516 50.8984C131.812 50.0599 131.461 48.9609 131.461 47.6016V46.9531C131.461 44.9583 131.945 43.3958 132.914 42.2656C133.888 41.1354 135.286 40.5703 137.109 40.5703H137.305ZM135.266 46C134.849 46 134.466 46.1172 134.117 46.3516C133.773 46.5859 133.521 46.8984 133.359 47.2891V47.8672C133.359 48.7109 133.536 49.3828 133.891 49.8828C134.245 50.3776 134.703 50.625 135.266 50.625C135.828 50.625 136.273 50.4141 136.602 49.9922C136.93 49.5703 137.094 49.0156 137.094 48.3281C137.094 47.6406 136.927 47.0807 136.594 46.6484C136.26 46.2161 135.818 46 135.266 46ZM148.016 47.8594C148.016 49.1667 147.719 50.2109 147.125 50.9922C146.531 51.7682 145.734 52.1562 144.734 52.1562C143.807 52.1562 143.065 51.8516 142.508 51.2422V55.25H140.609V43.5469H142.359L142.438 44.4062C142.995 43.7292 143.753 43.3906 144.711 43.3906C145.742 43.3906 146.549 43.776 147.133 44.5469C147.721 45.3125 148.016 46.3776 148.016 47.7422V47.8594ZM146.125 47.6953C146.125 46.8516 145.956 46.1823 145.617 45.6875C145.284 45.1927 144.805 44.9453 144.18 44.9453C143.404 44.9453 142.846 45.2656 142.508 45.9062V49.6562C142.852 50.3125 143.414 50.6406 144.195 50.6406C144.799 50.6406 145.271 50.3984 145.609 49.9141C145.953 49.4245 146.125 48.6849 146.125 47.6953ZM152.539 46.3281L154.148 43.5469H156.258L153.672 47.7109L156.344 52H154.25L152.562 49.1094L150.883 52H148.773L151.445 47.7109L148.867 43.5469H150.961L152.539 46.3281Z" fill="#001D51"/>
<path d="M5.35156 103.398H2.72656L1.92969 108H0.453125L2.42969 96.625L5.85156 96.6328C7.04427 96.638 7.95312 96.9401 8.57812 97.5391C9.20312 98.138 9.46615 98.9531 9.36719 99.9844C9.3099 100.698 9.04948 101.326 8.58594 101.867C8.1276 102.409 7.51562 102.818 6.75 103.094L8.51562 107.898L8.50781 108H6.94531L5.35156 103.398ZM2.9375 102.172L5.09375 102.18C5.84375 102.18 6.47656 101.982 6.99219 101.586C7.50781 101.185 7.8099 100.651 7.89844 99.9844C7.97656 99.3333 7.84635 98.8229 7.50781 98.4531C7.16927 98.0833 6.65365 97.888 5.96094 97.8672L3.6875 97.8594L2.9375 102.172ZM14.5781 99.3906C15.2865 99.401 15.8932 99.5938 16.3984 99.9688C16.9036 100.344 17.276 100.862 17.5156 101.523C17.7604 102.18 17.8438 102.898 17.7656 103.68L17.75 103.852C17.651 104.674 17.4062 105.419 17.0156 106.086C16.625 106.747 16.1198 107.263 15.5 107.633C14.8802 108.003 14.2005 108.177 13.4609 108.156C12.7578 108.146 12.151 107.953 11.6406 107.578C11.1354 107.203 10.7656 106.693 10.5312 106.047C10.2969 105.401 10.2135 104.69 10.2812 103.914C10.3594 103.039 10.5964 102.253 10.9922 101.555C11.388 100.857 11.8958 100.318 12.5156 99.9375C13.1406 99.5521 13.8281 99.3698 14.5781 99.3906ZM11.7031 103.922C11.6667 104.25 11.6667 104.591 11.7031 104.945C11.7552 105.56 11.9375 106.049 12.25 106.414C12.5677 106.779 12.9896 106.969 13.5156 106.984C13.9844 107 14.4167 106.885 14.8125 106.641C15.2083 106.391 15.5417 106.016 15.8125 105.516C16.0833 105.016 16.2578 104.461 16.3359 103.852C16.3776 103.372 16.3854 102.969 16.3594 102.641C16.2969 102.01 16.1068 101.513 15.7891 101.148C15.4714 100.784 15.0495 100.591 14.5234 100.57C13.7943 100.555 13.1745 100.841 12.6641 101.43C12.1536 102.018 11.8385 102.789 11.7188 103.742L11.7031 103.922ZM26.4922 103.812C26.388 104.677 26.151 105.456 25.7812 106.148C25.4115 106.841 24.9635 107.354 24.4375 107.688C23.9115 108.021 23.3281 108.18 22.6875 108.164C21.6667 108.143 20.9089 107.76 20.4141 107.016L20.125 108H18.8203L20.9062 96H22.3203L21.4688 100.484C22.1458 99.7344 22.9688 99.3698 23.9375 99.3906C24.75 99.4115 25.3828 99.7109 25.8359 100.289C26.2891 100.867 26.5286 101.664 26.5547 102.68C26.5599 103.013 26.5443 103.336 26.5078 103.648L26.4922 103.812ZM25.1484 102.992C25.1641 102.232 25.0365 101.651 24.7656 101.25C24.4948 100.844 24.0807 100.63 23.5234 100.609C22.6432 100.589 21.8984 101.031 21.2891 101.938L20.6562 105.617C20.9688 106.477 21.5547 106.917 22.4141 106.938C22.9661 106.958 23.4479 106.794 23.8594 106.445C24.276 106.096 24.5911 105.609 24.8047 104.984C25.0182 104.354 25.1328 103.69 25.1484 102.992ZM32.3125 99.3906C33.0208 99.401 33.6276 99.5938 34.1328 99.9688C34.638 100.344 35.0104 100.862 35.25 101.523C35.4948 102.18 35.5781 102.898 35.5 103.68L35.4844 103.852C35.3854 104.674 35.1406 105.419 34.75 106.086C34.3594 106.747 33.8542 107.263 33.2344 107.633C32.6146 108.003 31.9349 108.177 31.1953 108.156C30.4922 108.146 29.8854 107.953 29.375 107.578C28.8698 107.203 28.5 106.693 28.2656 106.047C28.0312 105.401 27.9479 104.69 28.0156 103.914C28.0938 103.039 28.3307 102.253 28.7266 101.555C29.1224 100.857 29.6302 100.318 30.25 99.9375C30.875 99.5521 31.5625 99.3698 32.3125 99.3906ZM29.4375 103.922C29.401 104.25 29.401 104.591 29.4375 104.945C29.4896 105.56 29.6719 106.049 29.9844 106.414C30.3021 106.779 30.724 106.969 31.25 106.984C31.7188 107 32.151 106.885 32.5469 106.641C32.9427 106.391 33.276 106.016 33.5469 105.516C33.8177 105.016 33.9922 104.461 34.0703 103.852C34.112 103.372 34.1198 102.969 34.0938 102.641C34.0312 102.01 33.8411 101.513 33.5234 101.148C33.2057 100.784 32.7839 100.591 32.2578 100.57C31.5286 100.555 30.9089 100.841 30.3984 101.43C29.888 102.018 29.5729 102.789 29.4531 103.742L29.4375 103.922ZM40.2891 97.5L39.9297 99.5469H41.4688L41.2734 100.664H39.7422L38.8594 105.922C38.8438 106.057 38.8411 106.182 38.8516 106.297C38.888 106.703 39.1094 106.906 39.5156 106.906C39.6875 106.906 39.9167 106.88 40.2031 106.828L40.0938 108.008C39.7552 108.102 39.4115 108.148 39.0625 108.148C38.5 108.138 38.0781 107.932 37.7969 107.531C37.5156 107.125 37.4062 106.581 37.4688 105.898L38.3281 100.664H36.8359L37.0312 99.5469H38.5234L38.8828 97.5H40.2891ZM46.25 99.3906C46.9583 99.401 47.5651 99.5938 48.0703 99.9688C48.5755 100.344 48.9479 100.862 49.1875 101.523C49.4323 102.18 49.5156 102.898 49.4375 103.68L49.4219 103.852C49.3229 104.674 49.0781 105.419 48.6875 106.086C48.2969 106.747 47.7917 107.263 47.1719 107.633C46.5521 108.003 45.8724 108.177 45.1328 108.156C44.4297 108.146 43.8229 107.953 43.3125 107.578C42.8073 107.203 42.4375 106.693 42.2031 106.047C41.9688 105.401 41.8854 104.69 41.9531 103.914C42.0312 103.039 42.2682 102.253 42.6641 101.555C43.0599 100.857 43.5677 100.318 44.1875 99.9375C44.8125 99.5521 45.5 99.3698 46.25 99.3906ZM43.375 103.922C43.3385 104.25 43.3385 104.591 43.375 104.945C43.4271 105.56 43.6094 106.049 43.9219 106.414C44.2396 106.779 44.6615 106.969 45.1875 106.984C45.6562 107 46.0885 106.885 46.4844 106.641C46.8802 106.391 47.2135 106.016 47.4844 105.516C47.7552 105.016 47.9297 104.461 48.0078 103.852C48.0495 103.372 48.0573 102.969 48.0312 102.641C47.9688 102.01 47.7786 101.513 47.4609 101.148C47.1432 100.784 46.7214 100.591 46.1953 100.57C45.4661 100.555 44.8464 100.841 44.3359 101.43C43.8255 102.018 43.5104 102.789 43.3906 103.742L43.375 103.922ZM56.2031 108H54.7422L56.7188 96.625H58.1797L56.2031 108ZM62.4453 97.5L62.0859 99.5469H63.625L63.4297 100.664H61.8984L61.0156 105.922C61 106.057 60.9974 106.182 61.0078 106.297C61.0443 106.703 61.2656 106.906 61.6719 106.906C61.8438 106.906 62.0729 106.88 62.3594 106.828L62.25 108.008C61.9115 108.102 61.5677 108.148 61.2188 108.148C60.6562 108.138 60.2344 107.932 59.9531 107.531C59.6719 107.125 59.5625 106.581 59.625 105.898L60.4844 100.664H58.9922L59.1875 99.5469H60.6797L61.0391 97.5H62.4453ZM69.0391 108C69.0026 107.849 68.9844 107.701 68.9844 107.555L69.0078 107.109C68.2318 107.828 67.4089 108.177 66.5391 108.156C65.7943 108.146 65.1875 107.911 64.7188 107.453C64.2552 106.99 64.0443 106.411 64.0859 105.719C64.138 104.823 64.5286 104.125 65.2578 103.625C65.9922 103.12 66.9557 102.867 68.1484 102.867L69.625 102.875L69.7188 102.203C69.7708 101.698 69.6719 101.299 69.4219 101.008C69.1771 100.711 68.8073 100.557 68.3125 100.547C67.8281 100.536 67.3984 100.656 67.0234 100.906C66.6536 101.151 66.4271 101.477 66.3438 101.883L64.9219 101.891C64.9688 101.396 65.1615 100.958 65.5 100.578C65.8385 100.193 66.2734 99.8958 66.8047 99.6875C67.3359 99.474 67.8854 99.3724 68.4531 99.3828C69.3333 99.4036 70.0182 99.6719 70.5078 100.188C70.9974 100.698 71.2031 101.378 71.125 102.227L70.4375 106.414L70.3984 107.016C70.388 107.302 70.4193 107.586 70.4922 107.867L70.4766 108H69.0391ZM66.8203 106.906C67.2734 106.917 67.7005 106.81 68.1016 106.586C68.5078 106.357 68.8568 106.042 69.1484 105.641L69.4531 103.898L68.3828 103.891C67.4922 103.891 66.8099 104.031 66.3359 104.312C65.862 104.594 65.5938 104.992 65.5312 105.508C65.4844 105.904 65.5755 106.234 65.8047 106.5C66.0391 106.76 66.3776 106.896 66.8203 106.906ZM73.9297 108H72.5234L74.6016 96H76.0156L73.9297 108ZM77.7734 108H76.3672L77.8359 99.5469H79.2422L77.7734 108ZM78.9375 96.4609C79.1771 96.4505 79.375 96.5234 79.5312 96.6797C79.6927 96.8307 79.7734 97.0312 79.7734 97.2812C79.7682 97.526 79.6875 97.7266 79.5312 97.8828C79.3802 98.0391 79.1823 98.1224 78.9375 98.1328C78.6927 98.1432 78.4922 98.0729 78.3359 97.9219C78.1797 97.7708 78.1042 97.5729 78.1094 97.3281C78.1146 97.0833 78.1927 96.8802 78.3438 96.7188C78.4948 96.5573 78.6927 96.4714 78.9375 96.4609ZM83.6562 106.984C84.1615 106.995 84.6172 106.849 85.0234 106.547C85.4297 106.24 85.6953 105.839 85.8203 105.344L87.1562 105.336C87.0781 105.867 86.8646 106.352 86.5156 106.789C86.1719 107.227 85.737 107.568 85.2109 107.812C84.6849 108.057 84.1458 108.172 83.5938 108.156C82.8906 108.146 82.2943 107.964 81.8047 107.609C81.3203 107.25 80.9635 106.753 80.7344 106.117C80.5052 105.477 80.4271 104.758 80.5 103.961L80.5391 103.57C80.638 102.758 80.875 102.031 81.25 101.391C81.625 100.75 82.1146 100.253 82.7188 99.8984C83.3229 99.5391 83.9896 99.3698 84.7188 99.3906C85.6042 99.4115 86.3125 99.7083 86.8438 100.281C87.375 100.854 87.6406 101.581 87.6406 102.461L86.3203 102.453C86.3099 101.901 86.1562 101.456 85.8594 101.117C85.5625 100.773 85.1615 100.591 84.6562 100.57C83.9219 100.555 83.3099 100.828 82.8203 101.391C82.3359 101.953 82.0339 102.74 81.9141 103.75L81.8906 103.953C81.8594 104.286 81.8542 104.63 81.875 104.984C81.9115 105.594 82.0833 106.076 82.3906 106.43C82.6979 106.784 83.1198 106.969 83.6562 106.984ZM87.9766 110.273L87.1641 109.688C87.7682 108.943 88.1432 108.203 88.2891 107.469L88.4922 106.289H89.875L89.7109 107.344C89.5234 108.531 88.9453 109.508 87.9766 110.273ZM99.8125 108H98.3906L100.062 98.4062L97.0391 99.4688L97.2812 98.0938L101.5 96.5703H101.75L99.8125 108ZM111.352 96.6094L111.227 97.8359H110.953C109.911 97.8568 109.021 98.1797 108.281 98.8047C107.542 99.4297 106.969 100.352 106.562 101.57C107.271 100.862 108.099 100.518 109.047 100.539C109.646 100.549 110.159 100.716 110.586 101.039C111.013 101.357 111.326 101.799 111.523 102.367C111.727 102.93 111.797 103.552 111.734 104.234C111.63 105.385 111.216 106.336 110.492 107.086C109.773 107.831 108.888 108.188 107.836 108.156C106.992 108.135 106.299 107.826 105.758 107.227C105.216 106.628 104.906 105.826 104.828 104.82C104.786 104.273 104.852 103.534 105.023 102.602C105.383 100.659 106.091 99.1745 107.148 98.1484C108.211 97.1224 109.56 96.6094 111.195 96.6094H111.352ZM108.742 101.734C108.237 101.724 107.763 101.87 107.32 102.172C106.878 102.474 106.536 102.859 106.297 103.328L106.242 103.852L106.227 104.484C106.227 104.911 106.292 105.326 106.422 105.727C106.552 106.128 106.745 106.432 107 106.641C107.255 106.849 107.555 106.956 107.898 106.961C108.529 106.987 109.068 106.753 109.516 106.258C109.969 105.763 110.24 105.112 110.328 104.305C110.38 103.836 110.352 103.406 110.242 103.016C110.133 102.625 109.951 102.318 109.695 102.094C109.445 101.865 109.128 101.745 108.742 101.734ZM120.586 103.812C120.482 104.672 120.25 105.445 119.891 106.133C119.531 106.82 119.086 107.336 118.555 107.68C118.023 108.018 117.435 108.18 116.789 108.164C115.81 108.143 115.06 107.812 114.539 107.172L113.781 111.25H112.367L114.398 99.5469L115.68 99.5391L115.523 100.484C116.221 99.7344 117.057 99.3698 118.031 99.3906C118.844 99.4115 119.477 99.7109 119.93 100.289C120.383 100.867 120.622 101.664 120.648 102.68C120.654 103.013 120.641 103.336 120.609 103.648L120.586 103.812ZM119.195 103.648L119.234 102.992C119.234 102.232 119.089 101.651 118.797 101.25C118.51 100.844 118.094 100.63 117.547 100.609C116.729 100.589 116.023 100.977 115.43 101.773L114.719 105.828C115.036 106.578 115.607 106.964 116.43 106.984C117.133 107 117.729 106.727 118.219 106.164C118.714 105.596 119.039 104.758 119.195 103.648ZM125.234 102.625L127.531 99.5469H129.266L125.875 103.797L127.938 108H126.398L125 104.844L122.617 108H120.891L124.383 103.656L122.383 99.5469H123.93L125.234 102.625Z" fill="#001D51"/>
</svg>
