<svg xmlns="http://www.w3.org/2000/svg" viewBox="0 0 1299.89 1667.51"><defs><style>.cls-1,.cls-102,.cls-103,.cls-18,.cls-19,.cls-2,.cls-20,.cls-21,.cls-26,.cls-3,.cls-4,.cls-45,.cls-47,.cls-5,.cls-50,.cls-6,.cls-7,.cls-8,.cls-91{fill:none;}.cls-1,.cls-18,.cls-26{stroke:#3c8ba3;}.cls-1,.cls-18,.cls-2,.cls-21,.cls-22,.cls-3,.cls-4,.cls-5,.cls-6{stroke-miterlimit:10;}.cls-1,.cls-2,.cls-3,.cls-4,.cls-5{stroke-width:10px;}.cls-2,.cls-21,.cls-45{stroke:#6f429a;}.cls-3,.cls-47,.cls-6{stroke:#a33b6d;}.cls-4,.cls-50{stroke:#71a341;}.cls-5{stroke:#a37939;}.cls-18,.cls-19,.cls-20,.cls-21,.cls-6{stroke-width:4px;}.cls-7,.cls-91{stroke:#000;}.cls-102,.cls-103,.cls-19,.cls-20,.cls-26,.cls-45,.cls-47,.cls-50,.cls-7,.cls-8,.cls-91{stroke-linecap:round;stroke-linejoin:round;}.cls-102,.cls-103,.cls-22,.cls-26,.cls-45,.cls-47,.cls-50,.cls-7,.cls-8{stroke-width:2px;}.cls-19,.cls-20,.cls-22,.cls-8{stroke:#c6c6c5;}.cls-9{font-size:9px;}.cls-24,.cls-83,.cls-9{font-family:FuturaPT-Book, Futura PT;}.cls-10{letter-spacing:-0.07em;}.cls-11{letter-spacing:-0.01em;}.cls-12{letter-spacing:-0.02em;}.cls-13{letter-spacing:0.02em;}.cls-14{letter-spacing:-0.02em;}.cls-15{letter-spacing:-0.13em;}.cls-16{letter-spacing:-0.05em;}.cls-17{letter-spacing:-0.09em;}.cls-20{stroke-dasharray:4.03 12.08;}.cls-22{fill:#fff;}.cls-23{letter-spacing:-0.15em;}.cls-24,.cls-83{font-size:16px;}.cls-25{letter-spacing:-0.04em;}.cls-27{letter-spacing:-0.06em;}.cls-28{letter-spacing:0.02em;}.cls-29{letter-spacing:0.03em;}.cls-30{letter-spacing:-0.01em;}.cls-31{letter-spacing:0em;}.cls-32{letter-spacing:-0.11em;}.cls-33{letter-spacing:-0.06em;}.cls-34{letter-spacing:-0.02em;}.cls-35{letter-spacing:-0.05em;}.cls-36{letter-spacing:-0.02em;}.cls-37{letter-spacing:-0.01em;}.cls-38{letter-spacing:-0.07em;}.cls-39{letter-spacing:-0.01em;}.cls-40{letter-spacing:0em;}.cls-41{letter-spacing:-0.02em;}.cls-42{fill:#3c8ba3;}.cls-43{letter-spacing:-0.14em;}.cls-44{letter-spacing:0.03em;}.cls-46{fill:#6f429a;}.cls-48{fill:#a33b6d;}.cls-49{letter-spacing:0em;}.cls-51{letter-spacing:-0.02em;}.cls-52{fill:#71a341;}.cls-53{letter-spacing:-0.08em;}.cls-54{letter-spacing:-0.11em;}.cls-55{letter-spacing:-0.03em;}.cls-56{letter-spacing:-0.03em;}.cls-57{fill:#6f439a;}.cls-58{fill:#a37938;}.cls-59{font-size:60px;font-family:Futura-Medium, Futura;font-weight:500;}.cls-60{letter-spacing:0.02em;}.cls-61{letter-spacing:-0.02em;}.cls-62{letter-spacing:0.01em;}.cls-63{letter-spacing:0.02em;}.cls-64{letter-spacing:-0.14em;}.cls-65{letter-spacing:-0.01em;}.cls-66{letter-spacing:0.02em;}.cls-67{letter-spacing:-0.04em;}.cls-68{letter-spacing:0em;}.cls-69{letter-spacing:0.03em;}.cls-70{letter-spacing:-0.01em;}.cls-71{letter-spacing:-0.04em;}.cls-72{letter-spacing:-0.04em;}.cls-73{letter-spacing:-0.02em;}.cls-74{letter-spacing:-0.11em;}.cls-75{letter-spacing:-0.04em;}.cls-76{letter-spacing:-0.05em;}.cls-77{letter-spacing:-0.12em;}.cls-78{letter-spacing:-0.11em;}.cls-79{letter-spacing:-0.02em;}.cls-80{fill:#6f4199;}.cls-81{fill:#72a341;}.cls-82{fill:#a3793a;}.cls-83{fill:#231f20;}.cls-84{letter-spacing:-0.06em;}.cls-85{letter-spacing:-0.01em;}.cls-86{letter-spacing:-0.03em;}.cls-87{letter-spacing:-0.02em;}.cls-88{letter-spacing:0.02em;}.cls-89{letter-spacing:-0.01em;}.cls-90{letter-spacing:-0.01em;}.cls-92{letter-spacing:-0.01em;}.cls-93{letter-spacing:-0.07em;}.cls-94{letter-spacing:-0.04em;}.cls-95{letter-spacing:-0.01em;}.cls-96{letter-spacing:-0.14em;}.cls-97{letter-spacing:0.03em;}.cls-98{letter-spacing:-0.04em;}.cls-99{letter-spacing:-0.02em;}.cls-100{letter-spacing:0em;}.cls-101{letter-spacing:0.03em;}.cls-102{stroke:#6f449b;}.cls-103{stroke:#6f439a;}.cls-104{letter-spacing:-0.04em;}.cls-105{letter-spacing:-0.04em;}.cls-106{letter-spacing:-0.1em;}</style></defs><g id="lines"><line class="cls-1" x1="266.87" y1="1522.22" x2="1298.05" y2="1522.22"/><line class="cls-2" x1="266.32" y1="1504.22" x2="1298.05" y2="1504.22"/><line class="cls-3" x1="265.48" y1="1540.22" x2="1298.05" y2="1540.22"/><line class="cls-4" x1="265.87" y1="1558.53" x2="1299.63" y2="1558.53"/><line class="cls-5" x1="266.87" y1="1576.22" x2="1299.89" y2="1576.22"/></g><g id="Layer_4" data-name="Layer 4"><line class="cls-6" x1="690.45" y1="1163.13" x2="1033.18" y2="1163.13"/><line class="cls-7" x1="925.85" y1="1134.75" x2="925.9" y2="1171.63"/><line class="cls-8" x1="823.21" y1="1466.12" x2="823.21" y2="1492.63"/><text class="cls-9" transform="translate(394.79 705.64)"><tspan class="cls-10">T</tspan><tspan class="cls-11" x="3.19" y="0">h</tspan><tspan x="7.33" y="0">e </tspan><tspan class="cls-12" x="13.75" y="0">R</tspan><tspan x="18.09" y="0">ed Shi</tspan><tspan class="cls-13" x="40.01" y="0">r</tspan><tspan x="42.86" y="0">ts a</tspan><tspan class="cls-14" x="54.78" y="0">r</tspan><tspan x="57.23" y="0">e formed.</tspan><tspan class="cls-15" x="0" y="10.8">1</tspan><tspan class="cls-16" x="3.99" y="10.8">8</tspan><tspan class="cls-17" x="8.65" y="10.8">7</tspan><tspan x="12.97" y="10.8">5</tspan></text><line class="cls-18" x1="567.84" y1="158.2" x2="1033.18" y2="158.2"/><line class="cls-18" x1="805.85" y1="1181.13" x2="1034" y2="1181.13"/><line class="cls-18" x1="266.8" y1="840.14" x2="1033.25" y2="840.14"/><line class="cls-18" x1="266.87" y1="499.22" x2="1033.33" y2="499.22"/><path class="cls-18" d="M1031.48,873.24c96.86,3.34,170.73,71.28,170.51,170.5s-73.24,167.14-170.51,170.5" transform="translate(1.7 -33.07)"/><path class="cls-18" d="M1031.3,191.3c96.86,3.34,170.73,71.28,170.51,170.5s-73.24,167.14-170.51,170.5" transform="translate(1.7 -33.07)"/><path class="cls-18" d="M265.29,532.3c-96.85,3.35-170.73,71.28-170.5,170.5S168,870,265.29,873.31" transform="translate(1.7 -33.07)"/><path class="cls-1" d="M265.27,1214.25c-96.86,3.35-170.73,71.28-170.51,170.51S168,1551.9,265.27,1555.26" transform="translate(1.7 -33.07)"/><line class="cls-19" x1="2" y1="158.2" x2="4" y2="158.2"/><line class="cls-20" x1="16.08" y1="158.2" x2="557.73" y2="158.2"/><line class="cls-19" x1="563.77" y1="158.2" x2="565.77" y2="158.2"/><line class="cls-1" x1="266.47" y1="1181.13" x2="925.85" y2="1181.13"/><line class="cls-21" x1="301.69" y1="822.14" x2="1033.18" y2="822.14"/><line class="cls-21" x1="805.89" y1="1199.13" x2="1034.35" y2="1199.13"/><path class="cls-21" d="M1031.48,855.21c56.81,1.8,110,19.81,146.68,65.17,28,34.6,41.78,79.16,41.78,123.35,0,42.67-12.86,85.43-38.87,119.51-36.48,47.8-91,67.13-149.59,69" transform="translate(1.7 -33.07)"/><line class="cls-2" x1="266.57" y1="1199.13" x2="927.89" y2="1199.13"/><path class="cls-2" d="M265.17,1537.2c-86.89-3.4-152.25-63.52-152.44-152.44s65.84-149.06,152.44-152.45" transform="translate(1.7 -33.07)"/><path class="cls-6" d="M1031.48,1196.1c86.9-3.39,152.26-63.52,152.44-152.44s-65.83-149.06-152.44-152.44" transform="translate(1.7 -33.07)"/><line class="cls-6" x1="675.05" y1="858.14" x2="1033.25" y2="858.14"/><line class="cls-3" x1="265.57" y1="1163.13" x2="836.45" y2="1163.13"/><path class="cls-3" d="M264.47,1196.25c-56.81,1.79-110,19.8-146.68,65.16C89.84,1296,76,1340.56,76,1384.76c0,42.66,12.85,85.42,38.87,119.51,36.48,47.8,91,67.13,149.59,69" transform="translate(1.7 -33.07)"/><path class="cls-4" d="M264.87,1591.47c-64.81-1.87-125.68-24-165.45-77.39-27.58-37-41.27-83.39-41.27-129.32s13.69-92.32,41.27-129.33c39.77-53.36,100.64-75.51,165.45-77.39" transform="translate(1.7 -33.07)"/><path class="cls-5" d="M138.26,1572.79a232,232,0,0,0,126.91,36.5" transform="translate(1.7 -33.07)"/><rect class="cls-22" x="121.58" y="1548.79" width="55.87" height="17.38" rx="8.69" transform="translate(-1192.35 722.58) rotate(-53.69)"/><line class="cls-8" x1="486.04" y1="1463.47" x2="486.04" y2="1489.99"/><text class="cls-9" transform="translate(472.92 1448.21)">Adults aged <tspan class="cls-15" x="44.22" y="0">1</tspan><tspan x="48.2" y="0">8-</tspan><tspan class="cls-23" x="56.19" y="0">2</tspan><tspan x="59.96" y="0">1can vote.</tspan></text><text class="cls-24" transform="translate(472.92 1436.12)"><tspan class="cls-25">2</tspan><tspan x="8.5" y="0">6th amendment</tspan></text><rect class="cls-22" x="906.82" y="1213.39" width="34.76" height="17.38" rx="8.69" transform="translate(2147.98 264.82) rotate(90)"/><line class="cls-26" x1="567.84" y1="123.43" x2="567.84" y2="149.94"/><circle class="cls-22" cx="567.84" cy="158.63" r="8.69"/><text class="cls-9" transform="translate(556.02 100.9)"><tspan class="cls-27">W</tspan><tspan x="8.09" y="0">hite, p</tspan><tspan class="cls-14" x="29.33" y="0">r</tspan><tspan x="31.78" y="0">ope</tspan><tspan class="cls-28" x="45.56" y="0">r</tspan><tspan class="cls-29" x="48.4" y="0">t</tspan><tspan x="50.6" y="0">y owining &amp; tax </tspan><tspan x="0" y="10.8">paying males can vote.</tspan></text><text class="cls-24" transform="translate(556.02 69.26)">Commencement of <tspan x="0" y="19.2">t</tspan><tspan class="cls-30" x="3.42" y="19.2">h</tspan><tspan class="cls-31" x="10.78" y="19.2">e Constitution</tspan></text><text class="cls-24" transform="translate(550.18 188.98)"><tspan class="cls-32">1</tspan><tspan class="cls-33" x="7.3" y="0">7</tspan><tspan class="cls-34" x="15.38" y="0">8</tspan><tspan x="24.06" y="0">9</tspan></text><text class="cls-9" transform="translate(662.4 765.77)">Some Native Americans can <tspan x="0" y="10.8">technically become citi</tspan><tspan class="cls-11" x="79.11" y="10.8">z</tspan><tspan x="83.16" y="10.8">ens and vote.</tspan></text><text class="cls-24" transform="translate(662.88 756.35)">Dawes act</text><text class="cls-24" transform="translate(660.98 888.49)"><tspan class="cls-15">1</tspan><tspan x="7.09" y="0">8</tspan><tspan class="cls-35" x="16.18" y="0">8</tspan><tspan x="24.46" y="0">7</tspan></text><text class="cls-9" transform="translate(695.4 100.95)"><tspan class="cls-36">F</tspan><tspan class="cls-14" x="3.72" y="0">r</tspan><tspan x="6.17" y="0">ee white pe</tspan><tspan class="cls-37" x="46.57" y="0">r</tspan><tspan x="49.14" y="0">sons can </tspan><tspan x="0" y="10.8">become citi</tspan><tspan class="cls-11" x="39.92" y="10.8">z</tspan><tspan x="43.97" y="10.8">ens.</tspan></text><text class="cls-24" transform="translate(695.4 89.14)"><tspan class="cls-38">T</tspan><tspan class="cls-39" x="5.66" y="0">h</tspan><tspan class="cls-40" x="13.02" y="0">e natu</tspan><tspan class="cls-41" x="51.26" y="0">r</tspan><tspan class="cls-31" x="55.66" y="0">ali</tspan><tspan class="cls-30" x="70.73" y="0">z</tspan><tspan x="77.93" y="0">ation act</tspan></text><text class="cls-24" transform="translate(688.75 188.98)"><tspan class="cls-32">1</tspan><tspan class="cls-35" x="7.3" y="0">7</tspan><tspan x="15.58" y="0">90</tspan></text><circle class="cls-42" cx="567.84" cy="158.63" r="2"/><line class="cls-26" x1="705.97" y1="121.69" x2="705.97" y2="148.2"/><text x="1.7" y="-33.07"/><text class="cls-9" transform="translate(92.89 918.52)"><tspan class="cls-43">1</tspan><tspan x="3.88" y="0">3th amendment</tspan><tspan x="0" y="10.8">Slave</tspan><tspan class="cls-44" x="19.41" y="10.8">r</tspan><tspan x="22.36" y="10.8">y is abolis</tspan><tspan class="cls-11" x="56.83" y="10.8">h</tspan><tspan x="60.97" y="10.8">ed.</tspan><tspan class="cls-15" x="0" y="21.6">1</tspan><tspan x="3.99" y="21.6">865</tspan></text><text class="cls-9" transform="translate(152.83 726.87)"><tspan class="cls-15">1</tspan><tspan x="3.99" y="0">4th amendment</tspan><tspan x="0" y="10.8">All males born or natu</tspan><tspan class="cls-36" x="76.8" y="10.8">r</tspan><tspan x="79.28" y="10.8">ali</tspan><tspan class="cls-11" x="87.76" y="10.8">z</tspan><tspan x="91.81" y="10.8">ed in </tspan><tspan x="0" y="21.6">t</tspan><tspan class="cls-11" x="1.93" y="21.6">h</tspan><tspan x="6.07" y="21.6">e US can become citi</tspan><tspan class="cls-11" x="79.99" y="21.6">z</tspan><tspan x="84.04" y="21.6">ens</tspan><tspan class="cls-15" x="0" y="32.4">1</tspan><tspan x="3.99" y="32.4">868</tspan></text><line class="cls-45" x1="301.69" y1="786.94" x2="301.69" y2="813.45"/><circle class="cls-22" cx="301.69" cy="822.14" r="8.69"/><text class="cls-9" transform="translate(286.37 772.35)">Black men can technically vote.</text><text class="cls-24" transform="translate(283.87 760.26)"><tspan class="cls-15">1</tspan><tspan x="7.09" y="0">5th amendment</tspan></text><text class="cls-24" transform="translate(285.88 861.8)"><tspan class="cls-15">1</tspan><tspan class="cls-35" x="7.09" y="0">87</tspan><tspan x="23.66" y="0">0</tspan></text><circle class="cls-46" cx="301.69" cy="822.14" r="2"/><line class="cls-47" x1="675.05" y1="791.06" x2="675.05" y2="849.45"/><circle class="cls-22" cx="675.05" cy="858.14" r="8.69"/><circle class="cls-48" cx="675.05" cy="858.14" r="2"/><line class="cls-47" x1="838.45" y1="1077.99" x2="838.45" y2="1154.93"/><circle class="cls-22" cx="838.45" cy="1163.62" r="8.69"/><text class="cls-9" transform="translate(824.64 1042.5)">Native Americans a<tspan class="cls-14" x="69.2" y="0">r</tspan><tspan x="71.65" y="0">e </tspan><tspan x="0" y="10.8">g</tspan><tspan class="cls-36" x="4.73" y="10.8">r</tspan><tspan x="7.21" y="10.8">anted citi</tspan><tspan class="cls-11" x="38.87" y="10.8">z</tspan><tspan class="cls-49" x="42.92" y="10.8">enship and </tspan><tspan x="0" y="21.6">can vote.</tspan></text><text class="cls-24" transform="translate(824.64 1030.41)">Snyder act</text><text class="cls-24" transform="translate(826.66 1228.06)"><tspan class="cls-32">1</tspan><tspan class="cls-25" x="7.3" y="0">9</tspan><tspan class="cls-35" x="15.79" y="0">2</tspan><tspan x="24.08" y="0">4</tspan></text><circle class="cls-48" cx="838.45" cy="1163.62" r="2"/><text class="cls-24" transform="translate(909.77 1228.06)"><tspan class="cls-32">1</tspan><tspan class="cls-25" x="7.3" y="0">9</tspan><tspan class="cls-34" x="15.79" y="0">2</tspan><tspan x="24.48" y="0">0</tspan></text><circle class="cls-46" cx="925.89" cy="1199.13" r="2"/><circle class="cls-42" cx="925.85" cy="1181.13" r="2"/><line class="cls-50" x1="264.42" y1="1109.67" x2="264.42" y2="1136.18"/><circle class="cls-22" cx="264.42" cy="1144.87" r="8.69"/><text class="cls-9" transform="translate(250.61 1084.3)">Al<tspan class="cls-14" x="7.47" y="0">r</tspan><tspan x="9.92" y="0">eady </tspan><tspan class="cls-14" x="29.95" y="0">r</tspan><tspan x="32.4" y="0">esi</tspan><tspan class="cls-11" x="41.77" y="0">d</tspan><tspan x="46.41" y="0">ing chinese immig</tspan><tspan class="cls-51" x="108.35" y="0">r</tspan><tspan x="110.82" y="0">ants </tspan><tspan x="0" y="10.8">can become citi</tspan><tspan class="cls-11" x="54.93" y="10.8">z</tspan><tspan x="58.98" y="10.8">ens and vote.</tspan></text><text class="cls-24" transform="translate(250.61 1072.21)">Magnuson act</text><text class="cls-24" transform="translate(245 1228.06)"><tspan class="cls-32">1</tspan><tspan class="cls-35" x="7.3" y="0">9</tspan><tspan x="15.58" y="0">43</tspan></text><circle class="cls-52" cx="264.42" cy="1144.87" r="2"/><text class="cls-9" transform="translate(90.64 1643.66)"><tspan class="cls-16">2</tspan><tspan x="4.66" y="0">4th amendment</tspan><tspan class="cls-53" x="0" y="10.8">T</tspan><tspan x="3.08" y="10.8">ax-paying qualifications a</tspan><tspan class="cls-14" x="94.28" y="10.8">r</tspan><tspan x="96.73" y="10.8">e abolis</tspan><tspan class="cls-11" x="124.25" y="10.8">h</tspan><tspan x="128.39" y="10.8">ed.</tspan><tspan class="cls-54" x="0" y="21.6">1</tspan><tspan class="cls-55" x="4.1" y="21.6">9</tspan><tspan x="8.99" y="21.6">64</tspan></text><text class="cls-9" transform="translate(177.19 1418.7)"><tspan class="cls-11">R</tspan><tspan x="4.43" y="0">acial </tspan><tspan class="cls-11" x="23.68" y="0">d</tspan><tspan x="28.32" y="0">iscrimination in voting </tspan><tspan x="0" y="10.8">is p</tspan><tspan class="cls-14" x="11.87" y="10.8">r</tspan><tspan x="14.32" y="10.8">ohibited.</tspan></text><text class="cls-24" transform="translate(177.19 1407.65)"><tspan class="cls-56">V</tspan><tspan x="8.4" y="0">oting rights act</tspan></text><text class="cls-24" transform="translate(109.43 1570.27)"><tspan class="cls-32">1</tspan><tspan class="cls-34" x="7.3" y="0">9</tspan><tspan x="15.98" y="0">65</tspan></text><rect class="cls-22" x="438.05" y="1562.6" width="93.52" height="17.38" rx="8.69" transform="translate(2057.8 1053.41) rotate(90)"/><circle class="cls-42" cx="486.51" cy="1522.22" r="2"/><circle class="cls-57" cx="486.51" cy="1504.22" r="2"/><circle class="cls-52" cx="486.51" cy="1558.53" r="2"/><circle class="cls-48" cx="486.51" cy="1540.22" r="2"/><circle class="cls-58" cx="486.51" cy="1576.22" r="2"/><text class="cls-59" transform="translate(46.59 52.84)"><tspan class="cls-60">T</tspan><tspan x="30.03" y="0">imeline of </tspan><tspan class="cls-61" x="0" y="72">v</tspan><tspan class="cls-62" x="29" y="72">o</tspan><tspan x="65.42" y="72">ting </tspan><tspan class="cls-63" x="184.1" y="72">r</tspan><tspan x="207.45" y="72">ights</tspan></text><text class="cls-24" transform="translate(472.4 1606.65)"><tspan class="cls-32">1</tspan><tspan class="cls-25" x="7.3" y="0">9</tspan><tspan class="cls-64" x="15.79" y="0">7</tspan><tspan x="22.69" y="0">1</tspan></text><circle class="cls-57" cx="184.27" cy="1479.43" r="2"/><circle class="cls-52" cx="150.44" cy="1525.47" r="2"/><circle class="cls-48" cx="161.28" cy="1510.72" r="2"/><circle class="cls-58" cx="139.96" cy="1539.73" r="2"/><circle class="cls-22" cx="182.97" cy="1479.43" r="8.69"/><circle class="cls-46" cx="182.97" cy="1479.43" r="2"/><text class="cls-9" transform="translate(453.68 212.53)">American war of independence<tspan class="cls-54" x="0" y="10.8">1</tspan><tspan class="cls-65" x="4.1" y="10.8">7</tspan><tspan class="cls-17" x="9.1" y="10.8">7</tspan><tspan x="13.42" y="10.8">5-</tspan><tspan class="cls-54" x="21.41" y="10.8">1</tspan><tspan class="cls-33" x="25.51" y="10.8">7</tspan><tspan x="30.06" y="10.8">83</tspan></text><text class="cls-9" transform="translate(888.64 553.3)">End of Je<tspan class="cls-66" x="31.45" y="0">f</tspan><tspan x="33.79" y="0">fe</tspan><tspan class="cls-37" x="40.28" y="0">r</tspan><tspan x="42.85" y="0">sonian democ</tspan><tspan class="cls-51" x="91.78" y="0">r</tspan><tspan x="94.25" y="0">acy</tspan><tspan class="cls-15" x="0" y="10.8">1</tspan><tspan class="cls-67" x="3.99" y="10.8">8</tspan><tspan class="cls-55" x="8.76" y="10.8">2</tspan><tspan x="13.64" y="10.8">0s</tspan></text><line class="cls-8" x1="90.27" y1="626.88" x2="90.27" y2="476.32"/><text class="cls-9" transform="translate(78.9 440.83)">End of Jacksonian democ<tspan class="cls-51" x="88.53" y="0">r</tspan><tspan class="cls-68" x="91" y="0">acy</tspan><tspan x="0" y="10.8">P</tspan><tspan class="cls-14" x="4.1" y="10.8">r</tspan><tspan x="6.55" y="10.8">ope</tspan><tspan class="cls-66" x="20.33" y="10.8">r</tspan><tspan class="cls-69" x="23.17" y="10.8">t</tspan><tspan x="25.37" y="10.8">y qualifications a</tspan><tspan class="cls-14" x="84.57" y="10.8">r</tspan><tspan x="87.02" y="10.8">e abolis</tspan><tspan class="cls-70" x="114.54" y="10.8">h</tspan><tspan x="118.68" y="10.8">ed.</tspan><tspan class="cls-15" x="0" y="21.6">1</tspan><tspan class="cls-67" x="3.99" y="21.6">8</tspan><tspan class="cls-55" x="8.76" y="21.6">5</tspan><tspan x="13.64" y="21.6">4</tspan></text><text class="cls-9" transform="translate(824.64 960.18)">End of American In<tspan class="cls-11" x="66.44" y="0">d</tspan><tspan x="71.09" y="0">ian wa</tspan><tspan class="cls-37" x="94.89" y="0">r</tspan><tspan x="97.46" y="0">s</tspan><tspan class="cls-54"><tspan x="0" y="10.8">1</tspan><tspan class="cls-71" x="4.1" y="10.8">9</tspan><tspan class="cls-16" x="8.88" y="10.8">2</tspan><tspan class="cls-49" x="13.54" y="10.8">4</tspan></tspan></text><text class="cls-9" transform="translate(250.61 936.03)">WW2<tspan class="cls-54" x="0" y="10.8">1</tspan><tspan class="cls-72" x="4.1" y="10.8">9</tspan><tspan class="cls-73" x="8.87" y="10.8">3</tspan><tspan x="13.76" y="10.8">9-</tspan><tspan class="cls-74" x="21.75" y="10.8">1</tspan><tspan class="cls-16" x="25.86" y="10.8">9</tspan><tspan x="30.52" y="10.8">45</tspan></text><text class="cls-9" transform="translate(250.61 1001.94)">China becomes an all<tspan class="cls-75" x="75.99" y="0">y</tspan><tspan x="79.75" y="0">.</tspan><tspan class="cls-54" x="0" y="10.8">1</tspan><tspan class="cls-76" x="4.1" y="10.8">9</tspan><tspan x="8.77" y="10.8">43</tspan></text><text class="cls-9" transform="translate(472.82 1365.61)">Vietnam war<tspan class="cls-54" x="0" y="10.8">1</tspan><tspan class="cls-72" x="4.1" y="10.8">9</tspan><tspan x="8.87" y="10.8">55-</tspan><tspan class="cls-54" x="21.98" y="10.8">1</tspan><tspan class="cls-71" x="26.08" y="10.8">9</tspan><tspan class="cls-17" x="30.86" y="10.8">7</tspan><tspan x="35.18" y="10.8">5</tspan></text><text class="cls-9" transform="translate(160.4 1615.08)">Civil rights movement<tspan class="cls-54" x="0" y="10.8">1</tspan><tspan class="cls-72" x="4.1" y="10.8">9</tspan><tspan class="cls-73" x="8.87" y="10.8">5</tspan><tspan x="13.76" y="10.8">4-</tspan><tspan class="cls-74" x="21.75" y="10.8">1</tspan><tspan class="cls-73" x="25.86" y="10.8">9</tspan><tspan x="30.74" y="10.8">68</tspan></text><text class="cls-9" transform="translate(982.05 1252.2)">WW1<tspan class="cls-54" x="0" y="10.8">19</tspan><tspan class="cls-15" x="8.21" y="10.8">1</tspan><tspan x="12.19" y="10.8">4-</tspan><tspan class="cls-54" x="20.19" y="10.8">19</tspan><tspan class="cls-77" x="28.39" y="10.8">1</tspan><tspan class="cls-49" x="32.38" y="10.8">8</tspan></text><text class="cls-9" transform="translate(92.89 852.52)">Civil war<tspan class="cls-15" x="0" y="10.8">1</tspan><tspan x="3.99" y="10.8">8</tspan><tspan class="cls-78" x="9.1" y="10.8">6</tspan><tspan x="13.19" y="10.8">1-</tspan><tspan class="cls-15" x="21.19" y="10.8">1</tspan><tspan x="25.17" y="10.8">865</tspan></text><text class="cls-9" transform="translate(450.44 893.21)"><tspan class="cls-79">R</tspan><tspan x="4.34" y="0">econstruction e</tspan><tspan class="cls-51" x="56.62" y="0">r</tspan><tspan x="59.09" y="0">a</tspan><tspan class="cls-15" x="0" y="10.8">1</tspan><tspan x="3.99" y="10.8">863-</tspan><tspan class="cls-15" x="22.2" y="10.8">1</tspan><tspan class="cls-16" x="26.19" y="10.8">8</tspan><tspan class="cls-65" x="30.85" y="10.8">7</tspan><tspan x="35.85" y="10.8">7</tspan></text><rect class="cls-42" x="50.03" y="202.18" width="13.97" height="14.05" rx="6.99"/><rect class="cls-80" x="50.03" y="226.11" width="13.97" height="14.05" rx="6.99"/><rect class="cls-48" x="50.03" y="250.03" width="13.97" height="14.05" rx="6.99"/><rect class="cls-81" x="50.1" y="275.3" width="13.97" height="14.05" rx="6.99"/><rect class="cls-82" x="49.94" y="300.57" width="13.97" height="14.05" rx="6.99"/><text class="cls-83" transform="translate(73.01 216.23)"><tspan class="cls-84">W</tspan><tspan x="14.38" y="0">hite</tspan></text><text class="cls-83" transform="translate(73.24 240.15)">Black</text><text class="cls-83" transform="translate(73.24 264.08)">Native American</text><text class="cls-83" transform="translate(73.24 289.35)">Asian American</text><text class="cls-83" transform="translate(73.24 314.61)">Ot<tspan class="cls-85" x="16.13" y="0">h</tspan><tspan class="cls-40" x="23.49" y="0">er minorities</tspan></text><text class="cls-9" transform="translate(745.01 1285.73)"><tspan class="cls-10">T</tspan><tspan class="cls-11" x="3.19" y="0">h</tspan><tspan x="7.33" y="0">e fede</tspan><tspan class="cls-36" x="29.3" y="0">r</tspan><tspan x="31.78" y="0">al </tspan><tspan class="cls-86" x="40.48" y="0">V</tspan><tspan class="cls-49" x="45.21" y="0">oting Accessibili</tspan><tspan class="cls-29" x="101.15" y="0">t</tspan><tspan x="103.34" y="0">y for t</tspan><tspan class="cls-11" x="123.14" y="0">h</tspan><tspan x="127.28" y="0">e </tspan><tspan x="0" y="10.8">Elderly and Han</tspan><tspan class="cls-11" x="56.76" y="10.8">d</tspan><tspan x="61.4" y="10.8">icapped Act </tspan><tspan class="cls-10" x="0" y="21.6">T</tspan><tspan class="cls-11" x="3.19" y="21.6">h</tspan><tspan x="7.33" y="21.6">e act </tspan><tspan class="cls-14" x="26.45" y="21.6">r</tspan><tspan x="28.9" y="21.6">equi</tspan><tspan class="cls-87" x="44.03" y="21.6">r</tspan><tspan x="46.47" y="21.6">es polling places to be </tspan><tspan x="0" y="32.4">accessible to people with </tspan><tspan class="cls-11" x="90" y="32.4">d</tspan><tspan x="94.64" y="32.4">isabilities.</tspan><tspan class="cls-54" x="0" y="43.2">1</tspan><tspan class="cls-65" x="4.1" y="43.2">9</tspan><tspan class="cls-73" x="9.1" y="43.2">8</tspan><tspan x="13.99" y="43.2">4</tspan></text><text class="cls-9" transform="translate(805.74 1429.27)">US milita<tspan class="cls-44" x="31.01" y="0">r</tspan><tspan x="33.96" y="0">y and uniformed se</tspan><tspan class="cls-88" x="100.64" y="0">r</tspan><tspan x="103.5" y="0">vices, me</tspan><tspan class="cls-14" x="135.27" y="0">r</tspan><tspan x="137.72" y="0">chant marine, </tspan><tspan x="0" y="10.8">ot</tspan><tspan class="cls-11" x="6.64" y="10.8">h</tspan><tspan x="10.78" y="10.8">er citi</tspan><tspan class="cls-11" x="29.48" y="10.8">z</tspan><tspan x="33.53" y="10.8">ens ove</tspan><tspan class="cls-37" x="60.22" y="10.8">r</tspan><tspan x="62.78" y="10.8">seas, living on bases in t</tspan><tspan class="cls-70" x="146.22" y="10.8">h</tspan><tspan x="150.36" y="10.8">e US, </tspan><tspan x="0" y="21.6">ab</tspan><tspan class="cls-14" x="9.47" y="21.6">r</tspan><tspan x="11.92" y="21.6">oad or ab</tspan><tspan class="cls-14" x="47.14" y="21.6">r</tspan><tspan x="49.59" y="21.6">od ship can vote.</tspan></text><text class="cls-24" transform="translate(805.74 1395.69)">Uniformed and ove<tspan class="cls-89" x="119.89" y="0">r</tspan><tspan x="124.45" y="0">seas </tspan><tspan x="0" y="19.2">citi</tspan><tspan class="cls-39" x="17.09" y="19.2">z</tspan><tspan class="cls-40" x="24.29" y="19.2">ens absentee act</tspan></text><rect class="cls-22" x="774.76" y="1563.56" width="93.52" height="17.38" rx="8.69" transform="translate(2395.46 717.67) rotate(90)"/><circle class="cls-42" cx="823.21" cy="1523.18" r="2"/><circle class="cls-57" cx="823.21" cy="1505.18" r="2"/><circle class="cls-52" cx="823.21" cy="1559.49" r="2"/><circle class="cls-48" cx="823.21" cy="1541.18" r="2"/><circle class="cls-58" cx="823.21" cy="1577.18" r="2"/><text class="cls-24" transform="translate(809.11 1607.61)"><tspan class="cls-32">1</tspan><tspan class="cls-90" x="7.3" y="0">9</tspan><tspan x="16.18" y="0">86</tspan></text><circle class="cls-91" cx="432.96" cy="549.78" r="4.04"/><line class="cls-91" x1="432.96" y1="564.27" x2="432.96" y2="553.82"/><line class="cls-91" x1="431" y1="560.66" x2="434.92" y2="560.66"/><text class="cls-9" transform="translate(440.73 552.69)"><tspan class="cls-10">T</tspan><tspan class="cls-11" x="3.19" y="0">h</tspan><tspan x="7.33" y="0">e fi</tspan><tspan class="cls-92" x="17.89" y="0">r</tspan><tspan x="20.46" y="0">st wome</tspan><tspan class="cls-11" x="48.99" y="0">n</tspan><tspan class="cls-93" x="53.13" y="0">’</tspan><tspan x="54.86" y="0">s rights convention</tspan><tspan class="cls-15" x="0" y="10.8">1</tspan><tspan class="cls-55" x="3.99" y="10.8">8</tspan><tspan x="8.87" y="10.8">48</tspan></text><text class="cls-9" transform="translate(919.44 1107.01)"><tspan class="cls-94">W</tspan><tspan x="8.25" y="0">omen can vote. Black women </tspan><tspan x="0" y="10.8">struggle with t</tspan><tspan class="cls-11" x="47.91" y="10.8">h</tspan><tspan x="52.04" y="10.8">e barrie</tspan><tspan class="cls-37" x="79.47" y="10.8">r</tspan><tspan x="82.03" y="10.8">s to vote.</tspan></text><text class="cls-24" transform="translate(916.44 1094.92)"><tspan class="cls-32">1</tspan><tspan x="7.3" y="0">9th amendment</tspan></text><circle class="cls-91" cx="912.12" cy="1088.71" r="4.04"/><line class="cls-91" x1="912.12" y1="1103.21" x2="912.12" y2="1092.75"/><line class="cls-91" x1="910.17" y1="1099.6" x2="914.08" y2="1099.6"/><text class="cls-9" transform="translate(369.35 950.97)"><tspan class="cls-27">W</tspan><tspan x="8.09" y="0">hite ma</tspan><tspan class="cls-95" x="33.44" y="0">n</tspan><tspan class="cls-93" x="37.58" y="0">’</tspan><tspan x="39.31" y="0">s league is formed.</tspan><tspan class="cls-15" x="0" y="10.8">1</tspan><tspan class="cls-16" x="3.99" y="10.8">8</tspan><tspan class="cls-96" x="8.65" y="10.8">7</tspan><tspan x="12.52" y="10.8">4</tspan></text><text class="cls-9" transform="translate(92.89 994.52)">Fi<tspan class="cls-37" x="5.78" y="0">r</tspan><tspan x="8.34" y="0">st KKK</tspan><tspan class="cls-15" x="0" y="10.8">1</tspan><tspan x="3.99" y="10.8">865</tspan></text><text class="cls-9" transform="translate(1084.16 1024.55)">Second KKK<tspan class="cls-54" x="0" y="10.8">19</tspan><tspan class="cls-15" x="8.21" y="10.8">1</tspan><tspan x="12.19" y="10.8">5</tspan></text><text class="cls-9" transform="translate(174.72 1271.71)"><tspan class="cls-10">T</tspan><tspan x="3.19" y="0">hi</tspan><tspan class="cls-14" x="9.29" y="0">r</tspan><tspan x="11.74" y="0">d KKK is active</tspan><tspan class="cls-54" x="0" y="10.8">1</tspan><tspan class="cls-72" x="4.1" y="10.8">9</tspan><tspan x="8.87" y="10.8">50s-</tspan><tspan class="cls-54" x="25.15" y="10.8">1</tspan><tspan class="cls-55" x="29.25" y="10.8">9</tspan><tspan x="34.14" y="10.8">60s</tspan></text><text class="cls-9" transform="translate(174.28 1336.95)">Selma to Montgome<tspan class="cls-97" x="71.18" y="0">r</tspan><tspan x="74.12" y="0">y ma</tspan><tspan class="cls-14" x="91.26" y="0">r</tspan><tspan x="93.71" y="0">c</tspan><tspan class="cls-70" x="97.65" y="0">h</tspan><tspan x="101.79" y="0">es</tspan><tspan class="cls-54" x="0" y="10.8">1</tspan><tspan class="cls-55" x="4.1" y="10.8">9</tspan><tspan x="8.99" y="10.8">65</tspan></text><text class="cls-9" transform="translate(394.99 618.66)"><tspan class="cls-10">T</tspan><tspan class="cls-11" x="3.19" y="0">h</tspan><tspan x="7.33" y="0">e </tspan><tspan class="cls-12" x="13.75" y="0">P</tspan><tspan x="17.68" y="0">age Act</tspan><tspan class="cls-98" x="0" y="10.8">F</tspan><tspan x="3.53" y="10.8">emale East Asian immig</tspan><tspan class="cls-99" x="85.82" y="10.8">r</tspan><tspan class="cls-100" x="88.3" y="10.8">ants we</tspan><tspan class="cls-14" x="114.92" y="10.8">r</tspan><tspan x="117.36" y="10.8">e </tspan><tspan x="0" y="21.6">p</tspan><tspan class="cls-14" x="4.73" y="21.6">r</tspan><tspan x="7.18" y="21.6">ohibited to immig</tspan><tspan class="cls-51" x="67.24" y="21.6">r</tspan><tspan x="69.71" y="21.6">ate to t</tspan><tspan class="cls-11" x="93.46" y="21.6">h</tspan><tspan x="97.6" y="21.6">e US.</tspan><tspan class="cls-15" x="0" y="32.4">1</tspan><tspan class="cls-16" x="3.99" y="32.4">8</tspan><tspan class="cls-17" x="8.65" y="32.4">7</tspan><tspan x="12.97" y="32.4">5</tspan></text><text class="cls-9" transform="translate(565.78 684.42)">Chinese Exclusion Act <tspan class="cls-10" x="0" y="10.8">T</tspan><tspan class="cls-11" x="3.19" y="10.8">h</tspan><tspan x="7.33" y="10.8">e act p</tspan><tspan class="cls-14" x="31.18" y="10.8">r</tspan><tspan x="33.63" y="10.8">ohibita all immig</tspan><tspan class="cls-99" x="91.19" y="10.8">r</tspan><tspan x="93.67" y="10.8">ation of </tspan><tspan x="0" y="21.6">Chinese labo</tspan><tspan class="cls-14" x="46.12" y="21.6">r</tspan><tspan x="48.57" y="21.6">e</tspan><tspan class="cls-37" x="52.9" y="21.6">r</tspan><tspan x="55.47" y="21.6">s</tspan><tspan class="cls-15" x="0" y="32.4">1</tspan><tspan x="3.99" y="32.4">8</tspan><tspan class="cls-67" x="9.1" y="32.4">8</tspan><tspan x="13.87" y="32.4">2</tspan></text><text class="cls-9" transform="translate(1034.75 1444.43)"><tspan class="cls-98">F</tspan><tspan x="3.53" y="0">elon right a</tspan><tspan class="cls-14" x="43.03" y="0">r</tspan><tspan x="45.48" y="0">e g</tspan><tspan class="cls-51" x="56.64" y="0">r</tspan><tspan x="59.11" y="0">adually </tspan><tspan class="cls-14" x="87.48" y="0">r</tspan><tspan x="89.93" y="0">esto</tspan><tspan class="cls-14" x="104.07" y="0">r</tspan><tspan x="106.52" y="0">ed.</tspan><tspan class="cls-54" x="0" y="10.8">1</tspan><tspan x="4.1" y="10.8">9</tspan><tspan class="cls-55" x="9.22" y="10.8">9</tspan><tspan x="14.1" y="10.8">6-</tspan><tspan class="cls-55" x="22.09" y="10.8">2</tspan><tspan x="26.98" y="10.8">008</tspan></text><line class="cls-18" x1="50.1" y1="335.68" x2="64.08" y2="335.68"/><line class="cls-1" x1="50.1" y1="358.39" x2="64" y2="358.39"/><text class="cls-83" transform="translate(74.34 340.24)">Males only can vote</text><text class="cls-83" transform="translate(74.34 364.16)">Males and <tspan class="cls-98" x="70.69" y="0">F</tspan><tspan x="76.96" y="0">emales can vote</tspan></text><text class="cls-9" transform="translate(590.19 1071.47)">In<tspan class="cls-11" x="6.44" y="0">d</tspan><tspan x="11.09" y="0">ian </tspan><tspan class="cls-12" x="24.02" y="0">R</tspan><tspan x="28.36" y="0">eo</tspan><tspan class="cls-14" x="37.4" y="0">r</tspan><tspan x="39.85" y="0">gani</tspan><tspan class="cls-11" x="55.42" y="0">z</tspan><tspan class="cls-100" x="59.47" y="0">ation Act</tspan><tspan class="cls-10" x="0" y="10.8">T</tspan><tspan class="cls-11" x="3.19" y="10.8">h</tspan><tspan x="7.33" y="10.8">e act aimed at dec</tspan><tspan class="cls-14" x="72.14" y="10.8">r</tspan><tspan x="74.59" y="10.8">easing fede</tspan><tspan class="cls-99" x="115.3" y="10.8">r</tspan><tspan x="117.78" y="10.8">al cont</tspan><tspan class="cls-14" x="141.29" y="10.8">r</tspan><tspan x="143.74" y="10.8">ol of </tspan><tspan x="0" y="21.6">American In</tspan><tspan class="cls-11" x="42.07" y="21.6">d</tspan><tspan x="46.72" y="21.6">ian a</tspan><tspan class="cls-66" x="64.38" y="21.6">f</tspan><tspan x="66.72" y="21.6">fai</tspan><tspan class="cls-37" x="75.49" y="21.6">r</tspan><tspan x="78.05" y="21.6">s and inc</tspan><tspan class="cls-14" x="109.16" y="21.6">r</tspan><tspan x="111.6" y="21.6">easing In</tspan><tspan class="cls-11" x="143.21" y="21.6">d</tspan><tspan x="147.85" y="21.6">ian </tspan><tspan x="0" y="32.4">self-government and </tspan><tspan class="cls-14" x="73.44" y="32.4">r</tspan><tspan x="75.88" y="32.4">esponsibili</tspan><tspan class="cls-101" x="112.45" y="32.4">t</tspan><tspan class="cls-75" x="114.65" y="32.4">y</tspan><tspan x="118.4" y="32.4">.</tspan><tspan class="cls-54" x="0" y="43.2">1</tspan><tspan class="cls-72" x="4.1" y="43.2">9</tspan><tspan class="cls-16" x="8.87" y="43.2">3</tspan><tspan x="13.54" y="43.2">4</tspan></text><line class="cls-8" x1="900.69" y1="509.22" x2="900.69" y2="535.74"/><line class="cls-7" x1="443.44" y1="509.22" x2="443.44" y2="535.74"/><line class="cls-102" x1="461.5" y1="850.14" x2="461.5" y2="876.65"/><line class="cls-102" x1="105.97" y1="875.45" x2="105.97" y2="901.96"/><line class="cls-102" x1="105.97" y1="951.44" x2="105.97" y2="977.96"/><line class="cls-102" x1="164.48" y1="770.9" x2="164.48" y2="797.41"/><line class="cls-50" x1="407.97" y1="662.57" x2="407.97" y2="689.08"/><line class="cls-7" x1="736.07" y1="868.14" x2="736.07" y2="894.65"/><line class="cls-7" x1="1138.1" y1="1186.01" x2="1138.1" y2="1212.53"/><line class="cls-8" x1="989.84" y1="1209.13" x2="989.84" y2="1235.64"/><line class="cls-47" x1="603" y1="1126.61" x2="603" y2="1153.13"/><line class="cls-47" x1="838.45" y1="982.24" x2="838.45" y2="1008.75"/><line class="cls-50" x1="264.42" y1="1024.03" x2="264.42" y2="1050.54"/><line class="cls-102" x1="171.23" y1="1572" x2="171.23" y2="1598.51"/><line class="cls-8" x1="486.51" y1="1387.94" x2="486.51" y2="1414.45"/><line class="cls-8" x1="1049.54" y1="1465.71" x2="1049.54" y2="1492.22"/><line class="cls-102" x1="407.97" y1="812.14" x2="407.97" y2="727.87"/><line class="cls-102" x1="105.72" y1="835.96" x2="105.72" y2="751.68"/><line class="cls-50" x1="574.06" y1="812.14" x2="574.06" y2="727.87"/><line class="cls-103" x1="1097.26" y1="1130.97" x2="1097.26" y2="1046.7"/><line class="cls-8" x1="473.39" y1="168.2" x2="473.39" y2="194.71"/><line class="cls-8" x1="759.64" y1="1492.22" x2="759.64" y2="1341.67"/><line class="cls-8" x1="186.27" y1="1445.04" x2="186.27" y2="1471.55"/><line class="cls-102" x1="186.27" y1="1359.47" x2="186.27" y2="1385.99"/><line class="cls-102" x1="103.76" y1="1629.89" x2="103.76" y2="1514.4"/><line class="cls-102" x1="186.27" y1="1293.87" x2="186.27" y2="1320.39"/><line class="cls-8" x1="264.42" y1="958.86" x2="264.42" y2="985.37"/><line class="cls-7" x1="1066.61" y1="1328.81" x2="1066.61" y2="1355.32"/></g><g id="Women"><circle class="cls-91" cx="718.59" cy="908.69" r="4.04"/><line class="cls-91" x1="718.59" y1="923.19" x2="718.59" y2="912.73"/><line class="cls-91" x1="716.63" y1="919.58" x2="720.54" y2="919.58"/><text class="cls-9" transform="translate(726.36 911.6)"><tspan class="cls-10">T</tspan><tspan class="cls-11" x="3.19" y="0">h</tspan><tspan x="7.33" y="0">e National American </tspan><tspan class="cls-104" x="82.46" y="0">W</tspan><tspan x="90.71" y="0">oman </tspan><tspan x="0" y="10.8">Su</tspan><tspan class="cls-66" x="8.86" y="10.8">f</tspan><tspan x="11.2" y="10.8">f</tspan><tspan class="cls-36" x="13.36" y="10.8">r</tspan><tspan x="15.83" y="10.8">age Association is formed.</tspan><tspan class="cls-15" x="0" y="21.6">1</tspan><tspan class="cls-55" x="3.99" y="21.6">8</tspan><tspan x="8.87" y="21.6">90</tspan></text><line class="cls-7" x1="123.61" y1="621.85" x2="123.61" y2="595.42"/><circle class="cls-91" cx="109.76" cy="635.89" r="4.04"/><line class="cls-91" x1="109.76" y1="650.39" x2="109.76" y2="639.93"/><line class="cls-91" x1="107.8" y1="646.78" x2="111.72" y2="646.78"/><text class="cls-9" transform="translate(118.53 638.8)"><tspan class="cls-10">T</tspan><tspan class="cls-11" x="3.19" y="0">h</tspan><tspan x="7.33" y="0">e fi</tspan><tspan class="cls-92" x="17.89" y="0">r</tspan><tspan x="20.46" y="0">st National </tspan><tspan class="cls-105" x="60.72" y="0">W</tspan><tspan x="68.97" y="0">ome</tspan><tspan class="cls-11" x="84.18" y="0">n</tspan><tspan class="cls-93" x="88.32" y="0">’</tspan><tspan x="90.05" y="0">s </tspan><tspan x="0" y="10.8">Rights Convention</tspan><tspan class="cls-15" x="0" y="21.6">1</tspan><tspan class="cls-67" x="3.99" y="21.6">8</tspan><tspan x="8.76" y="21.6">50</tspan></text><circle class="cls-91" cx="1124.62" cy="1226.57" r="4.04"/><line class="cls-91" x1="1124.62" y1="1241.06" x2="1124.62" y2="1230.61"/><line class="cls-91" x1="1122.66" y1="1237.45" x2="1126.58" y2="1237.45"/><text class="cls-9" transform="translate(1132.4 1229.48)"><tspan class="cls-94">W</tspan><tspan x="8.25" y="0">oman Su</tspan><tspan class="cls-66" x="39.05" y="0">f</tspan><tspan x="41.39" y="0">f</tspan><tspan class="cls-36" x="43.55" y="0">r</tspan><tspan x="46.03" y="0">age P</tspan><tspan class="cls-14" x="66.02" y="0">r</tspan><tspan x="68.47" y="0">ocession</tspan><tspan class="cls-54" x="0" y="10.8">19</tspan><tspan class="cls-43" x="8.21" y="10.8">1</tspan><tspan x="12.09" y="10.8">3</tspan></text><circle class="cls-91" cx="1058.84" cy="1304.31" r="4.04"/><line class="cls-91" x1="1058.84" y1="1318.81" x2="1058.84" y2="1308.35"/><line class="cls-91" x1="1056.88" y1="1315.2" x2="1060.8" y2="1315.2"/><text class="cls-9" transform="translate(1066.61 1306.97)">National <tspan class="cls-94" x="33.07" y="0">W</tspan><tspan x="41.33" y="0">oman&apos;s </tspan><tspan class="cls-79" x="68.13" y="0">P</tspan><tspan x="72.05" y="0">a</tspan><tspan class="cls-66" x="76.79" y="0">r</tspan><tspan class="cls-29" x="79.63" y="0">t</tspan><tspan x="81.83" y="0">y is formed.</tspan><tspan class="cls-54" x="0" y="10.8">19</tspan><tspan class="cls-106" x="8.21" y="10.8">1</tspan><tspan x="12.42" y="10.8">6</tspan></text><circle class="cls-91" cx="1058.69" cy="1369.55" r="4.04"/><line class="cls-91" x1="1058.69" y1="1384.05" x2="1058.69" y2="1373.59"/><line class="cls-91" x1="1056.74" y1="1380.44" x2="1060.65" y2="1380.44"/><text class="cls-9" transform="translate(1066.47 1372.47)">Silent Sentinels<tspan class="cls-54" x="0" y="10.8">191</tspan><tspan x="12.31" y="10.8">7-</tspan><tspan class="cls-74" x="20.3" y="10.8">191</tspan><tspan x="32.61" y="10.8">9</tspan></text><line class="cls-102" x1="380.48" y1="934.41" x2="380.48" y2="850.14"/><line class="cls-7" x1="1066.61" y1="1290.27" x2="1066.61" y2="1206"/></g></svg>